<?xml version="1.0" encoding="utf-8"?>
<!-- Generator: Adobe Illustrator 19.2.1, SVG Export Plug-In . SVG Version: 6.00 Build 0)  -->
<svg version="1.1" id="Layer_1" xmlns="http://www.w3.org/2000/svg" xmlns:xlink="http://www.w3.org/1999/xlink" x="0px" y="0px"
	 viewBox="0 0 772 261" style="enable-background:new 0 0 772 261;" xml:space="preserve">
<style type="text/css">
	.st0{fill:#292C38;}
	.st1{fill:#FFFFFF;}
	.st2{fill:#282C37;}
	.st3{fill:#313541;stroke:#313541;stroke-miterlimit:10;}
	.st4{fill:#FFC90D;stroke:#FFC90D;stroke-miterlimit:10;}
</style>
<g>
	<g>
		<rect x="265.5" y="1.8" class="st0" width="108.6" height="116.8"/>
		<rect x="265.5" y="142.3" class="st0" width="108.6" height="116.8"/>
		<rect x="397.9" y="1.8" class="st0" width="108.6" height="116.8"/>
		<rect x="397.9" y="142.3" class="st0" width="108.6" height="116.8"/>
		<g>
			<g>
				<path class="st1" d="M287.8,74v1.3h-6.6v4.5h5.9v1.3h-5.9v5.4h-1.4V74H287.8z"/>
				<path class="st1" d="M298.4,81.9c0,2.8-2,4.8-4.8,4.8c-2.8,0-4.8-2-4.8-4.8s2-4.8,4.8-4.8C296.4,77.1,298.4,79.1,298.4,81.9z
					 M290,81.9c0,2.1,1.4,3.6,3.4,3.6s3.4-1.4,3.4-3.6c0-2.1-1.4-3.5-3.4-3.5S290,79.8,290,81.9z"/>
				<path class="st1" d="M302.2,73.3v13.4h-1.4V73.3H302.2z"/>
				<path class="st1" d="M307.2,73.3v13.4h-1.4V73.3H307.2z"/>
				<path class="st1" d="M319.4,81.9c0,2.8-2,4.8-4.8,4.8s-4.8-2-4.8-4.8s2-4.8,4.8-4.8C317.4,77.1,319.4,79.1,319.4,81.9z
					 M311.2,81.9c0,2.1,1.4,3.6,3.4,3.6s3.4-1.4,3.4-3.6c0-2.1-1.4-3.5-3.4-3.5S311.2,79.8,311.2,81.9z"/>
				<path class="st1" d="M321.4,77.2l2.8,8l2.8-8h1.5l2.8,8l2.8-8h1.5l-3.5,9.5h-1.5l-2.8-7.8l-2.8,7.8h-1.5l-3.5-9.5H321.4z"/>
				<path class="st1" d="M345,82.4h-7.7c0.2,1.9,1.6,3.1,3.4,3.1c1.2,0,2.2-0.4,2.9-1.2l0.8,0.8c-0.9,1-2.2,1.6-3.8,1.6
					c-2.8,0-4.8-2-4.8-4.8s1.9-4.8,4.7-4.8C343.6,77.1,345.1,79.2,345,82.4z M343.8,81.3c-0.1-1.8-1.3-3-3.2-3c-1.8,0-3.1,1.2-3.3,3
					H343.8z"/>
				<path class="st1" d="M352.2,77.1v1.4c-2,0-3.2,1.2-3.4,3.1v5h-1.4v-9.5h1.4v2.1C349.4,77.9,350.6,77.1,352.2,77.1z"/>
				<path class="st1" d="M356.5,78.3c-1.1,0-1.9,0.4-1.9,1.3c0,2.1,5.3,1,5.3,4.4c0,1.9-1.7,2.7-3.5,2.7c-1.4,0-2.7-0.5-3.6-1.3
					l0.5-1c0.8,0.8,2,1.2,3.2,1.2c1.1,0,2-0.4,2-1.4c0.1-2.3-5.3-1.1-5.2-4.5c0-1.8,1.6-2.6,3.3-2.6c1.1,0,2.2,0.3,3,0.9l-0.5,1.1
					C358.4,78.6,357.4,78.3,356.5,78.3z"/>
			</g>
			<g>
				<path class="st1" d="M317.4,40.5c0,2.2-1.2,4.2-3.2,5.3c2.8,1.1,4.5,3.5,4.5,6.4c0,4.5-3.9,7.4-9.9,7.4c-6.1,0-10-2.8-10-7.3
					c0-2.9,1.9-5.4,4.8-6.5c-2.2-1.2-3.5-3.2-3.5-5.5c0-4,3.3-6.5,8.6-6.5C313.9,33.7,317.4,36.3,317.4,40.5z M304,51.6
					c0,2.3,1.7,3.6,4.6,3.6s4.6-1.3,4.6-3.6c0-2.2-1.7-3.5-4.6-3.5S304,49.4,304,51.6z M304.8,40.8c0,1.9,1.4,3.1,3.9,3.1
					s3.9-1.1,3.9-3.1s-1.4-3.1-3.9-3.1S304.8,38.8,304.8,40.8z"/>
				<path class="st1" d="M332.9,38.2c-4.3,0-6.4,3-6.3,7.5c1.3-1.9,3.4-3,6.3-3c4.9,0,8.1,3.2,8.1,8.2c0,5.3-3.6,8.6-9.1,8.6
					c-6.6,0-10.5-4.7-10.5-12.4c0-8.1,4.4-13.3,11.2-13.3c2.7,0,5.8,0.8,7.8,2l-2.1,4.1C336.8,38.8,334.8,38.2,332.9,38.2z
					 M327.4,50.9c0,2,1.3,3.9,4.2,3.9c2.6,0,4.2-1.4,4.2-4c0-2.4-1.5-3.9-4.1-3.9C328.9,47,327.2,48.7,327.4,50.9z"/>
			</g>
		</g>
		<g>
			<g>
				<path class="st1" d="M297.9,214.4v1.3h-7.1v4.2h6.4v1.3h-6.4v4.4h7.3v1.3h-8.8v-12.6h8.6V214.4z"/>
				<path class="st1" d="M304.6,218.7c-2,0-3.4,1.4-3.4,3.5s1.4,3.5,3.4,3.5c1.2,0,2.3-0.4,2.9-1.2l0.8,0.8c-0.8,1-2.2,1.6-3.8,1.6
					c-2.8,0-4.7-2-4.7-4.8s2-4.8,4.7-4.8c1.5,0,2.8,0.5,3.7,1.4l-0.8,1C306.8,219.1,305.8,218.7,304.6,218.7z"/>
				<path class="st1" d="M319.6,221.2v5.8h-1.4v-5.5c0-1.7-1-2.7-2.7-2.7c-2,0-3.2,1.5-3.2,3.5v4.6h-1.4v-13.4h1.4v6
					c0.6-1.5,1.9-2.2,3.7-2.2C318.4,217.5,319.6,218.9,319.6,221.2z"/>
				<path class="st1" d="M331.4,222.2c0,2.8-2,4.8-4.8,4.8s-4.8-2-4.8-4.8s2-4.8,4.8-4.8C329.4,217.5,331.4,219.4,331.4,222.2z
					 M323.2,222.3c0,2.1,1.4,3.6,3.4,3.6s3.4-1.4,3.4-3.6c0-2.1-1.4-3.5-3.4-3.5C324.6,218.7,323.2,220.2,323.2,222.3z"/>
				<path class="st1" d="M342.1,222.8h-7.7c0.2,1.9,1.6,3.1,3.4,3.1c1.2,0,2.2-0.4,2.9-1.2l0.8,0.8c-0.9,1-2.2,1.6-3.8,1.6
					c-2.8,0-4.7-2-4.7-4.8s1.9-4.8,4.7-4.8C340.8,217.5,342.2,219.6,342.1,222.8z M340.9,221.7c-0.1-1.8-1.3-3-3.2-3
					c-1.8,0-3.1,1.2-3.3,3H340.9z"/>
				<path class="st1" d="M346.9,218.6c-1.1,0-1.9,0.4-1.9,1.3c0,2.1,5.3,1,5.3,4.4c0,1.9-1.7,2.7-3.5,2.7c-1.4,0-2.7-0.5-3.6-1.3
					l0.5-1c0.8,0.8,2,1.2,3.2,1.2c1.1,0,2-0.4,2-1.4c0.1-2.3-5.3-1.1-5.2-4.5c0-1.8,1.6-2.6,3.3-2.6c1.1,0,2.2,0.3,3,0.9l-0.5,1.1
					C348.8,218.9,347.9,218.6,346.9,218.6z"/>
			</g>
			<g>
				<path class="st1" d="M317.9,191.7c0,4.8-3.9,8.1-10.1,8.1c-3.6,0-7.2-1.2-9.6-3l2.3-4.5c2,1.9,4.4,3,6.9,3c3.2,0,5-1.4,5-3.6
					c0-2.3-1.8-3.5-5-3.5h-4v-3.1l6.4-6.2h-10.3v-4.6h17.2v3.4l-7.3,6.8l1.4,0.2C315,185.3,317.9,187.7,317.9,191.7z"/>
				<path class="st1" d="M334.4,174.3l-7.5,14.9h5.9v-5.5h5.2v5.6h3.4v4.6h-3.5v5.7h-5.2v-5.7H321v-4l8-15.6H334.4z"/>
			</g>
		</g>
		<g>
			<g>
				<path class="st1" d="M414.8,225.5l-2.6-4c-0.3,0-0.5,0-0.8,0H408v4h-1.4v-12.6h4.8c3.2,0,5,1.5,5,4.2c0,2.1-1,3.5-2.8,4.1l3,4.3
					H414.8z M411.2,220.2c2.3,0,3.6-1,3.6-3c0-1.9-1.3-2.9-3.6-2.9h-3.3v5.9H411.2z"/>
				<path class="st1" d="M427.5,221.3h-7.7c0.2,1.9,1.6,3.1,3.4,3.1c1.2,0,2.2-0.4,2.9-1.2l0.8,0.8c-0.9,1-2.2,1.6-3.8,1.6
					c-2.8,0-4.7-2-4.7-4.8s1.9-4.8,4.7-4.8C426.1,216,427.6,218.1,427.5,221.3z M426.2,220.2c-0.1-1.8-1.3-3-3.2-3
					c-1.8,0-3.1,1.2-3.3,3H426.2z"/>
				<path class="st1" d="M432.4,217.1c-1.1,0-1.9,0.4-1.9,1.3c0,2.1,5.3,1,5.3,4.4c0,1.9-1.7,2.7-3.5,2.7c-1.4,0-2.7-0.5-3.6-1.3
					l0.5-1c0.8,0.8,2,1.2,3.2,1.2c1.2,0,2-0.4,2-1.4c0.1-2.3-5.3-1.1-5.2-4.5c0-1.8,1.6-2.6,3.3-2.6c1.1,0,2.2,0.3,3,0.9l-0.5,1.1
					C434.1,217.4,433.1,217.1,432.4,217.1z"/>
				<path class="st1" d="M447.8,220.8c0,2.8-1.8,4.8-4.5,4.8c-1.7,0-3-0.8-3.7-2.1v5.5h-1.4v-13h1.4v2c0.7-1.3,2-2.1,3.7-2.1
					C445.9,216,447.8,217.9,447.8,220.8z M446.4,220.7c0-2.1-1.4-3.6-3.4-3.6s-3.4,1.5-3.4,3.6s1.4,3.6,3.4,3.6
					S446.4,222.8,446.4,220.7z"/>
				<path class="st1" d="M458.9,220.7c0,2.8-2,4.8-4.8,4.8c-2.8,0-4.8-2-4.8-4.8s2-4.8,4.8-4.8C456.9,216,458.9,217.9,458.9,220.7z
					 M450.6,220.8c0,2.1,1.4,3.6,3.4,3.6s3.4-1.4,3.4-3.6c0-2.1-1.4-3.5-3.4-3.5C452,217.2,450.6,218.7,450.6,220.8z"/>
				<path class="st1" d="M470,219.7v5.8h-1.4V220c0-1.7-1-2.7-2.7-2.7c-1.9,0-3,1.3-3.2,3.1v5.1h-1.4v-9.5h1.4v2.1
					c0.7-1.4,1.9-2.1,3.7-2.1C468.6,216,470,217.4,470,219.7z"/>
				<path class="st1" d="M475.5,217.1c-1.1,0-1.9,0.4-1.9,1.3c0,2.1,5.3,1,5.3,4.4c0,1.9-1.7,2.7-3.5,2.7c-1.4,0-2.7-0.5-3.6-1.3
					l0.5-1c0.8,0.8,2,1.2,3.2,1.2c1.1,0,2-0.4,2-1.4c0.1-2.3-5.3-1.1-5.2-4.5c0-1.8,1.6-2.6,3.3-2.6c1.1,0,2.2,0.3,3,0.9l-0.5,1.1
					C477.4,217.4,476.5,217.1,475.5,217.1z"/>
				<path class="st1" d="M489.5,221.3h-7.7c0.2,1.9,1.6,3.1,3.4,3.1c1.2,0,2.2-0.4,2.9-1.2l0.8,0.8c-0.9,1-2.2,1.6-3.8,1.6
					c-2.8,0-4.7-2-4.7-4.8s1.9-4.8,4.7-4.8C488,216,489.6,218.1,489.5,221.3z M488.1,220.2c-0.1-1.8-1.3-3-3.2-3
					c-1.8,0-3.1,1.2-3.3,3H488.1z"/>
				<path class="st1" d="M494.4,217.1c-1.1,0-1.9,0.4-1.9,1.3c0,2.1,5.3,1,5.3,4.4c0,1.9-1.7,2.7-3.5,2.7c-1.4,0-2.7-0.5-3.6-1.3
					l0.5-1c0.8,0.8,2,1.2,3.2,1.2c1.2,0,2-0.4,2-1.4c0.1-2.3-5.3-1.1-5.2-4.5c0-1.8,1.6-2.6,3.3-2.6c1.1,0,2.2,0.3,3,0.9l-0.5,1.1
					C496.1,217.4,495.1,217.1,494.4,217.1z"/>
			</g>
			<g>
				<path class="st1" d="M443,176.8c-4.3,0-6.4,3-6.3,7.5c1.3-1.9,3.4-3,6.3-3c4.9,0,8.1,3.2,8.1,8.2c0,5.3-3.6,8.6-9.1,8.6
					c-6.6,0-10.5-4.7-10.5-12.4c0-8.1,4.4-13.3,11.2-13.3c2.7,0,5.8,0.8,7.8,2l-2.1,4.1C446.9,177.4,445,176.8,443,176.8z
					 M437.5,189.6c0,2,1.3,3.9,4.2,3.9c2.6,0,4.2-1.4,4.2-4c0-2.4-1.5-3.9-4.1-3.9C439,185.6,437.5,187.4,437.5,189.6z"/>
				<path class="st1" d="M466,179.8c0-1.6-1.3-2.6-3.5-2.6c-2.2,0-4.8,1.2-7,3.2l-2.2-4.2c3.1-2.3,6.5-3.7,10.1-3.7
					c5,0,8.6,2.6,8.6,6.5c0,2.7-2.1,5.5-4.8,8.4l-5.9,5.8h11.6v4.8h-19v-3.9l9.3-9.6C464.8,182.7,466,181,466,179.8z"/>
			</g>
		</g>
		<g>
			<g>
				<path class="st1" d="M419,72.3v1.3h-6.6v4.5h5.9v1.3h-5.9v5.4H411V72.3H419z"/>
				<path class="st1" d="M429.5,80.2c0,2.8-2,4.8-4.8,4.8c-2.8,0-4.8-2-4.8-4.8s2-4.8,4.8-4.8C427.5,75.4,429.5,77.4,429.5,80.2z
					 M421.4,80.2c0,2.1,1.4,3.6,3.4,3.6s3.4-1.4,3.4-3.6c0-2.1-1.4-3.5-3.4-3.5C422.8,76.6,421.4,78.1,421.4,80.2z"/>
				<path class="st1" d="M433.5,71.6V85h-1.4V71.6H433.5z"/>
				<path class="st1" d="M438.5,71.6V85h-1.4V71.6H438.5z"/>
				<path class="st1" d="M450.6,80.2c0,2.8-2,4.8-4.8,4.8c-2.8,0-4.8-2-4.8-4.8s2-4.8,4.8-4.8C448.6,75.4,450.6,77.4,450.6,80.2z
					 M442.5,80.2c0,2.1,1.4,3.6,3.4,3.6s3.4-1.4,3.4-3.6c0-2.1-1.4-3.5-3.4-3.5C443.9,76.6,442.5,78.1,442.5,80.2z"/>
				<path class="st1" d="M452.6,75.5l2.8,8l2.8-8h1.5l2.8,8l2.8-8h1.5l-3.5,9.5h-1.5l-2.8-7.8l-2.8,7.8h-1.5l-3.5-9.5H452.6z"/>
				<path class="st1" d="M470,72.7c0,0.5-0.4,1-0.9,1s-0.9-0.4-0.9-1s0.4-1,0.9-1C469.5,71.8,470,72.2,470,72.7z M469.8,75.5V85
					h-1.4v-9.5H469.8z"/>
				<path class="st1" d="M481.9,79.1v5.8h-1.4v-5.5c0-1.7-1-2.7-2.7-2.7c-1.9,0-3,1.3-3.2,3.1v5.1h-1.4v-9.5h1.4v2.1
					c0.7-1.4,1.9-2.1,3.7-2.1C480.5,75.4,481.9,76.8,481.9,79.1z"/>
				<path class="st1" d="M493.2,75.5V84c0,2.8-1.9,4.5-4.8,4.5c-1.5,0-2.7-0.5-3.9-1.4l0.6-1c0.9,0.8,1.9,1.2,3.2,1.2
					c2.1,0,3.4-1.3,3.4-3.3v-1.4c-0.7,1.3-1.9,2-3.5,2c-2.6,0-4.3-1.9-4.3-4.6s1.7-4.5,4.3-4.5c1.6,0,2.8,0.7,3.5,2v-1.9L493.2,75.5
					L493.2,75.5z M491.9,80c0-2-1.4-3.4-3.2-3.4c-1.9,0-3.2,1.4-3.3,3.4c0,2,1.4,3.4,3.3,3.4C490.5,83.4,491.9,81.9,491.9,80z"/>
			</g>
			<g>
				<path class="st1" d="M440.9,41.2c5.8,0,9.6,3.1,9.6,7.6c0,5.2-4,8.6-10.1,8.6c-3.3,0-7.1-1.2-9.7-3.1l2.3-4.5c2,1.9,4.4,3,6.8,3
					c3,0,4.6-1.4,4.6-3.7c0-2.1-1.7-3.4-4.6-3.4c-1.4,0-5.3,0.1-7,0.2v-14h16.6v4.8h-11.3v4.4L440.9,41.2L440.9,41.2z"/>
				<path class="st1" d="M466.5,32L459,46.9h5.9v-5.6h5.2v5.6h3.4v4.6H470v5.7h-5.2v-5.7H453v-4l8-15.6h5.5V32z"/>
			</g>
		</g>
	</g>
	<rect x="1" y="1.9" class="st2" width="240.8" height="257.2"/>
	<g>
		<rect x="530.2" y="1.9" class="st2" width="240.8" height="257.2"/>
		<g>
			<circle class="st3" cx="650.6" cy="136.6" r="80.2"/>
			<path class="st4" d="M655.4,211.2c0-2.8-2.1-5.1-4.8-5.5l0,0c-38.1,0-69-30.9-69-69l0,0c0,0,0-0.1,0-0.1c0-3.1-2.5-5.6-5.6-5.6
				c-3.1,0-5.5,2.5-5.6,5.5h0c0,0,0,0,0,0.1c0,0,0,0,0,0c0,0,0,0.1,0,0.1c0.1,43.8,35.3,79.3,78.9,80c0.2,0,0.4,0,0.6,0
				c0.1,0,0.1,0,0.2,0c0.1,0,0.3,0,0.4,0l0,0C653.3,216.4,655.4,214.1,655.4,211.2z"/>
			<circle class="st2" cx="650.6" cy="136.8" r="69"/>
			<g>
				<g>
					<path class="st1" d="M630,125c0-1.3-1-2-2.7-2c-1.7,0-3.7,1-5.5,2.5l-1.7-3.3c2.4-1.8,5.1-2.9,7.8-2.9c3.9,0,6.7,2,6.7,5.1
						c0,2.1-1.6,4.3-3.8,6.5l-4.6,4.5h9v3.7h-14.7V136l7.3-7.5C629.1,127.3,630,125.9,630,125z"/>
					<path class="st1" d="M645.1,126.6c4.5,0,7.5,2.4,7.5,5.9c0,4.1-3.1,6.7-7.8,6.7c-2.5,0-5.5-1-7.6-2.4l1.8-3.5
						c1.6,1.5,3.4,2.3,5.3,2.3c2.3,0,3.6-1.1,3.6-2.9c0-1.7-1.3-2.6-3.6-2.6c-1.1,0-4.1,0.1-5.4,0.2v-10.9h12.9v3.7h-8.8v3.4H645.1z
						"/>
					<path class="st1" d="M665.5,125.3c0,3.7-2,5.9-5.4,5.9c-3.3,0-5.3-2.2-5.3-5.9c0-3.6,2-5.9,5.3-5.9
						C663.4,119.4,665.5,121.6,665.5,125.3z M657.5,125.3c0,2.2,1,3.5,2.6,3.5c1.7,0,2.6-1.3,2.6-3.5s-1-3.5-2.6-3.5
						C658.5,121.8,657.5,123.1,657.5,125.3z M676.9,119.5l-14.1,19.6h-4.1l14.2-19.6H676.9z M681,133.2c0,3.7-2,5.9-5.4,5.9
						c-3.3,0-5.3-2.2-5.3-5.9c0-3.6,2-5.9,5.3-5.9C679,127.3,681,129.6,681,133.2z M673.1,133.2c0,2.2,1,3.5,2.6,3.5
						c1.7,0,2.6-1.3,2.6-3.5c0-2.2-1-3.5-2.6-3.5C674,129.7,673.1,131.1,673.1,133.2z"/>
				</g>
				<g>
					<path class="st1" d="M621.7,145.9v8.4h-1v-8.4H621.7z"/>
					<path class="st1" d="M625.2,145.9l5,6.8v-6.8h0.9v8.4h-1l-5-6.8v6.8h-1v-8.4H625.2z"/>
					<path class="st1" d="M637.4,146.7c-1.9,0-3.4,1.5-3.4,3.3c0,1.8,1.5,3.3,3.4,3.3c0.9,0,1.8-0.4,2.5-1l0.6,0.6
						c-0.8,0.8-2,1.3-3.1,1.3c-2.4,0-4.3-1.9-4.3-4.2c0-2.4,1.9-4.2,4.4-4.2c1.2,0,2.3,0.5,3.1,1.2l-0.6,0.7
						C639.2,147.1,638.3,146.7,637.4,146.7z"/>
					<path class="st1" d="M647.7,154.2l-1.8-2.7c-0.2,0-0.3,0-0.5,0h-2.2v2.7h-1v-8.4h3.2c2.1,0,3.3,1,3.3,2.8
						c0,1.4-0.7,2.3-1.9,2.7l2,2.9H647.7z M645.4,150.7c1.5,0,2.4-0.7,2.4-2c0-1.3-0.9-2-2.4-2h-2.2v4H645.4z"/>
					<path class="st1" d="M656.6,145.9v0.9h-4.7v2.8h4.2v0.9h-4.2v2.9h4.9v0.9h-5.9v-8.4H656.6z"/>
					<path class="st1" d="M664,152.1h-4.6l-0.9,2.1h-1l3.8-8.4h1l3.8,8.4h-1L664,152.1z M663.6,151.2l-1.9-4.3l-1.9,4.3H663.6z"/>
					<path class="st1" d="M669.6,146.8c-1.1,0-1.8,0.4-1.8,1.2c0,2.2,4.7,1,4.7,4.1c0,1.4-1.2,2.3-3,2.3c-1.2,0-2.4-0.5-3.2-1.3
						l0.4-0.8c0.8,0.7,1.8,1.2,2.8,1.2c1.2,0,2-0.5,2-1.3c0-2.2-4.7-1.1-4.7-4.1c0-1.3,1.2-2.2,2.9-2.2c1,0,2,0.3,2.7,0.8l-0.4,0.9
						C671.2,147,670.3,146.8,669.6,146.8z"/>
					<path class="st1" d="M680.2,145.9v0.9h-4.7v2.8h4.2v0.9h-4.2v2.9h4.9v0.9h-5.9v-8.4H680.2z"/>
				</g>
			</g>
		</g>
		<g>
			<path class="st1" d="M552.6,18.6l3.8,13.7l3.8-13.7h4l3.8,13.7l3.8-13.7h4.2l-6,18.2h-4.2l-3.7-13l-3.7,13h-4.2l-6-18.2H552.6z"
				/>
			<path class="st1" d="M589.1,31h-10c0.5,1.8,1.8,2.8,3.6,2.8c1.3,0,2.6-0.5,3.5-1.5l2.1,2.1c-1.4,1.6-3.5,2.5-6,2.5
				c-4.5,0-7.3-2.9-7.3-7.1c0-4.3,2.9-7.2,7.2-7.2C587.2,22.7,589.5,25.9,589.1,31z M585.4,28.7c-0.1-1.8-1.2-3-3.1-3
				c-1.8,0-3,1.2-3.3,3H585.4z"/>
			<path class="st1" d="M604.6,31h-10c0.5,1.8,1.8,2.8,3.6,2.8c1.3,0,2.6-0.5,3.5-1.5l2.1,2.1c-1.4,1.6-3.5,2.5-6,2.5
				c-4.5,0-7.3-2.9-7.3-7.1c0-4.3,2.9-7.2,7.2-7.2C602.7,22.7,605,25.9,604.6,31z M600.9,28.7c-0.1-1.8-1.2-3-3.1-3
				c-1.8,0-3,1.2-3.3,3H600.9z"/>
			<path class="st1" d="M613.2,31.1l-1.8,1.9v3.8h-4V17.5h4v10.6l5.1-5.3h4.5l-5.1,5.4l5.4,8.6h-4.7L613.2,31.1z"/>
			<path class="st1" d="M627.5,17.5v19.3h-4V17.5H627.5z"/>
			<path class="st1" d="M633.2,42c-1.5,0-2.7-0.4-3.8-1.4l1.7-2.9c0.6,0.5,1.2,0.8,1.8,0.8c0.8,0,1.5-0.4,1.8-1.2l0.4-0.8l-5.8-13.7
				h4.1l3.7,9.6l3.3-9.6h4l-6.1,15.5C637.3,40.8,635.6,42,633.2,42z"/>
			<path class="st1" d="M666.1,33.3h-8.4l-1.4,3.5H652l7.9-18.2h4.2l7.8,18.2h-4.4L666.1,33.3z M664.7,30l-2.9-7.1L659,30H664.7z"/>
			<path class="st1" d="M679.2,26.1c-2,0-3.3,1.5-3.3,3.7c0,2.3,1.4,3.8,3.3,3.8c1.4,0,2.5-0.5,3.2-1.6l2.8,1.9
				c-1.2,2-3.4,3.1-6.2,3.1c-4.2,0-7.1-2.9-7.1-7.1c0-4.3,2.9-7.2,7.2-7.2c2.7,0,4.8,1.1,6.1,2.9l-2.7,1.9
				C681.7,26.6,680.6,26.1,679.2,26.1z"/>
			<path class="st1" d="M696.4,36c-1,0.6-2.3,1-3.6,1c-2.5,0-4.4-1.4-4.4-4.3v-6.5h-2v-2.8h2v-3.8h4v3.8h3.8v2.8h-3.8V32
				c0,1.2,0.5,1.6,1.4,1.6c0.5,0,1.1-0.2,1.9-0.5L696.4,36z"/>
			<path class="st1" d="M702.8,22.8v14h-4v-14H702.8z M702.8,18.8c0,1.1-0.8,2-2,2c-1.1,0-2-0.9-2-2c0-1.2,0.8-2,2-2
				C702,16.8,702.8,17.7,702.8,18.8z"/>
			<path class="st1" d="M708.8,22.8l3.3,10.2l3.3-10.2h4l-5.3,14H710l-5.3-14L708.8,22.8z"/>
			<path class="st1" d="M725.1,22.8v14h-4v-14H725.1z M725.1,18.8c0,1.1-0.8,2-2,2c-1.1,0-1.9-0.9-1.9-2c0-1.2,0.8-2,1.9-2
				C724.3,16.8,725.1,17.7,725.1,18.8z"/>
			<path class="st1" d="M737.6,36c-1,0.6-2.3,1-3.6,1c-2.5,0-4.4-1.4-4.4-4.3v-6.5h-2v-2.8h2v-3.8h4v3.8h3.8v2.8h-3.8V32
				c0,1.2,0.5,1.6,1.4,1.6c0.5,0,1.1-0.2,1.9-0.5L737.6,36z"/>
			<path class="st1" d="M741.7,42c-1.5,0-2.7-0.4-3.8-1.4l1.7-2.9c0.6,0.5,1.2,0.8,1.8,0.8c0.8,0,1.5-0.4,1.8-1.2l0.4-0.8l-5.8-13.7
				h4.1l3.7,9.6l3.3-9.6h4l-6.1,15.5C745.8,40.8,744.1,42,741.7,42z"/>
		</g>
	</g>
</g>
</svg>
