<?xml version="1.0" encoding="utf-8"?>
<!-- Generator: Adobe Illustrator 19.2.1, SVG Export Plug-In . SVG Version: 6.00 Build 0)  -->
<svg version="1.1" id="Layer_1" xmlns="http://www.w3.org/2000/svg" xmlns:xlink="http://www.w3.org/1999/xlink" x="0px" y="0px"
	 viewBox="0 0 1482 260" style="enable-background:new 0 0 1482 260;" xml:space="preserve">
<style type="text/css">
	.st0{fill:#292C38;}
	.st1{fill:#313642;stroke:#313642;stroke-miterlimit:10;}
	.st2{fill:#FFCA0F;stroke:#FFCA0F;stroke-miterlimit:10;}
	.st3{fill:#FFFFFF;}
	.st4{fill:#313642;}
	.st5{fill:#FFCA0F;}
</style>
<g>
	<rect x="0.9" y="1.4" class="st0" width="240.8" height="257.2"/>
	<g>
		<rect x="796.1" y="1.4" class="st0" width="240.8" height="257.2"/>
		<g>
			<circle class="st1" cx="916.5" cy="136.1" r="80.2"/>
			<path class="st2" d="M921.3,210.7c0-2.8-2.1-5.1-4.8-5.5l0,0c-38.1,0-69-30.9-69-69l0,0c0,0,0-0.1,0-0.1c0-3.1-2.5-5.6-5.6-5.6
				c-3.1,0-5.5,2.5-5.6,5.5h0c0,0,0,0,0,0.1c0,0,0,0,0,0c0,0,0,0.1,0,0.1c0.1,43.8,35.3,79.3,78.9,80c0.2,0,0.4,0,0.6,0
				c0.1,0,0.1,0,0.2,0c0.1,0,0.3,0,0.4,0l0,0C919.2,215.9,921.3,213.6,921.3,210.7z"/>
			<circle class="st0" cx="916.5" cy="136.3" r="69"/>
			<g>
				<g>
					<path class="st3" d="M895.9,124.5c0-1.3-1-2-2.7-2c-1.7,0-3.7,1-5.5,2.5l-1.7-3.3c2.4-1.8,5.1-2.9,7.8-2.9c3.9,0,6.7,2,6.7,5.1
						c0,2.1-1.6,4.3-3.8,6.5l-4.6,4.5h9v3.7h-14.7v-3.1l7.3-7.5C895,126.8,895.9,125.4,895.9,124.5z"/>
					<path class="st3" d="M911,126.1c4.5,0,7.5,2.4,7.5,5.9c0,4.1-3.1,6.7-7.8,6.7c-2.5,0-5.5-1-7.6-2.4l1.8-3.5
						c1.6,1.5,3.4,2.3,5.3,2.3c2.3,0,3.6-1.1,3.6-2.9c0-1.7-1.3-2.6-3.6-2.6c-1.1,0-4.1,0.1-5.4,0.2v-10.9h12.9v3.7h-8.8v3.4H911z"
						/>
					<path class="st3" d="M931.4,124.8c0,3.7-2,5.9-5.4,5.9c-3.3,0-5.3-2.2-5.3-5.9c0-3.6,2-5.9,5.3-5.9
						C929.3,118.9,931.4,121.1,931.4,124.8z M923.4,124.8c0,2.2,1,3.5,2.6,3.5c1.7,0,2.6-1.3,2.6-3.5s-1-3.5-2.6-3.5
						C924.4,121.3,923.4,122.6,923.4,124.8z M942.8,119l-14.1,19.6h-4.1l14.2-19.6H942.8z M946.9,132.7c0,3.7-2,5.9-5.4,5.9
						c-3.3,0-5.3-2.2-5.3-5.9c0-3.6,2-5.9,5.3-5.9C944.9,126.8,946.9,129.1,946.9,132.7z M939,132.7c0,2.2,1,3.5,2.6,3.5
						c1.7,0,2.6-1.3,2.6-3.5c0-2.2-1-3.5-2.6-3.5C939.9,129.2,939,130.6,939,132.7z"/>
				</g>
				<g>
					<path class="st3" d="M887.6,145.4v8.4h-1v-8.4H887.6z"/>
					<path class="st3" d="M891.1,145.4l5,6.8v-6.8h0.9v8.4h-1l-5-6.8v6.8h-1v-8.4H891.1z"/>
					<path class="st3" d="M903.3,146.2c-1.9,0-3.4,1.5-3.4,3.3c0,1.8,1.5,3.3,3.4,3.3c0.9,0,1.8-0.4,2.5-1l0.6,0.6
						c-0.8,0.8-2,1.3-3.1,1.3c-2.4,0-4.3-1.9-4.3-4.2c0-2.4,1.9-4.2,4.4-4.2c1.2,0,2.3,0.5,3.1,1.2l-0.6,0.7
						C905.1,146.6,904.2,146.2,903.3,146.2z"/>
					<path class="st3" d="M913.6,153.7l-1.8-2.7c-0.2,0-0.3,0-0.5,0h-2.2v2.7h-1v-8.4h3.2c2.1,0,3.3,1,3.3,2.8
						c0,1.4-0.7,2.3-1.9,2.7l2,2.9H913.6z M911.3,150.2c1.5,0,2.4-0.7,2.4-2c0-1.3-0.9-2-2.4-2h-2.2v4H911.3z"/>
					<path class="st3" d="M922.5,145.4v0.9h-4.7v2.8h4.2v0.9h-4.2v2.9h4.9v0.9h-5.9v-8.4H922.5z"/>
					<path class="st3" d="M929.9,151.6h-4.6l-0.9,2.1h-1l3.8-8.4h1l3.8,8.4h-1L929.9,151.6z M929.5,150.7l-1.9-4.3l-1.9,4.3H929.5z"
						/>
					<path class="st3" d="M935.5,146.3c-1.1,0-1.8,0.4-1.8,1.2c0,2.2,4.7,1,4.7,4.1c0,1.4-1.2,2.3-3,2.3c-1.2,0-2.4-0.5-3.2-1.3
						l0.4-0.8c0.8,0.7,1.8,1.2,2.8,1.2c1.2,0,2-0.5,2-1.3c0-2.2-4.7-1.1-4.7-4.1c0-1.3,1.2-2.2,2.9-2.2c1,0,2,0.3,2.7,0.8l-0.4,0.9
						C937.1,146.5,936.2,146.3,935.5,146.3z"/>
					<path class="st3" d="M946.1,145.4v0.9h-4.7v2.8h4.2v0.9h-4.2v2.9h4.9v0.9h-5.9v-8.4H946.1z"/>
				</g>
			</g>
		</g>
		<g>
			<path class="st3" d="M818.5,18.1l3.8,13.7l3.8-13.7h4l3.8,13.7l3.8-13.7h4.2l-6,18.2h-4.2l-3.7-13l-3.7,13h-4.2l-6-18.2H818.5z"
				/>
			<path class="st3" d="M855,30.5h-10c0.5,1.8,1.8,2.8,3.6,2.8c1.3,0,2.6-0.5,3.5-1.5l2.1,2.1c-1.4,1.6-3.5,2.5-6,2.5
				c-4.5,0-7.3-2.9-7.3-7.1c0-4.3,2.9-7.2,7.2-7.2C853.1,22.2,855.4,25.4,855,30.5z M851.3,28.2c-0.1-1.8-1.2-3-3.1-3
				c-1.8,0-3,1.2-3.3,3H851.3z"/>
			<path class="st3" d="M870.5,30.5h-10c0.5,1.8,1.8,2.8,3.6,2.8c1.3,0,2.6-0.5,3.5-1.5l2.1,2.1c-1.4,1.6-3.5,2.5-6,2.5
				c-4.5,0-7.3-2.9-7.3-7.1c0-4.3,2.9-7.2,7.2-7.2C868.6,22.2,870.9,25.4,870.5,30.5z M866.8,28.2c-0.1-1.8-1.2-3-3.1-3
				c-1.8,0-3,1.2-3.3,3H866.8z"/>
			<path class="st3" d="M879.1,30.6l-1.8,1.9v3.8h-4V17h4v10.6l5.1-5.3h4.5l-5.1,5.4l5.4,8.6h-4.7L879.1,30.6z"/>
			<path class="st3" d="M893.4,17v19.3h-4V17H893.4z"/>
			<path class="st3" d="M899.1,41.5c-1.5,0-2.7-0.4-3.8-1.4l1.7-2.9c0.6,0.5,1.2,0.8,1.8,0.8c0.8,0,1.5-0.4,1.8-1.2L901,36
				l-5.8-13.7h4.1l3.7,9.6l3.3-9.6h4l-6.1,15.5C903.2,40.3,901.5,41.5,899.1,41.5z"/>
			<path class="st3" d="M932,32.8h-8.4l-1.4,3.5h-4.2l7.9-18.2h4.2l7.8,18.2h-4.4L932,32.8z M930.7,29.5l-2.9-7.1l-2.9,7.1H930.7z"
				/>
			<path class="st3" d="M945.1,25.6c-2,0-3.3,1.5-3.3,3.7c0,2.3,1.4,3.8,3.3,3.8c1.4,0,2.5-0.5,3.2-1.6l2.8,1.9
				c-1.2,2-3.4,3.1-6.2,3.1c-4.2,0-7.1-2.9-7.1-7.1c0-4.3,2.9-7.2,7.2-7.2c2.7,0,4.8,1.1,6.1,2.9l-2.7,1.9
				C947.6,26.1,946.5,25.6,945.1,25.6z"/>
			<path class="st3" d="M962.3,35.5c-1,0.6-2.3,1-3.6,1c-2.5,0-4.4-1.4-4.4-4.3v-6.5h-2v-2.8h2v-3.8h4v3.8h3.8v2.8h-3.8v5.8
				c0,1.2,0.5,1.6,1.4,1.6c0.5,0,1.1-0.2,1.9-0.5L962.3,35.5z"/>
			<path class="st3" d="M968.7,22.3v14h-4v-14H968.7z M968.7,18.3c0,1.1-0.8,2-2,2c-1.1,0-2-0.9-2-2c0-1.2,0.8-2,2-2
				C967.9,16.3,968.7,17.2,968.7,18.3z"/>
			<path class="st3" d="M974.7,22.3l3.3,10.2l3.3-10.2h4l-5.3,14h-4.1l-5.3-14L974.7,22.3z"/>
			<path class="st3" d="M991,22.3v14h-4v-14H991z M991,18.3c0,1.1-0.8,2-2,2c-1.1,0-1.9-0.9-1.9-2c0-1.2,0.8-2,1.9-2
				C990.2,16.3,991,17.2,991,18.3z"/>
			<path class="st3" d="M1003.5,35.5c-1,0.6-2.3,1-3.6,1c-2.5,0-4.4-1.4-4.4-4.3v-6.5h-2v-2.8h2v-3.8h4v3.8h3.8v2.8h-3.8v5.8
				c0,1.2,0.5,1.6,1.4,1.6c0.5,0,1.1-0.2,1.9-0.5L1003.5,35.5z"/>
			<path class="st3" d="M1007.6,41.5c-1.5,0-2.7-0.4-3.8-1.4l1.7-2.9c0.6,0.5,1.2,0.8,1.8,0.8c0.8,0,1.5-0.4,1.8-1.2l0.4-0.8
				l-5.8-13.7h4.1l3.7,9.6l3.3-9.6h4l-6.1,15.5C1011.7,40.3,1010,41.5,1007.6,41.5z"/>
		</g>
	</g>
	<g>
		<rect x="1060.6" y="1.4" class="st0" width="420.5" height="257.2"/>
		<g>
			<path class="st4" d="M1439,16.2h-136.3c-1.1,0-2,0.9-2,2v47.3c0,1.1,0.9,2,2,2h120.8l17.5,9.9V65.6v-6.1V18.2
				C1441,17.1,1440.1,16.2,1439,16.2z"/>
			<g>
				<path class="st3" d="M1329.6,32.8c-0.7,0-1.1,0.3-1.1,0.7c0,1.5,3.8,0.7,3.8,3.2c0,1.2-1.1,2-2.6,2c-1.1,0-2.1-0.4-2.9-1.1
					l0.5-1c0.7,0.7,1.6,1,2.4,1c0.8,0,1.3-0.3,1.3-0.8c0-1.6-3.8-0.7-3.8-3.2c0-1.2,1-1.9,2.5-1.9c0.9,0,1.8,0.3,2.4,0.7l-0.5,1
					C1330.9,33,1330.1,32.8,1329.6,32.8z"/>
				<path class="st3" d="M1336.7,38.7v-0.6c-0.4,0.5-1,0.7-1.8,0.7c-1.1,0-1.9-0.7-1.9-1.6c0-1,0.7-1.6,2-1.6h1.6v-0.2
					c0-0.7-0.4-1.1-1.3-1.1c-0.5,0-1,0.2-1.6,0.5l-0.5-0.8c0.7-0.4,1.3-0.7,2.3-0.7c1.4,0,2.1,0.7,2.1,1.9l0,3.5H1336.7z
					 M1336.7,36.8v-0.5h-1.4c-0.8,0-1.1,0.2-1.1,0.7c0,0.5,0.4,0.8,1,0.8C1336,37.8,1336.6,37.4,1336.7,36.8z"/>
				<path class="st3" d="M1342.4,38.4c-0.4,0.2-0.9,0.4-1.3,0.4c-0.8,0-1.5-0.5-1.5-1.5v-2.8h-0.8v-0.9h0.8v-1.5h1.1v1.5h1.6v0.9
					h-1.6V37c0,0.5,0.2,0.7,0.6,0.7c0.2,0,0.5-0.1,0.8-0.2L1342.4,38.4z"/>
				<path class="st3" d="M1348.3,33.4v5.3h-1.1v-1c-0.4,0.7-1,1.1-1.9,1.1c-1.2,0-1.9-0.8-1.9-2v-3.3h1.1v3c0,0.8,0.5,1.3,1.2,1.3
					c0.9,0,1.5-0.7,1.5-1.7v-2.6H1348.3z"/>
				<path class="st3" d="M1353,33.3v1.1c-1.1-0.1-1.7,0.6-1.8,1.5v2.8h-1.1v-5.3h1.1v1.1C1351.5,33.7,1352.1,33.3,1353,33.3z"/>
				<path class="st3" d="M1359,31.3v7.4h-1.1v-0.9c-0.4,0.6-1,1-1.9,1c-1.5,0-2.5-1.1-2.5-2.7c0-1.6,1-2.7,2.5-2.7
					c0.9,0,1.5,0.4,1.9,1v-3H1359z M1357.8,36.1c0-1-0.7-1.7-1.6-1.7c-1,0-1.6,0.7-1.6,1.7c0,1,0.7,1.7,1.6,1.7
					C1357.2,37.8,1357.8,37.1,1357.8,36.1z"/>
				<path class="st3" d="M1363.9,38.7v-0.6c-0.4,0.5-1,0.7-1.8,0.7c-1.1,0-1.9-0.7-1.9-1.6c0-1,0.7-1.6,2-1.6h1.6v-0.2
					c0-0.7-0.4-1.1-1.3-1.1c-0.5,0-1,0.2-1.6,0.5l-0.5-0.8c0.7-0.4,1.3-0.7,2.3-0.7c1.4,0,2.1,0.7,2.1,1.9l0,3.5H1363.9z
					 M1363.9,36.8v-0.5h-1.4c-0.8,0-1.1,0.2-1.1,0.7c0,0.5,0.4,0.8,1,0.8C1363.2,37.8,1363.9,37.4,1363.9,36.8z"/>
				<path class="st3" d="M1366.8,40.7c-0.5,0-0.9-0.1-1.2-0.4l0.5-0.9c0.2,0.2,0.5,0.3,0.7,0.3c0.3,0,0.6-0.2,0.8-0.6l0.2-0.4
					l-2.2-5.2h1.2l1.6,4l1.5-4h1.1l-2.4,6C1368.2,40.3,1367.6,40.7,1366.8,40.7z"/>
				<path class="st3" d="M1372.6,38.1c0,0.2-0.1,0.4-0.2,0.5l-0.6,0.9h-0.6l0.4-0.9c-0.2-0.1-0.3-0.3-0.3-0.5c0-0.4,0.3-0.6,0.6-0.6
					C1372.3,37.5,1372.6,37.7,1372.6,38.1z"/>
				<path class="st3" d="M1381.5,37.1h-3.5l-0.7,1.6h-1.2l3.1-7h1.2l3.1,7h-1.3L1381.5,37.1z M1381,36.1l-1.3-3.1l-1.3,3.1H1381z"/>
				<path class="st3" d="M1389.9,36.1c0,1.6-1,2.7-2.5,2.7c-0.8,0-1.5-0.3-1.9-1v2.9h-1.1v-7.3h1.1v0.9c0.4-0.6,1-1,1.9-1
					C1388.8,33.3,1389.9,34.4,1389.9,36.1z M1388.7,36c0-1-0.7-1.7-1.6-1.7s-1.6,0.7-1.6,1.7c0,1,0.7,1.7,1.6,1.7
					S1388.7,37,1388.7,36z"/>
				<path class="st3" d="M1394.1,33.3v1.1c-1.1-0.1-1.7,0.6-1.8,1.5v2.8h-1.1v-5.3h1.1v1.1C1392.6,33.7,1393.2,33.3,1394.1,33.3z"/>
				<path class="st3" d="M1396.2,31.9c0,0.4-0.3,0.7-0.7,0.7s-0.7-0.3-0.7-0.7c0-0.4,0.3-0.7,0.7-0.7S1396.2,31.5,1396.2,31.9z
					 M1396.1,33.4v5.3h-1.1v-5.3H1396.1z"/>
				<path class="st3" d="M1399,31.3v7.4h-1.1v-7.4H1399z"/>
				<path class="st3" d="M1407,33.6c0-0.6-0.5-0.9-1.2-0.9c-0.6,0-1.4,0.3-2,0.9l-0.5-0.9c0.8-0.6,1.7-1,2.6-1
					c1.4,0,2.3,0.7,2.3,1.8c0,0.7-0.5,1.5-1.3,2.3l-1.9,1.9h3.6v1.1h-5.1v-0.9l2.7-2.8C1406.7,34.5,1407,34,1407,33.6z"/>
				<path class="st3" d="M1413.2,33.6c0-0.6-0.5-0.9-1.2-0.9c-0.6,0-1.4,0.3-2,0.9l-0.5-0.9c0.8-0.6,1.7-1,2.6-1
					c1.4,0,2.3,0.7,2.3,1.8c0,0.7-0.5,1.5-1.3,2.3l-1.9,1.9h3.6v1.1h-5.1v-0.9l2.7-2.8C1412.8,34.5,1413.2,34,1413.2,33.6z"/>
				<path class="st5" d="M1315.3,45.6c0-0.6-0.5-0.9-1.2-0.9c-0.6,0-1.4,0.3-2,0.9l-0.5-0.9c0.8-0.6,1.7-1,2.6-1
					c1.4,0,2.3,0.7,2.3,1.8c0,0.7-0.5,1.5-1.3,2.3l-1.9,1.9h3.6v1.1h-5.1v-0.9l2.7-2.8C1315,46.5,1315.3,46,1315.3,45.6z"/>
				<path class="st3" d="M1323.5,46.4c-0.9,0-1.6,0.7-1.6,1.7c0,1,0.7,1.7,1.6,1.7c0.7,0,1.2-0.2,1.6-0.6l0.6,0.6
					c-0.5,0.6-1.2,1-2.3,1c-1.6,0-2.7-1.1-2.7-2.7c0-1.6,1.1-2.7,2.7-2.7c1,0,1.7,0.3,2.2,0.9L1325,47
					C1324.7,46.6,1324.2,46.3,1323.5,46.4z"/>
				<path class="st3" d="M1329.9,45.3v1.1c-1.1-0.1-1.7,0.6-1.8,1.5v2.8h-1.1v-5.3h1.1v1.1C1328.4,45.7,1329.1,45.3,1329.9,45.3z"/>
				<path class="st3" d="M1335.5,48.5h-4c0.2,0.8,0.8,1.3,1.6,1.3c0.6,0,1.1-0.2,1.5-0.6l0.6,0.6c-0.5,0.6-1.3,0.9-2.2,0.9
					c-1.6,0-2.7-1.1-2.7-2.7c0-1.6,1.1-2.7,2.7-2.7C1334.9,45.3,1335.7,46.6,1335.5,48.5z M1334.5,47.6c0-0.9-0.6-1.4-1.5-1.4
					c-0.8,0-1.4,0.5-1.6,1.4H1334.5z"/>
				<path class="st3" d="M1339.9,50.7v-0.6c-0.4,0.5-1,0.7-1.8,0.7c-1.1,0-1.9-0.7-1.9-1.6c0-1,0.7-1.6,2-1.6h1.6v-0.2
					c0-0.7-0.4-1.1-1.3-1.1c-0.5,0-1,0.2-1.6,0.5l-0.5-0.8c0.7-0.4,1.3-0.7,2.3-0.7c1.4,0,2.1,0.7,2.1,1.9l0,3.5H1339.9z
					 M1339.9,48.8v-0.5h-1.4c-0.8,0-1.1,0.2-1.1,0.7c0,0.5,0.4,0.8,1,0.8C1339.2,49.8,1339.9,49.4,1339.9,48.8z"/>
				<path class="st3" d="M1345.6,50.4c-0.4,0.2-0.9,0.4-1.3,0.4c-0.8,0-1.5-0.5-1.5-1.5v-2.8h-0.8v-0.9h0.8v-1.5h1.1v1.5h1.6v0.9
					h-1.6V49c0,0.5,0.2,0.7,0.6,0.7c0.2,0,0.5-0.1,0.8-0.2L1345.6,50.4z"/>
				<path class="st3" d="M1351.3,48.5h-4c0.2,0.8,0.8,1.3,1.6,1.3c0.6,0,1.1-0.2,1.5-0.6l0.6,0.6c-0.5,0.6-1.3,0.9-2.2,0.9
					c-1.6,0-2.7-1.1-2.7-2.7c0-1.6,1.1-2.7,2.7-2.7C1350.7,45.3,1351.4,46.6,1351.3,48.5z M1350.3,47.6c0-0.9-0.6-1.4-1.5-1.4
					c-0.8,0-1.4,0.5-1.6,1.4H1350.3z"/>
				<path class="st3" d="M1354,46.3c-0.4,0-0.8,0.1-0.8,0.5c0,1,2.8,0.4,2.8,2.4c0,1.1-1,1.6-2,1.6c-0.8,0-1.6-0.3-2.1-0.7l0.4-0.8
					c0.5,0.4,1.2,0.7,1.8,0.7c0.5,0,0.9-0.2,0.9-0.6c0-1.1-2.8-0.5-2.8-2.4c0-1.1,0.9-1.5,2-1.5c0.7,0,1.4,0.2,1.9,0.5l-0.4,0.8
					C1355.1,46.4,1354.5,46.3,1354,46.3z"/>
				<path class="st3" d="M1363.3,42.5l-3.2,9.3h-1l3.2-9.3H1363.3z"/>
				<path class="st5" d="M1369.4,43.7v7h-1.2v-5.9h-1.5v-1.1H1369.4z"/>
				<path class="st5" d="M1377.5,47.2c0,2.3-0.9,3.5-2.6,3.5c-1.7,0-2.6-1.3-2.6-3.5c0-2.3,0.9-3.5,2.6-3.5
					C1376.6,43.7,1377.5,44.9,1377.5,47.2z M1373.4,47.2c0,1.8,0.5,2.6,1.5,2.6c1,0,1.5-0.8,1.5-2.6c0-1.8-0.5-2.6-1.5-2.6
					C1373.9,44.6,1373.4,45.4,1373.4,47.2z"/>
				<path class="st3" d="M1384.8,45.3v1.1c-1.1-0.1-1.7,0.6-1.8,1.5v2.8h-1.1v-5.3h1.1v1.1C1383.4,45.7,1384,45.3,1384.8,45.3z"/>
				<path class="st3" d="M1390.5,48.5h-4c0.2,0.8,0.8,1.3,1.6,1.3c0.6,0,1.1-0.2,1.5-0.6l0.6,0.6c-0.5,0.6-1.3,0.9-2.2,0.9
					c-1.6,0-2.7-1.1-2.7-2.7c0-1.6,1.1-2.7,2.7-2.7C1389.8,45.3,1390.6,46.6,1390.5,48.5z M1389.5,47.6c0-0.9-0.6-1.4-1.5-1.4
					c-0.8,0-1.4,0.5-1.6,1.4H1389.5z"/>
				<path class="st3" d="M1393.2,46.3c-0.4,0-0.8,0.1-0.8,0.5c0,1,2.8,0.4,2.8,2.4c0,1.1-1,1.6-2,1.6c-0.8,0-1.6-0.3-2.1-0.7
					l0.4-0.8c0.5,0.4,1.2,0.7,1.8,0.7c0.5,0,0.9-0.2,0.9-0.6c0-1.1-2.8-0.5-2.8-2.4c0-1.1,0.9-1.5,2-1.5c0.7,0,1.4,0.2,1.9,0.5
					l-0.4,0.8C1394.2,46.4,1393.6,46.3,1393.2,46.3z"/>
				<path class="st3" d="M1402,48.1c0,1.6-1,2.7-2.5,2.7c-0.8,0-1.5-0.3-1.9-1v2.9h-1.1v-7.3h1.1v0.9c0.4-0.6,1-1,1.9-1
					C1400.9,45.3,1402,46.4,1402,48.1z M1400.8,48c0-1-0.7-1.7-1.6-1.7s-1.6,0.7-1.6,1.7c0,1,0.7,1.7,1.6,1.7S1400.8,49,1400.8,48z"
					/>
				<path class="st3" d="M1408.2,48c0,1.6-1.1,2.7-2.8,2.7c-1.6,0-2.8-1.1-2.8-2.7c0-1.6,1.1-2.7,2.8-2.7
					C1407.1,45.3,1408.2,46.4,1408.2,48z M1403.8,48.1c0,1,0.7,1.7,1.6,1.7c1,0,1.6-0.7,1.6-1.7c0-1-0.7-1.7-1.6-1.7
					C1404.5,46.3,1403.8,47,1403.8,48.1z"/>
				<path class="st3" d="M1414.5,47.4v3.3h-1.1v-3c0-0.8-0.5-1.3-1.3-1.3c-0.9,0-1.4,0.6-1.5,1.4v2.8h-1.1v-5.3h1.1v1
					c0.4-0.7,1.1-1.1,2-1.1C1413.8,45.3,1414.5,46.1,1414.5,47.4z"/>
				<path class="st3" d="M1417.5,46.3c-0.4,0-0.8,0.1-0.8,0.5c0,1,2.8,0.4,2.8,2.4c0,1.1-1,1.6-2,1.6c-0.8,0-1.6-0.3-2.1-0.7
					l0.4-0.8c0.5,0.4,1.2,0.7,1.8,0.7c0.5,0,0.9-0.2,0.9-0.6c0-1.1-2.8-0.5-2.8-2.4c0-1.1,0.9-1.5,2-1.5c0.7,0,1.4,0.2,1.9,0.5
					l-0.4,0.8C1418.6,46.4,1418,46.3,1417.5,46.3z"/>
				<path class="st3" d="M1425.4,48.5h-4c0.2,0.8,0.8,1.3,1.6,1.3c0.6,0,1.1-0.2,1.5-0.6l0.6,0.6c-0.5,0.6-1.3,0.9-2.2,0.9
					c-1.6,0-2.7-1.1-2.7-2.7c0-1.6,1.1-2.7,2.7-2.7C1424.8,45.3,1425.6,46.6,1425.4,48.5z M1424.4,47.6c0-0.9-0.6-1.4-1.5-1.4
					c-0.8,0-1.4,0.5-1.6,1.4H1424.4z"/>
				<path class="st3" d="M1428.1,46.3c-0.4,0-0.8,0.1-0.8,0.5c0,1,2.8,0.4,2.8,2.4c0,1.1-1,1.6-2,1.6c-0.8,0-1.6-0.3-2.1-0.7
					l0.4-0.8c0.5,0.4,1.2,0.7,1.8,0.7c0.5,0,0.9-0.2,0.9-0.6c0-1.1-2.8-0.5-2.8-2.4c0-1.1,0.9-1.5,2-1.5c0.7,0,1.4,0.2,1.9,0.5
					l-0.4,0.8C1429.2,46.4,1428.6,46.3,1428.1,46.3z"/>
			</g>
		</g>
		<g>
			<g>
				<g>
					<g>
						<path class="st1" d="M1319,215.6L1319,215.6c-3.1,0-5.7-2.5-5.7-5.7V98c0-3.1,2.5-5.7,5.7-5.7l0,0c3.1,0,5.7,2.5,5.7,5.7v112
							C1324.6,213.1,1322.1,215.6,1319,215.6z"/>
						<path class="st2" d="M1319,215.6L1319,215.6c-3.1,0-5.7-2.5-5.7-5.7v-69.8c0-3.1,2.5-5.7,5.7-5.7l0,0c3.1,0,5.7,2.5,5.7,5.7
							v69.8C1324.6,213.1,1322.1,215.6,1319,215.6z"/>
					</g>
					<g>
						<path class="st1" d="M1295.9,215.6L1295.9,215.6c-3.1,0-5.7-2.5-5.7-5.7V98c0-3.1,2.5-5.7,5.7-5.7l0,0c3.1,0,5.7,2.5,5.7,5.7
							v112C1301.5,213.1,1299,215.6,1295.9,215.6z"/>
						<path class="st2" d="M1295.9,215.6L1295.9,215.6c-3.1,0-5.7-2.5-5.7-5.7v-47.3c0-3.1,2.5-5.7,5.7-5.7l0,0
							c3.1,0,5.7,2.5,5.7,5.7v47.3C1301.5,213.1,1299,215.6,1295.9,215.6z"/>
					</g>
					<g>
						<path class="st1" d="M1272.8,215.6L1272.8,215.6c-3.1,0-5.7-2.5-5.7-5.7V98c0-3.1,2.5-5.7,5.7-5.7l0,0c3.1,0,5.7,2.5,5.7,5.7
							v112C1278.4,213.1,1275.9,215.6,1272.8,215.6z"/>
						<path class="st2" d="M1272.8,215.6L1272.8,215.6c-3.1,0-5.7-2.5-5.7-5.7v-30.9c0-3.1,2.5-5.7,5.7-5.7l0,0
							c3.1,0,5.7,2.5,5.7,5.7v30.9C1278.4,213.1,1275.9,215.6,1272.8,215.6z"/>
					</g>
					<g>
						<path class="st1" d="M1249.6,215.6L1249.6,215.6c-3.1,0-5.7-2.5-5.7-5.7V98c0-3.1,2.5-5.7,5.7-5.7l0,0c3.1,0,5.7,2.5,5.7,5.7
							v112C1255.3,213.1,1252.8,215.6,1249.6,215.6z"/>
						<path class="st2" d="M1249.6,215.6L1249.6,215.6c-3.1,0-5.7-2.5-5.7-5.7v-68.2c0-3.1,2.5-5.7,5.7-5.7l0,0
							c3.1,0,5.7,2.5,5.7,5.7v68.2C1255.3,213.1,1252.8,215.6,1249.6,215.6z"/>
					</g>
					<g>
						<path class="st1" d="M1226.5,215.6L1226.5,215.6c-3.1,0-5.7-2.5-5.7-5.7V98c0-3.1,2.5-5.7,5.7-5.7l0,0c3.1,0,5.7,2.5,5.7,5.7
							v112C1232.2,213.1,1229.6,215.6,1226.5,215.6z"/>
						<path class="st2" d="M1226.5,215.6L1226.5,215.6c-3.1,0-5.7-2.5-5.7-5.7v-39.9c0-3.1,2.5-5.7,5.7-5.7l0,0
							c3.1,0,5.7,2.5,5.7,5.7v39.9C1232.2,213.1,1229.6,215.6,1226.5,215.6z"/>
					</g>
					<g>
						<path class="st1" d="M1203.4,215.6L1203.4,215.6c-3.1,0-5.7-2.5-5.7-5.7V98c0-3.1,2.5-5.7,5.7-5.7l0,0c3.1,0,5.7,2.5,5.7,5.7
							v112C1209.1,213.1,1206.5,215.6,1203.4,215.6z"/>
						<path class="st2" d="M1203.4,215.6L1203.4,215.6c-3.1,0-5.7-2.5-5.7-5.7v-82c0-3.1,2.5-5.7,5.7-5.7l0,0c3.1,0,5.7,2.5,5.7,5.7
							v82C1209.1,213.1,1206.5,215.6,1203.4,215.6z"/>
					</g>
					<g>
						<path class="st1" d="M1180.3,215.6L1180.3,215.6c-3.1,0-5.7-2.5-5.7-5.7V98c0-3.1,2.5-5.7,5.7-5.7l0,0c3.1,0,5.7,2.5,5.7,5.7
							v112C1186,213.1,1183.4,215.6,1180.3,215.6z"/>
						<path class="st2" d="M1180.3,215.6L1180.3,215.6c-3.1,0-5.7-2.5-5.7-5.7v-18.2c0-3.1,2.5-5.7,5.7-5.7l0,0
							c3.1,0,5.7,2.5,5.7,5.7v18.2C1186,213.1,1183.4,215.6,1180.3,215.6z"/>
					</g>
					<g>
						<path class="st1" d="M1157.2,215.6L1157.2,215.6c-3.1,0-5.7-2.5-5.7-5.7V98c0-3.1,2.5-5.7,5.7-5.7l0,0c3.1,0,5.7,2.5,5.7,5.7
							v112C1162.8,213.1,1160.3,215.6,1157.2,215.6z"/>
						<path class="st2" d="M1157.2,215.6L1157.2,215.6c-3.1,0-5.7-2.5-5.7-5.7V149c0-3.1,2.5-5.7,5.7-5.7l0,0c3.1,0,5.7,2.5,5.7,5.7
							v60.9C1162.8,213.1,1160.3,215.6,1157.2,215.6z"/>
					</g>
					<g>
						<path class="st1" d="M1134.1,215.6L1134.1,215.6c-3.1,0-5.7-2.5-5.7-5.7V98c0-3.1,2.5-5.7,5.7-5.7h0c3.1,0,5.7,2.5,5.7,5.7
							v112C1139.7,213.1,1137.2,215.6,1134.1,215.6z"/>
						<path class="st2" d="M1134.1,215.6L1134.1,215.6c-3.1,0-5.7-2.5-5.7-5.7v-40.4c0-3.1,2.5-5.7,5.7-5.7h0c3.1,0,5.7,2.5,5.7,5.7
							v40.4C1139.7,213.1,1137.2,215.6,1134.1,215.6z"/>
					</g>
					<g>
						<path class="st1" d="M1342.1,215.6L1342.1,215.6c-3.1,0-5.7-2.5-5.7-5.7V98c0-3.1,2.5-5.7,5.7-5.7l0,0c3.1,0,5.7,2.5,5.7,5.7
							v112C1347.8,213.1,1345.2,215.6,1342.1,215.6z"/>
						<path class="st2" d="M1342.1,215.6L1342.1,215.6c-3.1,0-5.7-2.5-5.7-5.7v-91c0-3.1,2.5-5.7,5.7-5.7l0,0c3.1,0,5.7,2.5,5.7,5.7
							v91C1347.8,213.1,1345.2,215.6,1342.1,215.6z"/>
					</g>
					<g>
						<path class="st1" d="M1365.2,215.6L1365.2,215.6c-3.1,0-5.7-2.5-5.7-5.7V98c0-3.1,2.5-5.7,5.7-5.7l0,0c3.1,0,5.7,2.5,5.7,5.7
							v112C1370.9,213.1,1368.3,215.6,1365.2,215.6z"/>
						<path class="st2" d="M1365.2,215.6L1365.2,215.6c-3.1,0-5.7-2.5-5.7-5.7v-73.3c0-3.1,2.5-5.7,5.7-5.7l0,0
							c3.1,0,5.7,2.5,5.7,5.7v73.3C1370.9,213.1,1368.3,215.6,1365.2,215.6z"/>
					</g>
					<g>
						<path class="st1" d="M1388.3,215.6L1388.3,215.6c-3.1,0-5.7-2.5-5.7-5.7V98c0-3.1,2.5-5.7,5.7-5.7l0,0c3.1,0,5.7,2.5,5.7,5.7
							v112C1394,213.1,1391.4,215.6,1388.3,215.6z"/>
						<path class="st2" d="M1388.3,215.6L1388.3,215.6c-3.1,0-5.7-2.5-5.7-5.7v-50.3c0-3.1,2.5-5.7,5.7-5.7l0,0
							c3.1,0,5.7,2.5,5.7,5.7v50.3C1394,213.1,1391.4,215.6,1388.3,215.6z"/>
					</g>
					<g>
						<path class="st1" d="M1411.4,215.6L1411.4,215.6c-3.1,0-5.7-2.5-5.7-5.7V98c0-3.1,2.5-5.7,5.7-5.7l0,0c3.1,0,5.7,2.5,5.7,5.7
							v112C1417.1,213.1,1414.6,215.6,1411.4,215.6z"/>
						<path class="st2" d="M1411.4,215.6L1411.4,215.6c-3.1,0-5.7-2.5-5.7-5.7v-80.3c0-3.1,2.5-5.7,5.7-5.7l0,0
							c3.1,0,5.7,2.5,5.7,5.7v80.3C1417.1,213.1,1414.6,215.6,1411.4,215.6z"/>
					</g>
					<g>
						<path class="st1" d="M1434.6,215.6L1434.6,215.6c-3.1,0-5.7-2.5-5.7-5.7V98c0-3.1,2.5-5.7,5.7-5.7l0,0c3.1,0,5.7,2.5,5.7,5.7
							v112C1440.2,213.1,1437.7,215.6,1434.6,215.6z"/>
						<path class="st2" d="M1434.6,215.6L1434.6,215.6c-3.1,0-5.7-2.5-5.7-5.7v-47.3c0-3.1,2.5-5.7,5.7-5.7l0,0
							c3.1,0,5.7,2.5,5.7,5.7v47.3C1440.2,213.1,1437.7,215.6,1434.6,215.6z"/>
					</g>
				</g>
				<g>
					<path class="st3" d="M1134.2,227.3c-0.7,0-1.1,0.2-1.1,0.7c0,1.8,5.7,0.8,5.7,4.7c0,2.2-1.9,3.3-4.3,3.3c-1.8,0-3.7-0.7-5-1.7
						l1.1-2.2c1.1,1,2.8,1.6,3.9,1.6c0.8,0,1.4-0.3,1.4-0.9c0-1.8-5.7-0.7-5.7-4.5c0-2,1.7-3.3,4.3-3.3c1.6,0,3.2,0.5,4.3,1.2
						l-1.1,2.2C1136.5,227.8,1135.1,227.3,1134.2,227.3z"/>
					<path class="st3" d="M1154.3,225l2.9,6.3l2.9-6.3h3.1v10.8h-2.5l0-6.8l-2.5,5.8h-1.8l-2.5-5.8v6.8h-2.5V225H1154.3z"/>
					<path class="st3" d="M1184.9,225v2.3h-3.2v8.5h-2.8v-8.5h-3.2V225H1184.9z"/>
					<path class="st3" d="M1198,225l2.1,7.8l2-7.8h2.8l2,7.8l2-7.8h2.9l-3.6,10.8h-2.9l-1.9-7.3l-2,7.3h-2.9L1195,225H1198z"/>
					<path class="st3" d="M1231.2,225v2.3h-3.2v8.5h-2.8v-8.5h-3.2V225H1231.2z"/>
					<path class="st3" d="M1253.7,225l0,2.3h-5.2v2.4h4.8v2.3h-4.8v3.9h-2.8V225H1253.7z"/>
					<path class="st3" d="M1272.9,227.3c-0.7,0-1.1,0.2-1.1,0.7c0,1.8,5.7,0.8,5.7,4.7c0,2.2-1.9,3.3-4.3,3.3c-1.8,0-3.7-0.7-5-1.7
						l1.1-2.2c1.1,1,2.8,1.6,3.9,1.6c0.8,0,1.4-0.3,1.4-0.9c0-1.8-5.7-0.7-5.7-4.5c0-2,1.7-3.3,4.3-3.3c1.6,0,3.2,0.5,4.3,1.2
						l-1.1,2.2C1275.2,227.8,1273.8,227.3,1272.9,227.3z"/>
					<path class="st3" d="M1296,227.3c-0.7,0-1.1,0.2-1.1,0.7c0,1.8,5.7,0.8,5.7,4.7c0,2.2-1.9,3.3-4.3,3.3c-1.8,0-3.7-0.7-5-1.7
						l1.1-2.2c1.1,1,2.8,1.6,3.9,1.6c0.8,0,1.4-0.3,1.4-0.9c0-1.8-5.7-0.7-5.7-4.5c0-2,1.7-3.3,4.3-3.3c1.6,0,3.2,0.5,4.3,1.2
						l-1.1,2.2C1298.3,227.8,1296.9,227.3,1296,227.3z"/>
					<path class="st3" d="M1316.1,225l2.9,6.3l2.9-6.3h3.1v10.8h-2.5l0-6.8l-2.5,5.8h-1.8l-2.5-5.8v6.8h-2.5V225H1316.1z"/>
					<path class="st3" d="M1346.7,225v2.3h-3.2v8.5h-2.8v-8.5h-3.2V225H1346.7z"/>
					<path class="st3" d="M1359.8,225l2.1,7.8l2-7.8h2.8l2,7.8l2-7.8h2.9l-3.6,10.8h-2.9l-1.9-7.3l-2,7.3h-2.9l-3.5-10.8H1359.8z"/>
					<path class="st3" d="M1393,225v2.3h-3.2v8.5h-2.8v-8.5h-3.2V225H1393z"/>
					<path class="st3" d="M1415.5,225l0,2.3h-5.2v2.4h4.8v2.3h-4.8v3.9h-2.8V225H1415.5z"/>
					<path class="st3" d="M1434.7,227.3c-0.7,0-1.1,0.2-1.1,0.7c0,1.8,5.7,0.8,5.7,4.7c0,2.2-1.9,3.3-4.3,3.3c-1.8,0-3.7-0.7-5-1.7
						l1.1-2.2c1.1,1,2.8,1.6,3.9,1.6c0.8,0,1.4-0.3,1.4-0.9c0-1.8-5.7-0.7-5.7-4.5c0-2,1.7-3.3,4.3-3.3c1.6,0,3.2,0.5,4.3,1.2
						l-1.1,2.2C1437,227.8,1435.6,227.3,1434.7,227.3z"/>
				</g>
			</g>
			<g>
				<g>
					<path class="st3" d="M1106.4,212.2c0,2.5-1,3.8-2.9,3.8c-1.9,0-2.9-1.4-2.9-3.8c0-2.5,1-3.8,2.9-3.8
						C1105.4,208.3,1106.4,209.7,1106.4,212.2z M1102.3,212.2c0,1.8,0.4,2.6,1.3,2.6c0.9,0,1.3-0.8,1.3-2.6c0-1.8-0.4-2.6-1.3-2.6
						C1102.7,209.6,1102.3,210.4,1102.3,212.2z"/>
					<path class="st3" d="M1113.1,212.2c0,2.5-1,3.8-2.9,3.8c-1.9,0-2.9-1.4-2.9-3.8c0-2.5,1-3.8,2.9-3.8
						C1112,208.3,1113.1,209.7,1113.1,212.2z M1108.9,212.2c0,1.8,0.4,2.6,1.3,2.6c0.9,0,1.3-0.8,1.3-2.6c0-1.8-0.4-2.6-1.3-2.6
						C1109.3,209.6,1108.9,210.4,1108.9,212.2z"/>
				</g>
				<g>
					<path class="st3" d="M1106.5,188.8c0,2.5-1,3.8-2.9,3.8c-1.9,0-2.9-1.4-2.9-3.8c0-2.5,1-3.8,2.9-3.8
						C1105.5,185,1106.5,186.4,1106.5,188.8z M1102.3,188.8c0,1.8,0.4,2.6,1.3,2.6c0.9,0,1.3-0.8,1.3-2.6c0-1.8-0.4-2.6-1.3-2.6
						C1102.7,186.3,1102.3,187.1,1102.3,188.8z"/>
					<path class="st3" d="M1110.2,187.8c1.7,0,2.9,0.9,2.9,2.3c0,1.6-1.2,2.6-3,2.6c-1,0-2.1-0.4-2.9-0.9l0.7-1.3
						c0.6,0.6,1.3,0.9,2,0.9c0.9,0,1.4-0.4,1.4-1.1c0-0.6-0.5-1-1.4-1c-0.4,0-1.6,0-2.1,0.1v-4.2h5v1.4h-3.4v1.3H1110.2z"/>
				</g>
				<g>
					<path class="st3" d="M1104.5,161.8v7.5h-1.7v-6.1h-1.5v-1.4H1104.5z"/>
					<path class="st3" d="M1113.1,165.6c0,2.5-1,3.8-2.9,3.8c-1.9,0-2.9-1.4-2.9-3.8c0-2.5,1-3.8,2.9-3.8
						C1112,161.8,1113.1,163.2,1113.1,165.6z M1108.9,165.6c0,1.8,0.4,2.6,1.3,2.6c0.9,0,1.3-0.8,1.3-2.6c0-1.8-0.4-2.6-1.3-2.6
						C1109.3,163,1108.9,163.8,1108.9,165.6z"/>
				</g>
				<g>
					<path class="st3" d="M1104.5,138.6v7.5h-1.7V140h-1.5v-1.4H1104.5z"/>
					<path class="st3" d="M1110.2,141.3c1.7,0,2.9,0.9,2.9,2.3c0,1.6-1.2,2.6-3,2.6c-1,0-2.1-0.4-2.9-0.9l0.7-1.3
						c0.6,0.6,1.3,0.9,2,0.9c0.9,0,1.4-0.4,1.4-1.1c0-0.6-0.5-1-1.4-1c-0.4,0-1.6,0-2.1,0.1v-4.2h5v1.4h-3.4v1.3H1110.2z"/>
				</g>
				<g>
					<path class="st3" d="M1104.3,117.5c0-0.5-0.4-0.8-1-0.8c-0.6,0-1.4,0.4-2.1,0.9l-0.7-1.3c0.9-0.7,1.9-1.1,3-1.1
						c1.5,0,2.6,0.8,2.6,1.9c0,0.8-0.6,1.6-1.4,2.5l-1.8,1.7h3.5v1.4h-5.7v-1.2l2.8-2.9C1104,118.3,1104.3,117.8,1104.3,117.5z"/>
					<path class="st3" d="M1113.1,119.1c0,2.5-1,3.8-2.9,3.8c-1.9,0-2.9-1.4-2.9-3.8c0-2.5,1-3.8,2.9-3.8
						C1112,115.3,1113.1,116.6,1113.1,119.1z M1108.9,119.1c0,1.8,0.4,2.6,1.3,2.6c0.9,0,1.3-0.8,1.3-2.6c0-1.8-0.4-2.6-1.3-2.6
						C1109.3,116.5,1108.9,117.3,1108.9,119.1z"/>
				</g>
				<g>
					<path class="st3" d="M1104.4,94.1c0-0.5-0.4-0.8-1-0.8c-0.6,0-1.4,0.4-2.1,0.9l-0.7-1.3c0.9-0.7,1.9-1.1,3-1.1
						c1.5,0,2.6,0.8,2.6,1.9c0,0.8-0.6,1.6-1.4,2.5l-1.8,1.7h3.5v1.4h-5.7v-1.2l2.8-2.9C1104.1,95,1104.4,94.5,1104.4,94.1z"/>
					<path class="st3" d="M1110.2,94.8c1.7,0,2.9,0.9,2.9,2.3c0,1.6-1.2,2.6-3,2.6c-1,0-2.1-0.4-2.9-0.9l0.7-1.3
						c0.6,0.6,1.3,0.9,2,0.9c0.9,0,1.4-0.4,1.4-1.1c0-0.6-0.5-1-1.4-1c-0.4,0-1.6,0-2.1,0.1V92h5v1.4h-3.4v1.3H1110.2z"/>
				</g>
			</g>
		</g>
		<g>
			<path class="st3" d="M1117.8,27.2c0,5.4-4,9.1-9.7,9.1h-7.6V18.1h7.7C1113.9,18.1,1117.8,21.8,1117.8,27.2z M1113.6,27.2
				c0-3.4-2.3-5.7-5.5-5.7h-3.5v11.3h3.7C1111.4,32.8,1113.6,30.6,1113.6,27.2z"/>
			<path class="st3" d="M1128.6,36.3v-1.6c-0.9,1.2-2.4,1.8-4.4,1.8c-3,0-4.8-1.8-4.8-4.4c0-2.6,1.9-4.2,5.3-4.2h3.8v-0.3
				c0-1.5-1-2.3-2.9-2.3c-1.2,0-2.7,0.4-4.2,1.2l-1.2-2.8c2.1-1,3.9-1.6,6.3-1.6c3.7,0,5.9,1.9,5.9,5l0,9.1H1128.6z M1128.5,31.5
				v-1.2h-3.1c-1.5,0-2.3,0.5-2.3,1.6c0,1.1,0.8,1.8,2.2,1.8C1127,33.6,1128.3,32.7,1128.5,31.5z"/>
			<path class="st3" d="M1139.9,22.3v14h-4v-14H1139.9z M1139.9,18.3c0,1.1-0.8,2-2,2c-1.1,0-1.9-0.9-1.9-2c0-1.2,0.8-2,1.9-2
				C1139.1,16.3,1139.9,17.2,1139.9,18.3z"/>
			<path class="st3" d="M1147.9,17v19.3h-4V17H1147.9z"/>
			<path class="st3" d="M1153.6,41.5c-1.5,0-2.7-0.4-3.8-1.4l1.7-2.9c0.6,0.5,1.2,0.8,1.8,0.8c0.8,0,1.5-0.4,1.8-1.2l0.4-0.8
				l-5.8-13.7h4.1l3.7,9.6l3.3-9.6h4l-6.1,15.5C1157.7,40.3,1156,41.5,1153.6,41.5z"/>
			<path class="st3" d="M1186.5,32.8h-8.4l-1.4,3.5h-4.2l7.9-18.2h4.2l7.8,18.2h-4.4L1186.5,32.8z M1185.2,29.5l-2.9-7.1l-2.9,7.1
				H1185.2z"/>
			<path class="st3" d="M1199.6,25.6c-2,0-3.3,1.5-3.3,3.7c0,2.3,1.4,3.8,3.3,3.8c1.4,0,2.5-0.5,3.2-1.6l2.8,1.9
				c-1.2,2-3.4,3.1-6.2,3.1c-4.2,0-7.1-2.9-7.1-7.1c0-4.3,2.9-7.2,7.2-7.2c2.7,0,4.8,1.1,6.1,2.9l-2.7,1.9
				C1202.1,26.1,1201,25.6,1199.6,25.6z"/>
			<path class="st3" d="M1216.8,35.5c-1,0.6-2.3,1-3.6,1c-2.5,0-4.4-1.4-4.4-4.3v-6.5h-2v-2.8h2v-3.8h4v3.8h3.8v2.8h-3.8v5.8
				c0,1.2,0.5,1.6,1.4,1.6c0.5,0,1.1-0.2,1.9-0.5L1216.8,35.5z"/>
			<path class="st3" d="M1223.2,22.3v14h-4v-14H1223.2z M1223.2,18.3c0,1.1-0.8,2-2,2c-1.1,0-2-0.9-2-2c0-1.2,0.8-2,2-2
				C1222.4,16.3,1223.2,17.2,1223.2,18.3z"/>
			<path class="st3" d="M1229.2,22.3l3.3,10.2l3.3-10.2h4l-5.3,14h-4.1l-5.3-14L1229.2,22.3z"/>
			<path class="st3" d="M1245.5,22.3v14h-4v-14H1245.5z M1245.5,18.3c0,1.1-0.8,2-2,2c-1.1,0-1.9-0.9-1.9-2c0-1.2,0.8-2,1.9-2
				C1244.7,16.3,1245.5,17.2,1245.5,18.3z"/>
			<path class="st3" d="M1258,35.5c-1,0.6-2.3,1-3.6,1c-2.5,0-4.4-1.4-4.4-4.3v-6.5h-2v-2.8h2v-3.8h4v3.8h3.8v2.8h-3.8v5.8
				c0,1.2,0.5,1.6,1.4,1.6c0.5,0,1.1-0.2,1.9-0.5L1258,35.5z"/>
			<path class="st3" d="M1262.1,41.5c-1.5,0-2.7-0.4-3.8-1.4l1.7-2.9c0.6,0.5,1.2,0.8,1.8,0.8c0.8,0,1.5-0.4,1.8-1.2l0.4-0.8
				l-5.8-13.7h4.1l3.7,9.6l3.3-9.6h4l-6.1,15.5C1266.3,40.3,1264.5,41.5,1262.1,41.5z"/>
		</g>
	</g>
	<g>
		<rect x="530.7" y="1.4" class="st1" width="240.8" height="257.2"/>
		<polygon class="st0" points="771.6,1.4 530.7,258.6 771.6,258.6 		"/>
		<g>
			<g>
				<path class="st3" d="M581.1,83.7v1.3H574v4.2h6.4v1.3H574V95h7.3v1.3h-8.8V83.7H581.1z"/>
				<path class="st3" d="M587.8,88.1c-2,0-3.4,1.4-3.4,3.5c0,2.1,1.4,3.5,3.4,3.5c1.2,0,2.3-0.4,2.9-1.2l0.8,0.8
					c-0.8,1-2.2,1.6-3.8,1.6c-2.8,0-4.7-2-4.7-4.8c0-2.8,2-4.8,4.7-4.8c1.5,0,2.8,0.5,3.7,1.4l-0.8,1C590,88.5,589,88.1,587.8,88.1z
					"/>
				<path class="st3" d="M602.9,90.5v5.8h-1.4v-5.5c0-1.7-1-2.7-2.7-2.7c-2,0-3.2,1.5-3.2,3.5v4.6h-1.4V83h1.4v6
					c0.6-1.5,1.9-2.2,3.7-2.2C601.6,86.8,602.9,88.2,602.9,90.5z"/>
				<path class="st3" d="M614.7,91.6c0,2.8-2,4.8-4.8,4.8c-2.8,0-4.8-2-4.8-4.8c0-2.8,2-4.8,4.8-4.8
					C612.7,86.8,614.7,88.8,614.7,91.6z M606.5,91.6c0,2.1,1.4,3.6,3.4,3.6c2,0,3.4-1.4,3.4-3.6c0-2.1-1.4-3.5-3.4-3.5
					C607.9,88,606.5,89.5,606.5,91.6z"/>
				<path class="st3" d="M625.4,92.1h-7.7c0.2,1.9,1.6,3.1,3.4,3.1c1.2,0,2.2-0.4,2.9-1.2l0.8,0.8c-0.9,1-2.2,1.6-3.8,1.6
					c-2.8,0-4.7-2-4.7-4.8s1.9-4.8,4.7-4.8C624,86.8,625.5,88.9,625.4,92.1z M624.1,91c-0.1-1.8-1.3-3-3.2-3c-1.8,0-3.1,1.2-3.3,3
					H624.1z"/>
				<path class="st3" d="M630.2,88c-1.1,0-1.9,0.4-1.9,1.3c0,2.1,5.3,1,5.3,4.4c0,1.9-1.7,2.7-3.5,2.7c-1.4,0-2.7-0.5-3.6-1.3l0.5-1
					c0.8,0.8,2,1.2,3.2,1.2c1.1,0,2-0.4,2-1.4c0.1-2.3-5.3-1.1-5.2-4.5c0-1.8,1.6-2.6,3.3-2.6c1.1,0,2.2,0.3,3,0.9l-0.5,1.1
					C632,88.3,631.1,88,630.2,88z"/>
			</g>
			<g>
				<path class="st3" d="M601.2,61c0,4.8-3.9,8.1-10.1,8.1c-3.6,0-7.2-1.2-9.6-3l2.3-4.5c2,1.9,4.4,3,6.9,3c3.2,0,5-1.4,5-3.6
					c0-2.3-1.8-3.5-5-3.5h-4v-3.1l6.4-6.2h-10.3v-4.6H600v3.4l-7.3,6.8l1.4,0.2C598.3,54.6,601.2,57.1,601.2,61z"/>
				<path class="st3" d="M617.7,43.7l-7.5,14.9h5.9V53h5.2l0,5.6h3.4v4.6h-3.5v5.7H616v-5.7h-11.8v-4l8-15.6H617.7z"/>
			</g>
		</g>
		<g>
			<g>
				<path class="st3" d="M657.1,223.6l-2.6-4c-0.3,0-0.5,0-0.8,0h-3.3v4h-1.4v-12.6h4.8c3.2,0,5,1.5,5,4.2c0,2.1-1,3.5-2.8,4.1
					l3,4.3H657.1z M653.6,218.2c2.3,0,3.6-1,3.6-3c0-1.9-1.3-2.9-3.6-2.9h-3.3v5.9H653.6z"/>
				<path class="st3" d="M669.8,219.3h-7.7c0.2,1.9,1.6,3.1,3.4,3.1c1.2,0,2.2-0.4,2.9-1.2l0.8,0.8c-0.9,1-2.2,1.6-3.8,1.6
					c-2.8,0-4.7-2-4.7-4.8s1.9-4.8,4.7-4.8C668.5,214,670,216.1,669.8,219.3z M668.6,218.2c-0.1-1.8-1.3-3-3.2-3
					c-1.8,0-3.1,1.2-3.3,3H668.6z"/>
				<path class="st3" d="M674.7,215.2c-1.1,0-1.9,0.4-1.9,1.3c0,2.1,5.3,1,5.3,4.4c0,1.9-1.7,2.7-3.5,2.7c-1.4,0-2.7-0.5-3.6-1.3
					l0.5-1c0.8,0.8,2,1.2,3.2,1.2s2-0.4,2-1.4c0.1-2.3-5.3-1.1-5.2-4.5c0-1.8,1.6-2.6,3.3-2.6c1.1,0,2.2,0.3,3,0.9l-0.5,1.1
					C676.5,215.5,675.6,215.2,674.7,215.2z"/>
				<path class="st3" d="M690.1,218.8c0,2.8-1.8,4.8-4.5,4.8c-1.7,0-3-0.8-3.7-2.1v5.5h-1.4v-13h1.4v2c0.7-1.3,2-2.1,3.7-2.1
					C688.2,214,690.1,216,690.1,218.8z M688.7,218.8c0-2.1-1.4-3.6-3.4-3.6c-2,0-3.4,1.5-3.4,3.6c0,2.1,1.4,3.6,3.4,3.6
					C687.3,222.4,688.7,220.9,688.7,218.8z"/>
				<path class="st3" d="M701.2,218.8c0,2.8-2,4.8-4.8,4.8c-2.8,0-4.8-2-4.8-4.8c0-2.8,2-4.8,4.8-4.8
					C699.2,214,701.2,216,701.2,218.8z M693,218.8c0,2.1,1.4,3.6,3.4,3.6c2,0,3.4-1.4,3.4-3.6c0-2.1-1.4-3.5-3.4-3.5
					C694.4,215.3,693,216.7,693,218.8z"/>
				<path class="st3" d="M712.4,217.7v5.8H711v-5.5c0-1.7-1-2.7-2.7-2.7c-1.9,0-3,1.3-3.2,3.1v5.1h-1.4v-9.5h1.4v2.1
					c0.7-1.4,1.9-2.1,3.7-2.1C711,214,712.4,215.4,712.4,217.7z"/>
				<path class="st3" d="M717.9,215.2c-1.1,0-1.9,0.4-1.9,1.3c0,2.1,5.3,1,5.3,4.4c0,1.9-1.7,2.7-3.5,2.7c-1.4,0-2.7-0.5-3.6-1.3
					l0.5-1c0.8,0.8,2,1.2,3.2,1.2c1.1,0,2-0.4,2-1.4c0.1-2.3-5.3-1.1-5.2-4.5c0-1.8,1.6-2.6,3.3-2.6c1.1,0,2.2,0.3,3,0.9l-0.5,1.1
					C719.8,215.5,718.8,215.2,717.9,215.2z"/>
				<path class="st3" d="M731.8,219.3h-7.7c0.2,1.9,1.6,3.1,3.4,3.1c1.2,0,2.2-0.4,2.9-1.2l0.8,0.8c-0.9,1-2.2,1.6-3.8,1.6
					c-2.8,0-4.7-2-4.7-4.8s1.9-4.8,4.7-4.8C730.5,214,732,216.1,731.8,219.3z M730.6,218.2c-0.1-1.8-1.3-3-3.2-3
					c-1.8,0-3.1,1.2-3.3,3H730.6z"/>
				<path class="st3" d="M736.7,215.2c-1.1,0-1.9,0.4-1.9,1.3c0,2.1,5.3,1,5.3,4.4c0,1.9-1.7,2.7-3.5,2.7c-1.4,0-2.7-0.5-3.6-1.3
					l0.5-1c0.8,0.8,2,1.2,3.2,1.2s2-0.4,2-1.4c0.1-2.3-5.3-1.1-5.2-4.5c0-1.8,1.6-2.6,3.3-2.6c1.1,0,2.2,0.3,3,0.9l-0.5,1.1
					C738.5,215.5,737.6,215.2,736.7,215.2z"/>
			</g>
			<g>
				<path class="st3" d="M685.4,174.9c-4.3,0-6.4,3-6.3,7.5c1.3-1.9,3.4-3,6.3-3c4.9,0,8.1,3.2,8.1,8.2c0,5.3-3.6,8.6-9.1,8.6
					c-6.6,0-10.5-4.7-10.5-12.4c0-8.1,4.4-13.3,11.2-13.3c2.7,0,5.8,0.8,7.8,2l-2.1,4.1C689.3,175.5,687.3,174.9,685.4,174.9z
					 M679.8,187.6c0,2,1.3,3.9,4.2,3.9c2.6,0,4.2-1.4,4.2-4c0-2.4-1.5-3.9-4.1-3.9C681.4,183.6,679.8,185.4,679.8,187.6z"/>
				<path class="st3" d="M708.3,177.8c0-1.6-1.3-2.6-3.5-2.6c-2.2,0-4.8,1.2-7,3.2l-2.2-4.2c3.1-2.3,6.5-3.7,10.1-3.7
					c5,0,8.6,2.6,8.6,6.5c0,2.7-2.1,5.5-4.8,8.4l-5.9,5.8h11.6v4.8h-18.9V192l9.3-9.6C707.2,180.8,708.3,179,708.3,177.8z"/>
			</g>
		</g>
	</g>
	<g>
		<rect x="265.4" y="130" class="st4" width="240.8" height="128.6"/>
		<rect x="265.4" y="1.4" class="st0" width="240.8" height="128.6"/>
		<g>
			<g>
				<path class="st3" d="M353.7,79.5v1.3h-6.6v4.5h5.9v1.3h-5.9v5.4h-1.4V79.5H353.7z"/>
				<path class="st3" d="M364.3,87.4c0,2.8-2,4.8-4.8,4.8c-2.8,0-4.8-2-4.8-4.8c0-2.8,2-4.8,4.8-4.8
					C362.3,82.6,364.3,84.6,364.3,87.4z M356.1,87.4c0,2.1,1.4,3.6,3.4,3.6c2,0,3.4-1.4,3.4-3.6c0-2.1-1.4-3.5-3.4-3.5
					C357.5,83.8,356.1,85.3,356.1,87.4z"/>
				<path class="st3" d="M368.2,78.8v13.4h-1.4V78.8H368.2z"/>
				<path class="st3" d="M373.2,78.8v13.4h-1.4V78.8H373.2z"/>
				<path class="st3" d="M385.4,87.4c0,2.8-2,4.8-4.8,4.8c-2.8,0-4.8-2-4.8-4.8c0-2.8,2-4.8,4.8-4.8
					C383.4,82.6,385.4,84.6,385.4,87.4z M377.2,87.4c0,2.1,1.4,3.6,3.4,3.6c2,0,3.4-1.4,3.4-3.6c0-2.1-1.4-3.5-3.4-3.5
					C378.6,83.8,377.2,85.3,377.2,87.4z"/>
				<path class="st3" d="M387.4,82.6l2.8,8l2.8-8h1.5l2.8,8l2.8-8h1.5l-3.5,9.5h-1.5l-2.8-7.8l-2.8,7.8h-1.5l-3.5-9.5H387.4z"/>
				<path class="st3" d="M411,87.9h-7.7c0.2,1.9,1.6,3.1,3.4,3.1c1.2,0,2.2-0.4,2.9-1.2l0.8,0.8c-0.9,1-2.2,1.6-3.8,1.6
					c-2.8,0-4.7-2-4.7-4.8s1.9-4.8,4.7-4.8C409.6,82.6,411.1,84.7,411,87.9z M409.7,86.8c-0.1-1.8-1.3-3-3.2-3c-1.8,0-3.1,1.2-3.3,3
					H409.7z"/>
				<path class="st3" d="M418.2,82.6V84c-2,0-3.2,1.2-3.4,3.1v5h-1.4v-9.5h1.4v2.1C415.4,83.4,416.6,82.6,418.2,82.6z"/>
				<path class="st3" d="M422.5,83.8c-1.1,0-1.9,0.4-1.9,1.3c0,2.1,5.3,1,5.3,4.4c0,1.9-1.7,2.7-3.5,2.7c-1.4,0-2.7-0.5-3.6-1.3
					l0.5-1c0.8,0.8,2,1.2,3.2,1.2c1.1,0,2-0.4,2-1.4c0.1-2.3-5.3-1.1-5.2-4.5c0-1.8,1.6-2.6,3.3-2.6c1.1,0,2.2,0.3,3,0.9l-0.5,1.1
					C424.4,84,423.4,83.8,422.5,83.8z"/>
			</g>
			<g>
				<path class="st3" d="M383.3,46c0,2.2-1.2,4.2-3.2,5.3c2.8,1.1,4.5,3.5,4.5,6.4c0,4.5-3.9,7.4-9.9,7.4c-6.1,0-10-2.8-10-7.3
					c0-2.9,1.9-5.4,4.8-6.5c-2.2-1.2-3.5-3.2-3.5-5.5c0-4,3.3-6.5,8.6-6.5C379.9,39.2,383.3,41.8,383.3,46z M370,57.1
					c0,2.3,1.7,3.6,4.6,3.6c2.9,0,4.6-1.3,4.6-3.6c0-2.2-1.7-3.5-4.6-3.5C371.7,53.6,370,54.8,370,57.1z M370.7,46.2
					c0,1.9,1.4,3.1,3.9,3.1c2.5,0,3.9-1.1,3.9-3.1c0-2-1.4-3.1-3.9-3.1C372.1,43.1,370.7,44.3,370.7,46.2z"/>
				<path class="st3" d="M398.8,43.7c-4.3,0-6.4,3-6.3,7.5c1.3-1.9,3.4-3,6.3-3c4.9,0,8.1,3.2,8.1,8.2c0,5.3-3.6,8.6-9.1,8.6
					c-6.6,0-10.5-4.7-10.5-12.4c0-8.1,4.4-13.3,11.2-13.3c2.7,0,5.8,0.8,7.8,2l-2.1,4.1C402.7,44.3,400.7,43.7,398.8,43.7z
					 M393.3,56.4c0,2,1.3,3.9,4.2,3.9c2.6,0,4.2-1.4,4.2-4c0-2.4-1.5-3.9-4.1-3.9C394.9,52.4,393.3,54.2,393.3,56.4z"/>
			</g>
		</g>
		<g>
			<g>
				<path class="st3" d="M352.7,206.4v1.3h-6.6v4.5h5.9v1.3h-5.9v5.4h-1.4v-12.6H352.7z"/>
				<path class="st3" d="M363.2,214.3c0,2.8-2,4.8-4.8,4.8c-2.8,0-4.8-2-4.8-4.8c0-2.8,2-4.8,4.8-4.8
					C361.3,209.5,363.2,211.4,363.2,214.3z M355,214.3c0,2.1,1.4,3.6,3.4,3.6c2,0,3.4-1.4,3.4-3.6c0-2.1-1.4-3.5-3.4-3.5
					C356.4,210.7,355,212.2,355,214.3z"/>
				<path class="st3" d="M367.2,205.7V219h-1.4v-13.4H367.2z"/>
				<path class="st3" d="M372.2,205.7V219h-1.4v-13.4H372.2z"/>
				<path class="st3" d="M384.4,214.3c0,2.8-2,4.8-4.8,4.8c-2.8,0-4.8-2-4.8-4.8c0-2.8,2-4.8,4.8-4.8
					C382.4,209.5,384.4,211.4,384.4,214.3z M376.2,214.3c0,2.1,1.4,3.6,3.4,3.6c2,0,3.4-1.4,3.4-3.6c0-2.1-1.4-3.5-3.4-3.5
					C377.6,210.7,376.2,212.2,376.2,214.3z"/>
				<path class="st3" d="M386.4,209.5l2.8,8l2.8-8h1.5l2.8,8l2.8-8h1.5l-3.5,9.5h-1.5l-2.8-7.8l-2.8,7.8h-1.5l-3.5-9.5H386.4z"/>
				<path class="st3" d="M403.7,206.8c0,0.5-0.4,1-0.9,1c-0.5,0-0.9-0.4-0.9-1c0-0.6,0.4-1,0.9-1
					C403.3,205.9,403.7,206.3,403.7,206.8z M403.5,209.5v9.5h-1.4v-9.5H403.5z"/>
				<path class="st3" d="M415.6,213.2v5.8h-1.4v-5.5c0-1.7-1-2.7-2.7-2.7c-1.9,0-3,1.3-3.2,3.1v5.1h-1.4v-9.5h1.4v2.1
					c0.7-1.4,1.9-2.1,3.7-2.1C414.2,209.5,415.6,210.9,415.6,213.2z"/>
				<path class="st3" d="M427,209.5v8.5c0,2.8-1.9,4.5-4.8,4.5c-1.5,0-2.7-0.5-3.9-1.4l0.6-1c0.9,0.8,1.9,1.2,3.2,1.2
					c2.1,0,3.4-1.3,3.4-3.3v-1.4c-0.7,1.3-1.9,2-3.5,2c-2.6,0-4.3-1.9-4.3-4.6c0-2.7,1.7-4.5,4.3-4.5c1.6,0,2.8,0.7,3.5,2v-1.9H427z
					 M425.6,214.1c0-2-1.4-3.4-3.2-3.4c-1.9,0-3.2,1.4-3.3,3.4c0,2,1.4,3.4,3.3,3.4C424.2,217.4,425.6,216,425.6,214.1z"/>
			</g>
			<g>
				<path class="st3" d="M374.6,175.3c5.8,0,9.6,3.1,9.6,7.6c0,5.2-4,8.6-10.1,8.6c-3.3,0-7.1-1.2-9.7-3.1l2.3-4.5
					c2,1.9,4.4,3,6.8,3c3,0,4.6-1.4,4.6-3.7c0-2.1-1.7-3.4-4.6-3.4c-1.4,0-5.3,0.1-7,0.2v-14h16.6v4.8h-11.3v4.4H374.6z"/>
				<path class="st3" d="M400.2,166.1l-7.5,14.9h5.9v-5.6h5.2l0,5.6h3.4v4.6h-3.5v5.7h-5.2v-5.7h-11.8v-4l8-15.6H400.2z"/>
			</g>
		</g>
	</g>
</g>
</svg>
