<?xml version="1.0" encoding="utf-8"?>
<!-- Generator: Adobe Illustrator 19.2.1, SVG Export Plug-In . SVG Version: 6.00 Build 0)  -->
<svg version="1.1" id="Layer_1" xmlns="http://www.w3.org/2000/svg" xmlns:xlink="http://www.w3.org/1999/xlink" x="0px" y="0px"
	 viewBox="0 0 507.5 261" style="enable-background:new 0 0 507.5 261;" xml:space="preserve">
<style type="text/css">
	.st0{fill:#292C38;}
	.st1{fill:#FFFFFF;}
	.st2{fill:#282C37;}
</style>
<g>
	<g>
		<rect x="265.6" y="1.8" class="st0" width="108.6" height="116.8"/>
		<rect x="265.6" y="142.3" class="st0" width="108.6" height="116.8"/>
		<rect x="397.9" y="1.8" class="st0" width="108.6" height="116.8"/>
		<rect x="397.9" y="142.3" class="st0" width="108.6" height="116.8"/>
		<g>
			<g>
				<path class="st1" d="M287.8,74v1.3h-6.6v4.5h5.9v1.3h-5.9v5.4h-1.4V74H287.8z"/>
				<path class="st1" d="M298.4,81.9c0,2.8-2,4.8-4.8,4.8c-2.8,0-4.8-2-4.8-4.8s2-4.8,4.8-4.8C296.4,77.1,298.4,79.1,298.4,81.9z
					 M290.1,81.9c0,2.1,1.4,3.6,3.4,3.6s3.4-1.4,3.4-3.6c0-2.1-1.4-3.5-3.4-3.5S290.1,79.8,290.1,81.9z"/>
				<path class="st1" d="M302.3,73.3v13.4h-1.4V73.3H302.3z"/>
				<path class="st1" d="M307.3,73.3v13.4h-1.4V73.3H307.3z"/>
				<path class="st1" d="M319.5,81.9c0,2.8-2,4.8-4.8,4.8c-2.8,0-4.8-2-4.8-4.8s2-4.8,4.8-4.8C317.5,77.1,319.5,79.1,319.5,81.9z
					 M311.3,81.9c0,2.1,1.4,3.6,3.4,3.6s3.4-1.4,3.4-3.6c0-2.1-1.4-3.5-3.4-3.5S311.3,79.8,311.3,81.9z"/>
				<path class="st1" d="M321.5,77.2l2.8,8l2.8-8h1.5l2.8,8l2.8-8h1.5l-3.5,9.5h-1.5l-2.8-7.8l-2.8,7.8h-1.5l-3.5-9.5H321.5z"/>
				<path class="st1" d="M345.1,82.4h-7.7c0.2,1.9,1.6,3.1,3.4,3.1c1.2,0,2.2-0.4,2.9-1.2l0.8,0.8c-0.9,1-2.2,1.6-3.8,1.6
					c-2.8,0-4.8-2-4.8-4.8s1.9-4.8,4.7-4.8C343.7,77.1,345.2,79.2,345.1,82.4z M343.8,81.3c-0.1-1.8-1.3-3-3.2-3
					c-1.8,0-3.1,1.2-3.3,3H343.8z"/>
				<path class="st1" d="M352.3,77.1v1.4c-2,0-3.2,1.2-3.4,3.1v5h-1.4v-9.5h1.4v2.1C349.5,77.9,350.7,77.1,352.3,77.1z"/>
				<path class="st1" d="M356.6,78.3c-1.1,0-1.9,0.4-1.9,1.3c0,2.1,5.3,1,5.3,4.4c0,1.9-1.7,2.7-3.5,2.7c-1.4,0-2.7-0.5-3.6-1.3
					l0.5-1c0.8,0.8,2,1.2,3.2,1.2c1.1,0,2-0.4,2-1.4c0.1-2.3-5.3-1.1-5.2-4.5c0-1.8,1.6-2.6,3.3-2.6c1.1,0,2.2,0.3,3,0.9l-0.5,1.1
					C358.4,78.6,357.5,78.3,356.6,78.3z"/>
			</g>
			<g>
				<path class="st1" d="M317.4,40.5c0,2.2-1.2,4.2-3.2,5.3c2.8,1.1,4.5,3.5,4.5,6.4c0,4.5-3.9,7.4-9.9,7.4c-6.1,0-10-2.8-10-7.3
					c0-2.9,1.9-5.4,4.8-6.5c-2.2-1.2-3.5-3.2-3.5-5.5c0-4,3.3-6.5,8.6-6.5C314,33.7,317.4,36.3,317.4,40.5z M304.1,51.6
					c0,2.3,1.7,3.6,4.6,3.6c2.9,0,4.6-1.3,4.6-3.6c0-2.2-1.7-3.5-4.6-3.5S304.1,49.4,304.1,51.6z M304.8,40.8c0,1.9,1.4,3.1,3.9,3.1
					s3.9-1.1,3.9-3.1s-1.4-3.1-3.9-3.1S304.8,38.8,304.8,40.8z"/>
				<path class="st1" d="M332.9,38.2c-4.3,0-6.4,3-6.3,7.5c1.3-1.9,3.4-3,6.3-3c4.9,0,8.1,3.2,8.1,8.2c0,5.3-3.6,8.6-9.1,8.6
					c-6.6,0-10.5-4.7-10.5-12.4c0-8.1,4.4-13.3,11.2-13.3c2.7,0,5.8,0.8,7.8,2l-2.1,4.1C336.8,38.8,334.8,38.2,332.9,38.2z
					 M327.4,50.9c0,2,1.3,3.9,4.2,3.9c2.6,0,4.2-1.4,4.2-4c0-2.4-1.5-3.9-4.1-3.9C329,47,327.3,48.7,327.4,50.9z"/>
			</g>
		</g>
		<g>
			<g>
				<path class="st1" d="M297.9,214.4v1.3h-7.1v4.2h6.4v1.3h-6.4v4.4h7.3v1.3h-8.8v-12.6h8.6V214.4z"/>
				<path class="st1" d="M304.7,218.7c-2,0-3.4,1.4-3.4,3.5s1.4,3.5,3.4,3.5c1.2,0,2.3-0.4,2.9-1.2l0.8,0.8c-0.8,1-2.2,1.6-3.8,1.6
					c-2.8,0-4.7-2-4.7-4.8s2-4.8,4.7-4.8c1.5,0,2.8,0.5,3.7,1.4l-0.8,1C306.8,219.1,305.8,218.7,304.7,218.7z"/>
				<path class="st1" d="M319.7,221.2v5.8h-1.4v-5.5c0-1.7-1-2.7-2.7-2.7c-2,0-3.2,1.5-3.2,3.5v4.6H311v-13.4h1.4v6
					c0.6-1.5,1.9-2.2,3.7-2.2C318.4,217.5,319.7,218.9,319.7,221.2z"/>
				<path class="st1" d="M331.5,222.2c0,2.8-2,4.8-4.8,4.8c-2.8,0-4.8-2-4.8-4.8s2-4.8,4.8-4.8C329.5,217.5,331.5,219.4,331.5,222.2
					z M323.3,222.3c0,2.1,1.4,3.6,3.4,3.6s3.4-1.4,3.4-3.6c0-2.1-1.4-3.5-3.4-3.5C324.7,218.7,323.3,220.2,323.3,222.3z"/>
				<path class="st1" d="M342.2,222.8h-7.7c0.2,1.9,1.6,3.1,3.4,3.1c1.2,0,2.2-0.4,2.9-1.2l0.8,0.8c-0.9,1-2.2,1.6-3.8,1.6
					c-2.8,0-4.7-2-4.7-4.8s1.9-4.8,4.7-4.8C340.8,217.5,342.3,219.6,342.2,222.8z M340.9,221.7c-0.1-1.8-1.3-3-3.2-3
					c-1.8,0-3.1,1.2-3.3,3H340.9z"/>
				<path class="st1" d="M347,218.6c-1.1,0-1.9,0.4-1.9,1.3c0,2.1,5.3,1,5.3,4.4c0,1.9-1.7,2.7-3.5,2.7c-1.4,0-2.7-0.5-3.6-1.3
					l0.5-1c0.8,0.8,2,1.2,3.2,1.2c1.1,0,2-0.4,2-1.4c0.1-2.3-5.3-1.1-5.2-4.5c0-1.8,1.6-2.6,3.3-2.6c1.1,0,2.2,0.3,3,0.9l-0.5,1.1
					C348.8,218.9,347.9,218.6,347,218.6z"/>
			</g>
			<g>
				<path class="st1" d="M318,191.7c0,4.8-3.9,8.1-10.1,8.1c-3.6,0-7.2-1.2-9.6-3l2.3-4.5c2,1.9,4.4,3,6.9,3c3.2,0,5-1.4,5-3.6
					c0-2.3-1.8-3.5-5-3.5h-4v-3.1l6.4-6.2h-10.3v-4.6h17.2v3.4l-7.3,6.8l1.4,0.2C315.1,185.3,318,187.7,318,191.7z"/>
				<path class="st1" d="M334.5,174.3l-7.5,14.9h5.9v-5.5h5.2v5.6h3.4v4.6H338v5.7h-5.2v-5.7h-11.7v-4l8-15.6H334.5z"/>
			</g>
		</g>
		<g>
			<g>
				<path class="st1" d="M414.8,225.5l-2.6-4c-0.3,0-0.5,0-0.8,0h-3.3v4h-1.4v-12.6h4.8c3.2,0,5,1.5,5,4.2c0,2.1-1,3.5-2.8,4.1
					l3,4.3H414.8z M411.3,220.2c2.3,0,3.6-1,3.6-3c0-1.9-1.3-2.9-3.6-2.9H408v5.9H411.3z"/>
				<path class="st1" d="M427.5,221.3h-7.7c0.2,1.9,1.6,3.1,3.4,3.1c1.2,0,2.2-0.4,2.9-1.2l0.8,0.8c-0.9,1-2.2,1.6-3.8,1.6
					c-2.8,0-4.7-2-4.7-4.8s1.9-4.8,4.7-4.8C426.2,216,427.7,218.1,427.5,221.3z M426.3,220.2c-0.1-1.8-1.3-3-3.2-3
					c-1.8,0-3.1,1.2-3.3,3H426.3z"/>
				<path class="st1" d="M432.4,217.1c-1.1,0-1.9,0.4-1.9,1.3c0,2.1,5.3,1,5.3,4.4c0,1.9-1.7,2.7-3.5,2.7c-1.4,0-2.7-0.5-3.6-1.3
					l0.5-1c0.8,0.8,2,1.2,3.2,1.2c1.2,0,2-0.4,2-1.4c0.1-2.3-5.3-1.1-5.2-4.5c0-1.8,1.6-2.6,3.3-2.6c1.1,0,2.2,0.3,3,0.9l-0.5,1.1
					C434.2,217.4,433.2,217.1,432.4,217.1z"/>
				<path class="st1" d="M447.8,220.8c0,2.8-1.8,4.8-4.5,4.8c-1.7,0-3-0.8-3.7-2.1v5.5h-1.4v-13h1.4v2c0.7-1.3,2-2.1,3.7-2.1
					C445.9,216,447.8,217.9,447.8,220.8z M446.4,220.7c0-2.1-1.4-3.6-3.4-3.6s-3.4,1.5-3.4,3.6s1.4,3.6,3.4,3.6
					S446.4,222.8,446.4,220.7z"/>
				<path class="st1" d="M458.9,220.7c0,2.8-2,4.8-4.8,4.8c-2.8,0-4.8-2-4.8-4.8s2-4.8,4.8-4.8C456.9,216,458.9,217.9,458.9,220.7z
					 M450.7,220.8c0,2.1,1.4,3.6,3.4,3.6s3.4-1.4,3.4-3.6c0-2.1-1.4-3.5-3.4-3.5C452.1,217.2,450.7,218.7,450.7,220.8z"/>
				<path class="st1" d="M470.1,219.7v5.8h-1.4V220c0-1.7-1-2.7-2.7-2.7c-1.9,0-3,1.3-3.2,3.1v5.1h-1.4v-9.5h1.4v2.1
					c0.7-1.4,1.9-2.1,3.7-2.1C468.7,216,470.1,217.4,470.1,219.7z"/>
				<path class="st1" d="M475.6,217.1c-1.1,0-1.9,0.4-1.9,1.3c0,2.1,5.3,1,5.3,4.4c0,1.9-1.7,2.7-3.5,2.7c-1.4,0-2.7-0.5-3.6-1.3
					l0.5-1c0.8,0.8,2,1.2,3.2,1.2c1.1,0,2-0.4,2-1.4c0.1-2.3-5.3-1.1-5.2-4.5c0-1.8,1.6-2.6,3.3-2.6c1.1,0,2.2,0.3,3,0.9l-0.5,1.1
					C477.4,217.4,476.5,217.1,475.6,217.1z"/>
				<path class="st1" d="M489.5,221.3h-7.7c0.2,1.9,1.6,3.1,3.4,3.1c1.2,0,2.2-0.4,2.9-1.2l0.8,0.8c-0.9,1-2.2,1.6-3.8,1.6
					c-2.8,0-4.7-2-4.7-4.8s1.9-4.8,4.7-4.8C488.1,216,489.7,218.1,489.5,221.3z M488.2,220.2c-0.1-1.8-1.3-3-3.2-3
					c-1.8,0-3.1,1.2-3.3,3H488.2z"/>
				<path class="st1" d="M494.4,217.1c-1.1,0-1.9,0.4-1.9,1.3c0,2.1,5.3,1,5.3,4.4c0,1.9-1.7,2.7-3.5,2.7c-1.4,0-2.7-0.5-3.6-1.3
					l0.5-1c0.8,0.8,2,1.2,3.2,1.2c1.2,0,2-0.4,2-1.4c0.1-2.3-5.3-1.1-5.2-4.5c0-1.8,1.6-2.6,3.3-2.6c1.1,0,2.2,0.3,3,0.9l-0.5,1.1
					C496.2,217.4,495.2,217.1,494.4,217.1z"/>
			</g>
			<g>
				<path class="st1" d="M443.1,176.8c-4.3,0-6.4,3-6.3,7.5c1.3-1.9,3.4-3,6.3-3c4.9,0,8.1,3.2,8.1,8.2c0,5.3-3.6,8.6-9.1,8.6
					c-6.6,0-10.5-4.7-10.5-12.4c0-8.1,4.4-13.3,11.2-13.3c2.7,0,5.8,0.8,7.8,2l-2.1,4.1C446.9,177.4,445,176.8,443.1,176.8z
					 M437.5,189.6c0,2,1.3,3.9,4.2,3.9c2.6,0,4.2-1.4,4.2-4c0-2.4-1.5-3.9-4.1-3.9C439.1,185.6,437.5,187.4,437.5,189.6z"/>
				<path class="st1" d="M466,179.8c0-1.6-1.3-2.6-3.5-2.6c-2.2,0-4.8,1.2-7,3.2l-2.2-4.2c3.1-2.3,6.5-3.7,10.1-3.7
					c5,0,8.6,2.6,8.6,6.5c0,2.7-2.1,5.5-4.8,8.4l-5.9,5.8h11.6v4.8h-19v-3.9l9.3-9.6C464.8,182.7,466,181,466,179.8z"/>
			</g>
		</g>
		<g>
			<g>
				<path class="st1" d="M419,72.3v1.3h-6.6v4.5h5.9v1.3h-5.9v5.4H411V72.3H419z"/>
				<path class="st1" d="M429.6,80.2c0,2.8-2,4.8-4.8,4.8c-2.8,0-4.8-2-4.8-4.8s2-4.8,4.8-4.8C427.6,75.4,429.6,77.4,429.6,80.2z
					 M421.4,80.2c0,2.1,1.4,3.6,3.4,3.6s3.4-1.4,3.4-3.6c0-2.1-1.4-3.5-3.4-3.5C422.8,76.6,421.4,78.1,421.4,80.2z"/>
				<path class="st1" d="M433.5,71.6V85h-1.4V71.6H433.5z"/>
				<path class="st1" d="M438.6,71.6V85h-1.4V71.6H438.6z"/>
				<path class="st1" d="M450.7,80.2c0,2.8-2,4.8-4.8,4.8c-2.8,0-4.8-2-4.8-4.8s2-4.8,4.8-4.8C448.7,75.4,450.7,77.4,450.7,80.2z
					 M442.5,80.2c0,2.1,1.4,3.6,3.4,3.6s3.4-1.4,3.4-3.6c0-2.1-1.4-3.5-3.4-3.5C443.9,76.6,442.5,78.1,442.5,80.2z"/>
				<path class="st1" d="M452.7,75.5l2.8,8l2.8-8h1.5l2.8,8l2.8-8h1.5l-3.5,9.5h-1.5l-2.8-7.8l-2.8,7.8h-1.5l-3.5-9.5H452.7z"/>
				<path class="st1" d="M470,72.7c0,0.5-0.4,1-0.9,1s-0.9-0.4-0.9-1s0.4-1,0.9-1C469.6,71.8,470,72.2,470,72.7z M469.8,75.5V85
					h-1.4v-9.5H469.8z"/>
				<path class="st1" d="M481.9,79.1v5.8h-1.4v-5.5c0-1.7-1-2.7-2.7-2.7c-1.9,0-3,1.3-3.2,3.1v5.1h-1.4v-9.5h1.4v2.1
					c0.7-1.4,1.9-2.1,3.7-2.1C480.6,75.4,481.9,76.8,481.9,79.1z"/>
				<path class="st1" d="M493.3,75.5V84c0,2.8-1.9,4.5-4.8,4.5c-1.5,0-2.7-0.5-3.9-1.4l0.6-1c0.9,0.8,1.9,1.2,3.2,1.2
					c2.1,0,3.4-1.3,3.4-3.3v-1.4c-0.7,1.3-1.9,2-3.5,2c-2.6,0-4.3-1.9-4.3-4.6s1.7-4.5,4.3-4.5c1.6,0,2.8,0.7,3.5,2v-1.9L493.3,75.5
					L493.3,75.5z M491.9,80c0-2-1.4-3.4-3.2-3.4c-1.9,0-3.2,1.4-3.3,3.4c0,2,1.4,3.4,3.3,3.4C490.6,83.4,491.9,81.9,491.9,80z"/>
			</g>
			<g>
				<path class="st1" d="M440.9,41.2c5.8,0,9.6,3.1,9.6,7.6c0,5.2-4,8.6-10.1,8.6c-3.3,0-7.1-1.2-9.7-3.1l2.3-4.5c2,1.9,4.4,3,6.8,3
					c3,0,4.6-1.4,4.6-3.7c0-2.1-1.7-3.4-4.6-3.4c-1.4,0-5.3,0.1-7,0.2v-14h16.6v4.8h-11.3v4.4L440.9,41.2L440.9,41.2z"/>
				<path class="st1" d="M466.6,32l-7.5,14.9h5.9v-5.6h5.2v5.6h3.4v4.6h-3.5v5.7h-5.2v-5.7h-11.8v-4l8-15.6h5.5V32z"/>
			</g>
		</g>
	</g>
	<rect x="1" y="1.9" class="st2" width="240.8" height="257.2"/>
</g>
</svg>
