<?xml version="1.0" encoding="utf-8"?>
<!-- Generator: Adobe Illustrator 19.2.1, SVG Export Plug-In . SVG Version: 6.00 Build 0)  -->
<svg version="1.1" id="Layer_1" xmlns="http://www.w3.org/2000/svg" xmlns:xlink="http://www.w3.org/1999/xlink" x="0px" y="0px"
	 viewBox="0 0 1217 261.5" style="enable-background:new 0 0 1217 261.5;" xml:space="preserve">
<style type="text/css">
	.st0{fill:#292C38;}
	.st1{fill:#313642;}
	.st2{fill:#FFFFFF;}
	.st3{fill:#FFCA0F;}
	.st4{fill:#313642;stroke:#313642;stroke-miterlimit:10;}
	.st5{fill:#FFCA0F;stroke:#FFCA0F;stroke-miterlimit:10;}
	.st6{fill:#282C37;}
</style>
<g>
	<g>
		<rect x="795.1" y="2.1" class="st0" width="420.5" height="257.2"/>
		<g>
			<path class="st1" d="M1173.5,17h-136.3c-1.1,0-2,0.9-2,2v47.3c0,1.1,0.9,2,2,2H1158l17.5,9.9V66.3v-6.1V19
				C1175.5,17.9,1174.6,17,1173.5,17z"/>
			<g>
				<path class="st2" d="M1064.1,33.5c-0.7,0-1.1,0.3-1.1,0.7c0,1.5,3.8,0.7,3.8,3.2c0,1.2-1.1,2-2.6,2c-1.1,0-2.1-0.4-2.9-1.1
					l0.5-1c0.7,0.7,1.6,1,2.4,1c0.8,0,1.3-0.3,1.3-0.8c0-1.6-3.8-0.7-3.8-3.2c0-1.2,1-1.9,2.5-1.9c0.9,0,1.8,0.3,2.4,0.7l-0.5,1
					C1065.3,33.7,1064.6,33.5,1064.1,33.5z"/>
				<path class="st2" d="M1071.2,39.4v-0.6c-0.4,0.5-1,0.7-1.8,0.7c-1.1,0-1.9-0.7-1.9-1.6c0-1,0.7-1.6,2-1.6h1.6v-0.2
					c0-0.7-0.4-1.1-1.3-1.1c-0.5,0-1,0.2-1.6,0.5l-0.5-0.8c0.7-0.4,1.3-0.7,2.3-0.7c1.4,0,2.1,0.7,2.1,1.9v3.5
					C1072.1,39.4,1071.2,39.4,1071.2,39.4z M1071.2,37.6v-0.5h-1.4c-0.8,0-1.1,0.2-1.1,0.7s0.4,0.8,1,0.8
					C1070.5,38.6,1071.1,38.2,1071.2,37.6z"/>
				<path class="st2" d="M1076.9,39.1c-0.4,0.2-0.9,0.4-1.3,0.4c-0.8,0-1.5-0.5-1.5-1.5v-2.8h-0.8v-0.9h0.8v-1.5h1.1v1.5h1.6v0.9
					h-1.6v2.5c0,0.5,0.2,0.7,0.6,0.7c0.2,0,0.5-0.1,0.8-0.2L1076.9,39.1z"/>
				<path class="st2" d="M1082.8,34.1v5.3h-1.1v-1c-0.4,0.7-1,1.1-1.9,1.1c-1.2,0-1.9-0.8-1.9-2v-3.3h1.1v3c0,0.8,0.5,1.3,1.2,1.3
					c0.9,0,1.5-0.7,1.5-1.7v-2.6L1082.8,34.1L1082.8,34.1z"/>
				<path class="st2" d="M1087.4,34.1v1.1c-1.1-0.1-1.7,0.6-1.8,1.5v2.8h-1.1v-5.3h1.1v1.1C1086,34.5,1086.6,34.1,1087.4,34.1z"/>
				<path class="st2" d="M1093.5,32v7.4h-1.2v-0.9c-0.4,0.6-1,1-1.9,1c-1.5,0-2.5-1.1-2.5-2.7c0-1.6,1-2.7,2.5-2.7
					c0.9,0,1.5,0.4,1.9,1v-3L1093.5,32L1093.5,32z M1092.3,36.8c0-1-0.7-1.7-1.6-1.7c-1,0-1.6,0.7-1.6,1.7s0.7,1.7,1.6,1.7
					C1091.6,38.5,1092.3,37.8,1092.3,36.8z"/>
				<path class="st2" d="M1098.4,39.4v-0.6c-0.4,0.5-1,0.7-1.8,0.7c-1.1,0-1.9-0.7-1.9-1.6c0-1,0.7-1.6,2-1.6h1.6v-0.2
					c0-0.7-0.4-1.1-1.3-1.1c-0.5,0-1,0.2-1.6,0.5l-0.5-0.8c0.7-0.4,1.3-0.7,2.3-0.7c1.4,0,2.1,0.7,2.1,1.9v3.5
					C1099.3,39.4,1098.4,39.4,1098.4,39.4z M1098.4,37.6v-0.5h-1.4c-0.8,0-1.1,0.2-1.1,0.7s0.4,0.8,1,0.8
					C1097.7,38.6,1098.3,38.2,1098.4,37.6z"/>
				<path class="st2" d="M1101.3,41.4c-0.5,0-0.9-0.1-1.2-0.4l0.5-0.9c0.2,0.2,0.5,0.3,0.7,0.3c0.3,0,0.6-0.2,0.8-0.6l0.2-0.4
					l-2.2-5.2h1.2l1.6,4l1.5-4h1.1l-2.4,6C1102.7,41,1102.1,41.4,1101.3,41.4z"/>
				<path class="st2" d="M1107.1,38.9c0,0.2-0.1,0.4-0.2,0.5l-0.6,0.9h-0.6l0.4-0.9c-0.2-0.1-0.3-0.3-0.3-0.5c0-0.4,0.3-0.6,0.6-0.6
					C1106.8,38.2,1107.1,38.5,1107.1,38.9z"/>
				<path class="st2" d="M1116,37.9h-3.5l-0.7,1.6h-1.2l3.1-7h1.2l3.1,7h-1.3L1116,37.9z M1115.5,36.8l-1.3-3.1l-1.3,3.1H1115.5z"/>
				<path class="st2" d="M1124.3,36.8c0,1.6-1,2.7-2.5,2.7c-0.8,0-1.5-0.3-1.9-1v2.9h-1.1v-7.3h1.1V35c0.4-0.6,1-1,1.9-1
					C1123.3,34.1,1124.3,35.2,1124.3,36.8z M1123.2,36.8c0-1-0.7-1.7-1.6-1.7c-0.9,0-1.6,0.7-1.6,1.7s0.7,1.7,1.6,1.7
					C1122.5,38.5,1123.2,37.8,1123.2,36.8z"/>
				<path class="st2" d="M1128.5,34.1v1.1c-1.1-0.1-1.7,0.6-1.8,1.5v2.8h-1.1v-5.3h1.1v1.1C1127.1,34.5,1127.7,34.1,1128.5,34.1z"/>
				<path class="st2" d="M1130.7,32.6c0,0.4-0.3,0.7-0.7,0.7s-0.7-0.3-0.7-0.7s0.3-0.7,0.7-0.7S1130.7,32.2,1130.7,32.6z
					 M1130.6,34.1v5.3h-1.1v-5.3H1130.6z"/>
				<path class="st2" d="M1133.5,32v7.4h-1.1V32H1133.5z"/>
				<path class="st2" d="M1141.5,34.3c0-0.6-0.5-0.9-1.2-0.9c-0.6,0-1.4,0.3-2,0.9l-0.5-0.9c0.8-0.6,1.7-1,2.6-1
					c1.4,0,2.3,0.7,2.3,1.8c0,0.7-0.5,1.5-1.3,2.3l-1.9,1.9h3.6v1.1h-5.1v-0.9l2.7-2.8C1141.1,35.3,1141.5,34.7,1141.5,34.3z"/>
				<path class="st2" d="M1147.7,34.3c0-0.6-0.5-0.9-1.2-0.9c-0.6,0-1.4,0.3-2,0.9l-0.5-0.9c0.8-0.6,1.7-1,2.6-1
					c1.4,0,2.3,0.7,2.3,1.8c0,0.7-0.5,1.5-1.3,2.3l-1.9,1.9h3.6v1.1h-5.1v-0.9l2.7-2.8C1147.3,35.3,1147.7,34.7,1147.7,34.3z"/>
				<path class="st3" d="M1049.8,46.3c0-0.6-0.5-0.9-1.2-0.9c-0.6,0-1.4,0.3-2,0.9l-0.5-0.9c0.8-0.6,1.7-1,2.6-1
					c1.4,0,2.3,0.7,2.3,1.8c0,0.7-0.5,1.5-1.3,2.3l-1.9,1.9h3.6v1.1h-5.1v-0.9l2.7-2.8C1049.5,47.3,1049.8,46.7,1049.8,46.3z"/>
				<path class="st2" d="M1058,47.1c-0.9,0-1.6,0.7-1.6,1.7s0.7,1.7,1.6,1.7c0.7,0,1.2-0.2,1.6-0.6l0.6,0.6c-0.5,0.6-1.2,1-2.3,1
					c-1.6,0-2.7-1.1-2.7-2.7c0-1.6,1.1-2.7,2.7-2.7c1,0,1.7,0.3,2.2,0.9l-0.6,0.7C1059.1,47.3,1058.6,47.1,1058,47.1z"/>
				<path class="st2" d="M1064.4,46.1v1.1c-1.1-0.1-1.7,0.6-1.8,1.5v2.8h-1.1v-5.3h1.1v1.1C1062.9,46.5,1063.5,46.1,1064.4,46.1z"/>
				<path class="st2" d="M1070,49.2h-4c0.2,0.8,0.8,1.3,1.6,1.3c0.6,0,1.1-0.2,1.5-0.6l0.6,0.6c-0.5,0.6-1.3,0.9-2.2,0.9
					c-1.6,0-2.7-1.1-2.7-2.7c0-1.6,1.1-2.7,2.7-2.7C1069.4,46.1,1070.2,47.3,1070,49.2z M1069,48.4c0-0.9-0.6-1.4-1.5-1.4
					c-0.8,0-1.4,0.5-1.6,1.4H1069z"/>
				<path class="st2" d="M1074.4,51.4v-0.6c-0.4,0.5-1,0.7-1.8,0.7c-1.1,0-1.9-0.7-1.9-1.6c0-1,0.7-1.6,2-1.6h1.6v-0.2
					c0-0.7-0.4-1.1-1.3-1.1c-0.5,0-1,0.2-1.6,0.5l-0.5-0.8c0.7-0.4,1.3-0.7,2.3-0.7c1.4,0,2.1,0.7,2.1,1.9v3.5
					C1075.3,51.4,1074.4,51.4,1074.4,51.4z M1074.4,49.6v-0.5h-1.4c-0.8,0-1.1,0.2-1.1,0.7s0.4,0.8,1,0.8
					C1073.7,50.6,1074.3,50.2,1074.4,49.6z"/>
				<path class="st2" d="M1080.1,51.1c-0.4,0.2-0.9,0.4-1.3,0.4c-0.8,0-1.5-0.5-1.5-1.5v-2.8h-0.8v-0.9h0.8v-1.5h1.1v1.5h1.6v0.9
					h-1.6v2.5c0,0.5,0.2,0.7,0.6,0.7c0.2,0,0.5-0.1,0.8-0.2L1080.1,51.1z"/>
				<path class="st2" d="M1085.8,49.2h-4c0.2,0.8,0.8,1.3,1.6,1.3c0.6,0,1.1-0.2,1.5-0.6l0.6,0.6c-0.5,0.6-1.3,0.9-2.2,0.9
					c-1.6,0-2.7-1.1-2.7-2.7c0-1.6,1.1-2.7,2.7-2.7C1085.1,46.1,1085.9,47.3,1085.8,49.2z M1084.8,48.4c0-0.9-0.6-1.4-1.5-1.4
					c-0.8,0-1.4,0.5-1.6,1.4H1084.8z"/>
				<path class="st2" d="M1088.5,47c-0.4,0-0.8,0.1-0.8,0.5c0,1,2.8,0.4,2.8,2.4c0,1.1-1,1.6-2,1.6c-0.8,0-1.6-0.3-2.1-0.7l0.4-0.8
					c0.5,0.4,1.2,0.7,1.8,0.7c0.5,0,0.9-0.2,0.9-0.6c0-1.1-2.8-0.5-2.8-2.4c0-1.1,0.9-1.5,2-1.5c0.7,0,1.4,0.2,1.9,0.5l-0.4,0.8
					C1089.5,47.2,1088.9,47,1088.5,47z"/>
				<path class="st2" d="M1097.8,43.3l-3.2,9.3h-1l3.2-9.3H1097.8z"/>
				<path class="st3" d="M1103.9,44.4v7h-1.2v-5.9h-1.5v-1.1H1103.9z"/>
				<path class="st3" d="M1112,47.9c0,2.3-0.9,3.5-2.6,3.5s-2.6-1.3-2.6-3.5c0-2.3,0.9-3.5,2.6-3.5S1112,45.7,1112,47.9z
					 M1107.9,47.9c0,1.8,0.5,2.6,1.5,2.6s1.5-0.8,1.5-2.6s-0.5-2.6-1.5-2.6C1108.4,45.3,1107.9,46.2,1107.9,47.9z"/>
				<path class="st2" d="M1119.3,46.1v1.1c-1.1-0.1-1.7,0.6-1.8,1.5v2.8h-1.2v-5.3h1.1v1.1C1117.8,46.5,1118.5,46.1,1119.3,46.1z"/>
				<path class="st2" d="M1124.9,49.2h-4c0.2,0.8,0.8,1.3,1.6,1.3c0.6,0,1.1-0.2,1.5-0.6l0.6,0.6c-0.5,0.6-1.3,0.9-2.2,0.9
					c-1.6,0-2.7-1.1-2.7-2.7c0-1.6,1.1-2.7,2.7-2.7C1124.3,46.1,1125.1,47.3,1124.9,49.2z M1123.9,48.4c0-0.9-0.6-1.4-1.5-1.4
					c-0.8,0-1.4,0.5-1.6,1.4H1123.9z"/>
				<path class="st2" d="M1127.6,47c-0.4,0-0.8,0.1-0.8,0.5c0,1,2.8,0.4,2.8,2.4c0,1.1-1,1.6-2,1.6c-0.8,0-1.6-0.3-2.1-0.7l0.4-0.8
					c0.5,0.4,1.2,0.7,1.8,0.7c0.5,0,0.9-0.2,0.9-0.6c0-1.1-2.8-0.5-2.8-2.4c0-1.1,0.9-1.5,2-1.5c0.7,0,1.4,0.2,1.9,0.5l-0.4,0.8
					C1128.7,47.2,1128.1,47,1127.6,47z"/>
				<path class="st2" d="M1136.4,48.8c0,1.6-1,2.7-2.5,2.7c-0.8,0-1.5-0.3-1.9-1v2.9h-1.1v-7.3h1.1V47c0.4-0.6,1-1,1.9-1
					C1135.4,46.1,1136.4,47.2,1136.4,48.8z M1135.3,48.8c0-1-0.7-1.7-1.6-1.7c-0.9,0-1.6,0.7-1.6,1.7s0.7,1.7,1.6,1.7
					C1134.6,50.5,1135.3,49.8,1135.3,48.8z"/>
				<path class="st2" d="M1142.7,48.8c0,1.6-1.1,2.7-2.8,2.7c-1.6,0-2.8-1.1-2.8-2.7c0-1.6,1.1-2.7,2.8-2.7S1142.7,47.2,1142.7,48.8
					z M1138.3,48.8c0,1,0.7,1.7,1.6,1.7c1,0,1.6-0.7,1.6-1.7s-0.7-1.7-1.6-1.7C1139,47.1,1138.3,47.8,1138.3,48.8z"/>
				<path class="st2" d="M1149,48.1v3.3h-1.1v-3c0-0.8-0.5-1.3-1.3-1.3c-0.9,0-1.4,0.6-1.5,1.4v2.8h-1.1V46h1.1v1
					c0.4-0.7,1.1-1.1,2-1.1C1148.2,46.1,1149,46.9,1149,48.1z"/>
				<path class="st2" d="M1152,47c-0.4,0-0.8,0.1-0.8,0.5c0,1,2.8,0.4,2.8,2.4c0,1.1-1,1.6-2,1.6c-0.8,0-1.6-0.3-2.1-0.7l0.4-0.8
					c0.5,0.4,1.2,0.7,1.8,0.7c0.5,0,0.9-0.2,0.9-0.6c0-1.1-2.8-0.5-2.8-2.4c0-1.1,0.9-1.5,2-1.5c0.7,0,1.4,0.2,1.9,0.5l-0.4,0.8
					C1153.1,47.2,1152.5,47,1152,47z"/>
				<path class="st2" d="M1159.9,49.2h-4c0.2,0.8,0.8,1.3,1.6,1.3c0.6,0,1.1-0.2,1.5-0.6l0.6,0.6c-0.5,0.6-1.3,0.9-2.2,0.9
					c-1.6,0-2.7-1.1-2.7-2.7c0-1.6,1.1-2.7,2.7-2.7C1159.3,46.1,1160,47.3,1159.9,49.2z M1158.9,48.4c0-0.9-0.6-1.4-1.5-1.4
					c-0.8,0-1.4,0.5-1.6,1.4H1158.9z"/>
				<path class="st2" d="M1162.6,47c-0.4,0-0.8,0.1-0.8,0.5c0,1,2.8,0.4,2.8,2.4c0,1.1-1,1.6-2,1.6c-0.8,0-1.6-0.3-2.1-0.7l0.4-0.8
					c0.5,0.4,1.2,0.7,1.8,0.7c0.5,0,0.9-0.2,0.9-0.6c0-1.1-2.8-0.5-2.8-2.4c0-1.1,0.9-1.5,2-1.5c0.7,0,1.4,0.2,1.9,0.5l-0.4,0.8
					C1163.7,47.2,1163.1,47,1162.6,47z"/>
			</g>
		</g>
		<g>
			<g>
				<g>
					<g>
						<path class="st4" d="M1053.5,216.3L1053.5,216.3c-3.1,0-5.7-2.5-5.7-5.7v-112c0-3.1,2.5-5.7,5.7-5.7l0,0
							c3.1,0,5.7,2.5,5.7,5.7v112C1059.1,213.8,1056.6,216.3,1053.5,216.3z"/>
						<path class="st5" d="M1053.5,216.3L1053.5,216.3c-3.1,0-5.7-2.5-5.7-5.7v-69.8c0-3.1,2.5-5.7,5.7-5.7l0,0
							c3.1,0,5.7,2.5,5.7,5.7v69.8C1059.1,213.8,1056.6,216.3,1053.5,216.3z"/>
					</g>
					<g>
						<path class="st4" d="M1030.3,216.3L1030.3,216.3c-3.1,0-5.7-2.5-5.7-5.7v-112c0-3.1,2.5-5.7,5.7-5.7l0,0
							c3.1,0,5.7,2.5,5.7,5.7v112C1036,213.8,1033.5,216.3,1030.3,216.3z"/>
						<path class="st5" d="M1030.3,216.3L1030.3,216.3c-3.1,0-5.7-2.5-5.7-5.7v-47.3c0-3.1,2.5-5.7,5.7-5.7l0,0
							c3.1,0,5.7,2.5,5.7,5.7v47.3C1036,213.8,1033.5,216.3,1030.3,216.3z"/>
					</g>
					<g>
						<path class="st4" d="M1007.2,216.3L1007.2,216.3c-3.1,0-5.7-2.5-5.7-5.7v-112c0-3.1,2.5-5.7,5.7-5.7l0,0
							c3.1,0,5.7,2.5,5.7,5.7v112C1012.9,213.8,1010.3,216.3,1007.2,216.3z"/>
						<path class="st5" d="M1007.2,216.3L1007.2,216.3c-3.1,0-5.7-2.5-5.7-5.7v-30.9c0-3.1,2.5-5.7,5.7-5.7l0,0
							c3.1,0,5.7,2.5,5.7,5.7v30.9C1012.9,213.8,1010.3,216.3,1007.2,216.3z"/>
					</g>
					<g>
						<path class="st4" d="M984.1,216.3L984.1,216.3c-3.1,0-5.7-2.5-5.7-5.7v-112c0-3.1,2.5-5.7,5.7-5.7l0,0c3.1,0,5.7,2.5,5.7,5.7
							v112C989.8,213.8,987.2,216.3,984.1,216.3z"/>
						<path class="st5" d="M984.1,216.3L984.1,216.3c-3.1,0-5.7-2.5-5.7-5.7v-68.2c0-3.1,2.5-5.7,5.7-5.7l0,0c3.1,0,5.7,2.5,5.7,5.7
							v68.2C989.8,213.8,987.2,216.3,984.1,216.3z"/>
					</g>
					<g>
						<path class="st4" d="M961,216.3L961,216.3c-3.1,0-5.7-2.5-5.7-5.7v-112c0-3.1,2.5-5.7,5.7-5.7l0,0c3.1,0,5.7,2.5,5.7,5.7v112
							C966.7,213.8,964.1,216.3,961,216.3z"/>
						<path class="st5" d="M961,216.3L961,216.3c-3.1,0-5.7-2.5-5.7-5.7v-39.9c0-3.1,2.5-5.7,5.7-5.7l0,0c3.1,0,5.7,2.5,5.7,5.7
							v39.9C966.7,213.8,964.1,216.3,961,216.3z"/>
					</g>
					<g>
						<path class="st4" d="M937.9,216.3L937.9,216.3c-3.1,0-5.7-2.5-5.7-5.7v-112c0-3.1,2.5-5.7,5.7-5.7l0,0c3.1,0,5.7,2.5,5.7,5.7
							v112C943.5,213.8,941,216.3,937.9,216.3z"/>
						<path class="st5" d="M937.9,216.3L937.9,216.3c-3.1,0-5.7-2.5-5.7-5.7v-82c0-3.1,2.5-5.7,5.7-5.7l0,0c3.1,0,5.7,2.5,5.7,5.7
							v82C943.5,213.8,941,216.3,937.9,216.3z"/>
					</g>
					<g>
						<path class="st4" d="M914.8,216.3L914.8,216.3c-3.1,0-5.7-2.5-5.7-5.7v-112c0-3.1,2.5-5.7,5.7-5.7l0,0c3.1,0,5.7,2.5,5.7,5.7
							v112C920.4,213.8,917.9,216.3,914.8,216.3z"/>
						<path class="st5" d="M914.8,216.3L914.8,216.3c-3.1,0-5.7-2.5-5.7-5.7v-18.2c0-3.1,2.5-5.7,5.7-5.7l0,0c3.1,0,5.7,2.5,5.7,5.7
							v18.2C920.4,213.8,917.9,216.3,914.8,216.3z"/>
					</g>
					<g>
						<path class="st4" d="M891.7,216.3L891.7,216.3c-3.1,0-5.7-2.5-5.7-5.7v-112c0-3.1,2.5-5.7,5.7-5.7l0,0c3.1,0,5.7,2.5,5.7,5.7
							v112C897.3,213.8,894.8,216.3,891.7,216.3z"/>
						<path class="st5" d="M891.7,216.3L891.7,216.3c-3.1,0-5.7-2.5-5.7-5.7v-60.9c0-3.1,2.5-5.7,5.7-5.7l0,0c3.1,0,5.7,2.5,5.7,5.7
							v60.9C897.3,213.8,894.8,216.3,891.7,216.3z"/>
					</g>
					<g>
						<path class="st4" d="M868.5,216.3L868.5,216.3c-3.1,0-5.7-2.5-5.7-5.7v-112c0-3.1,2.5-5.7,5.7-5.7l0,0c3.1,0,5.7,2.5,5.7,5.7
							v112C874.2,213.8,871.7,216.3,868.5,216.3z"/>
						<path class="st5" d="M868.5,216.3L868.5,216.3c-3.1,0-5.7-2.5-5.7-5.7v-40.4c0-3.1,2.5-5.7,5.7-5.7l0,0c3.1,0,5.7,2.5,5.7,5.7
							v40.4C874.2,213.8,871.7,216.3,868.5,216.3z"/>
					</g>
					<g>
						<path class="st4" d="M1076.6,216.3L1076.6,216.3c-3.1,0-5.7-2.5-5.7-5.7v-112c0-3.1,2.5-5.7,5.7-5.7l0,0
							c3.1,0,5.7,2.5,5.7,5.7v112C1082.2,213.8,1079.7,216.3,1076.6,216.3z"/>
						<path class="st5" d="M1076.6,216.3L1076.6,216.3c-3.1,0-5.7-2.5-5.7-5.7v-91c0-3.1,2.5-5.7,5.7-5.7l0,0c3.1,0,5.7,2.5,5.7,5.7
							v91C1082.2,213.8,1079.7,216.3,1076.6,216.3z"/>
					</g>
					<g>
						<path class="st4" d="M1099.7,216.3L1099.7,216.3c-3.1,0-5.7-2.5-5.7-5.7v-112c0-3.1,2.5-5.7,5.7-5.7l0,0
							c3.1,0,5.7,2.5,5.7,5.7v112C1105.3,213.8,1102.8,216.3,1099.7,216.3z"/>
						<path class="st5" d="M1099.7,216.3L1099.7,216.3c-3.1,0-5.7-2.5-5.7-5.7v-73.3c0-3.1,2.5-5.7,5.7-5.7l0,0
							c3.1,0,5.7,2.5,5.7,5.7v73.3C1105.3,213.8,1102.8,216.3,1099.7,216.3z"/>
					</g>
					<g>
						<path class="st4" d="M1122.8,216.3L1122.8,216.3c-3.1,0-5.7-2.5-5.7-5.7v-112c0-3.1,2.5-5.7,5.7-5.7l0,0
							c3.1,0,5.7,2.5,5.7,5.7v112C1128.5,213.8,1125.9,216.3,1122.8,216.3z"/>
						<path class="st5" d="M1122.8,216.3L1122.8,216.3c-3.1,0-5.7-2.5-5.7-5.7v-50.3c0-3.1,2.5-5.7,5.7-5.7l0,0
							c3.1,0,5.7,2.5,5.7,5.7v50.3C1128.5,213.8,1125.9,216.3,1122.8,216.3z"/>
					</g>
					<g>
						<path class="st4" d="M1145.9,216.3L1145.9,216.3c-3.1,0-5.7-2.5-5.7-5.7v-112c0-3.1,2.5-5.7,5.7-5.7l0,0
							c3.1,0,5.7,2.5,5.7,5.7v112C1151.6,213.8,1149,216.3,1145.9,216.3z"/>
						<path class="st5" d="M1145.9,216.3L1145.9,216.3c-3.1,0-5.7-2.5-5.7-5.7v-80.3c0-3.1,2.5-5.7,5.7-5.7l0,0
							c3.1,0,5.7,2.5,5.7,5.7v80.3C1151.6,213.8,1149,216.3,1145.9,216.3z"/>
					</g>
					<g>
						<path class="st4" d="M1169,216.3L1169,216.3c-3.1,0-5.7-2.5-5.7-5.7v-112c0-3.1,2.5-5.7,5.7-5.7l0,0c3.1,0,5.7,2.5,5.7,5.7
							v112C1174.7,213.8,1172.1,216.3,1169,216.3z"/>
						<path class="st5" d="M1169,216.3L1169,216.3c-3.1,0-5.7-2.5-5.7-5.7v-47.3c0-3.1,2.5-5.7,5.7-5.7l0,0c3.1,0,5.7,2.5,5.7,5.7
							v47.3C1174.7,213.8,1172.1,216.3,1169,216.3z"/>
					</g>
				</g>
				<g>
					<path class="st2" d="M868.6,228.1c-0.7,0-1.1,0.2-1.1,0.7c0,1.8,5.7,0.8,5.7,4.7c0,2.2-1.9,3.3-4.3,3.3c-1.8,0-3.7-0.7-5-1.7
						l1.1-2.2c1.1,1,2.8,1.6,3.9,1.6c0.8,0,1.4-0.3,1.4-0.9c0-1.8-5.7-0.7-5.7-4.5c0-2,1.7-3.3,4.3-3.3c1.6,0,3.2,0.5,4.3,1.2
						l-1.1,2.2C871,228.6,869.5,228.1,868.6,228.1z"/>
					<path class="st2" d="M888.8,225.8l2.9,6.3l2.9-6.3h3.1v10.8h-2.5v-6.8l-2.5,5.8h-1.8l-2.5-5.8v6.8h-2.5v-10.8H888.8z"/>
					<path class="st2" d="M919.4,225.8v2.3h-3.2v8.5h-2.9v-8.5h-3.2v-2.3H919.4z"/>
					<path class="st2" d="M932.5,225.8l2.1,7.8l2-7.8h2.8l2,7.8l2-7.8h2.9l-3.6,10.8h-2.9l-1.9-7.3l-2,7.3H933l-3.5-10.8H932.5z"/>
					<path class="st2" d="M965.6,225.8v2.3h-3.2v8.5h-2.8v-8.5h-3.2v-2.3H965.6z"/>
					<path class="st2" d="M988.2,225.8v2.3H983v2.4h4.8v2.3H983v3.9h-2.8v-10.8L988.2,225.8L988.2,225.8z"/>
					<path class="st2" d="M1007.3,228.1c-0.7,0-1.1,0.2-1.1,0.7c0,1.8,5.7,0.8,5.7,4.7c0,2.2-1.9,3.3-4.3,3.3c-1.8,0-3.7-0.7-5-1.7
						l1.1-2.2c1.1,1,2.8,1.6,3.9,1.6c0.8,0,1.4-0.3,1.4-0.9c0-1.8-5.7-0.7-5.7-4.5c0-2,1.7-3.3,4.3-3.3c1.6,0,3.2,0.5,4.3,1.2
						l-1.1,2.2C1009.7,228.6,1008.2,228.1,1007.3,228.1z"/>
					<path class="st2" d="M1030.4,228.1c-0.7,0-1.1,0.2-1.1,0.7c0,1.8,5.7,0.8,5.7,4.7c0,2.2-1.9,3.3-4.3,3.3c-1.8,0-3.7-0.7-5-1.7
						l1.1-2.2c1.1,1,2.8,1.6,3.9,1.6c0.8,0,1.4-0.3,1.4-0.9c0-1.8-5.7-0.7-5.7-4.5c0-2,1.7-3.3,4.3-3.3c1.6,0,3.2,0.5,4.3,1.2
						l-1.1,2.2C1032.8,228.6,1031.3,228.1,1030.4,228.1z"/>
					<path class="st2" d="M1050.6,225.8l2.9,6.3l2.9-6.3h3.1v10.8h-2.5v-6.8l-2.5,5.8h-1.8l-2.5-5.8v6.8h-2.5v-10.8H1050.6z"/>
					<path class="st2" d="M1081.2,225.8v2.3h-3.2v8.5h-2.8v-8.5h-3.2v-2.3H1081.2z"/>
					<path class="st2" d="M1094.3,225.8l2.1,7.8l2-7.8h2.8l2,7.8l2-7.8h2.9l-3.6,10.8h-2.9l-1.9-7.3l-2,7.3h-2.9l-3.5-10.8H1094.3z"
						/>
					<path class="st2" d="M1127.4,225.8v2.3h-3.2v8.5h-2.8v-8.5h-3.2v-2.3H1127.4z"/>
					<path class="st2" d="M1150,225.8v2.3h-5.2v2.4h4.8v2.3h-4.8v3.9h-2.8v-10.8L1150,225.8L1150,225.8z"/>
					<path class="st2" d="M1169.1,228.1c-0.7,0-1.1,0.2-1.1,0.7c0,1.8,5.7,0.8,5.7,4.7c0,2.2-1.9,3.3-4.3,3.3c-1.8,0-3.7-0.7-5-1.7
						l1.1-2.2c1.1,1,2.8,1.6,3.9,1.6c0.8,0,1.4-0.3,1.4-0.9c0-1.8-5.7-0.7-5.7-4.5c0-2,1.7-3.3,4.3-3.3c1.6,0,3.2,0.5,4.3,1.2
						l-1.1,2.2C1171.5,228.6,1170,228.1,1169.1,228.1z"/>
				</g>
			</g>
			<g>
				<g>
					<path class="st2" d="M840.9,212.9c0,2.5-1,3.8-2.9,3.8s-2.9-1.4-2.9-3.8c0-2.5,1-3.8,2.9-3.8
						C839.9,209.1,840.9,210.4,840.9,212.9z M836.7,212.9c0,1.8,0.4,2.6,1.3,2.6c0.9,0,1.3-0.8,1.3-2.6s-0.4-2.6-1.3-2.6
						C837.1,210.3,836.7,211.1,836.7,212.9z"/>
					<path class="st2" d="M847.6,212.9c0,2.5-1,3.8-2.9,3.8s-2.9-1.4-2.9-3.8c0-2.5,1-3.8,2.9-3.8
						C846.5,209.1,847.6,210.4,847.6,212.9z M843.4,212.9c0,1.8,0.4,2.6,1.3,2.6c0.9,0,1.3-0.8,1.3-2.6s-0.4-2.6-1.3-2.6
						C843.8,210.3,843.4,211.1,843.4,212.9z"/>
				</g>
				<g>
					<path class="st2" d="M841,189.6c0,2.5-1,3.8-2.9,3.8s-2.9-1.4-2.9-3.8c0-2.5,1-3.8,2.9-3.8C839.9,185.8,841,187.1,841,189.6z
						 M836.8,189.6c0,1.8,0.4,2.6,1.3,2.6c0.9,0,1.3-0.8,1.3-2.6s-0.4-2.6-1.3-2.6S836.8,187.8,836.8,189.6z"/>
					<path class="st2" d="M844.7,188.6c1.7,0,2.9,0.9,2.9,2.3c0,1.6-1.2,2.6-3,2.6c-1,0-2.1-0.4-2.9-0.9l0.7-1.3
						c0.6,0.6,1.3,0.9,2,0.9c0.9,0,1.4-0.4,1.4-1.1c0-0.6-0.5-1-1.4-1c-0.4,0-1.6,0-2.1,0.1V186h5v1.4h-3.4v1.3h0.8V188.6z"/>
				</g>
				<g>
					<path class="st2" d="M838.9,162.6v7.5h-1.7V164h-1.5v-1.4H838.9z"/>
					<path class="st2" d="M847.6,166.4c0,2.5-1,3.8-2.9,3.8s-2.9-1.4-2.9-3.8c0-2.5,1-3.8,2.9-3.8
						C846.5,162.5,847.6,163.9,847.6,166.4z M843.4,166.4c0,1.8,0.4,2.6,1.3,2.6c0.9,0,1.3-0.8,1.3-2.6s-0.4-2.6-1.3-2.6
						C843.8,163.8,843.4,164.6,843.4,166.4z"/>
				</g>
				<g>
					<path class="st2" d="M839,139.3v7.5h-1.7v-6.1h-1.5v-1.4H839z"/>
					<path class="st2" d="M844.7,142.1c1.7,0,2.9,0.9,2.9,2.3c0,1.6-1.2,2.6-3,2.6c-1,0-2.1-0.4-2.9-0.9l0.7-1.3
						c0.6,0.6,1.3,0.9,2,0.9c0.9,0,1.4-0.4,1.4-1.1c0-0.6-0.5-1-1.4-1c-0.4,0-1.6,0-2.1,0.1v-4.2h5v1.4h-3.4v1.3h0.8V142.1z"/>
				</g>
				<g>
					<path class="st2" d="M838.8,118.2c0-0.5-0.4-0.8-1-0.8s-1.4,0.4-2.1,0.9L835,117c0.9-0.7,1.9-1.1,3-1.1c1.5,0,2.6,0.8,2.6,1.9
						c0,0.8-0.6,1.6-1.4,2.5l-1.8,1.7h3.5v1.4h-5.7v-1.2l2.8-2.9C838.5,119.1,838.8,118.6,838.8,118.2z"/>
					<path class="st2" d="M847.6,119.9c0,2.5-1,3.8-2.9,3.8s-2.9-1.4-2.9-3.8c0-2.5,1-3.8,2.9-3.8
						C846.5,116,847.6,117.4,847.6,119.9z M843.4,119.9c0,1.8,0.4,2.6,1.3,2.6c0.9,0,1.3-0.8,1.3-2.6c0-1.8-0.4-2.6-1.3-2.6
						S843.4,118.1,843.4,119.9z"/>
				</g>
				<g>
					<path class="st2" d="M838.9,94.9c0-0.5-0.4-0.8-1-0.8s-1.4,0.4-2.1,0.9l-0.7-1.3c0.9-0.7,1.9-1.1,3-1.1c1.5,0,2.6,0.8,2.6,1.9
						c0,0.8-0.6,1.6-1.4,2.5l-1.8,1.7h3.5v1.4h-5.7v-1.2l2.8-2.9C838.5,95.8,838.9,95.3,838.9,94.9z"/>
					<path class="st2" d="M844.7,95.5c1.7,0,2.9,0.9,2.9,2.3c0,1.6-1.2,2.6-3,2.6c-1,0-2.1-0.4-2.9-0.9l0.7-1.3
						c0.6,0.6,1.3,0.9,2,0.9c0.9,0,1.4-0.4,1.4-1.1c0-0.6-0.5-1-1.4-1c-0.4,0-1.6,0-2.1,0.1v-4.2h5v1.4h-3.4v1.3h0.8V95.5z"/>
				</g>
			</g>
		</g>
		<rect x="530.5" y="2.1" class="st0" width="240.8" height="257.2"/>
		<g>
			<circle class="st4" cx="650.9" cy="136.9" r="80.2"/>
			<path class="st5" d="M655.8,211.5c0-2.8-2.1-5.1-4.8-5.5l0,0c-38.1,0-69-30.9-69-69l0,0v-0.1c0-3.1-2.5-5.6-5.6-5.6
				c-3.1,0-5.5,2.5-5.6,5.5l0,0c0,0,0,0,0,0.1l0,0v0.1c0.1,43.8,35.3,79.3,78.9,80c0.2,0,0.4,0,0.6,0c0.1,0,0.1,0,0.2,0
				c0.1,0,0.3,0,0.4,0l0,0C653.7,216.6,655.8,214.3,655.8,211.5z"/>
			<circle class="st0" cx="650.9" cy="137" r="69"/>
			<g>
				<g>
					<path class="st2" d="M630.4,125.2c0-1.3-1-2-2.7-2s-3.7,1-5.5,2.5l-1.7-3.3c2.4-1.8,5.1-2.9,7.8-2.9c3.9,0,6.7,2,6.7,5.1
						c0,2.1-1.6,4.3-3.8,6.5l-4.6,4.5h9v3.7h-14.7v-3.1l7.3-7.5C629.5,127.5,630.4,126.2,630.4,125.2z"/>
					<path class="st2" d="M645.5,126.8c4.5,0,7.5,2.4,7.5,5.9c0,4.1-3.1,6.7-7.8,6.7c-2.5,0-5.5-1-7.6-2.4l1.8-3.5
						c1.6,1.5,3.4,2.3,5.3,2.3c2.3,0,3.6-1.1,3.6-2.9c0-1.7-1.3-2.6-3.6-2.6c-1.1,0-4.1,0.1-5.4,0.2v-10.9h12.9v3.7h-8.9v3.4h2.2
						V126.8z"/>
					<path class="st2" d="M665.9,125.5c0,3.7-2,5.9-5.4,5.9c-3.3,0-5.3-2.2-5.3-5.9c0-3.6,2-5.9,5.3-5.9
						C663.8,119.6,665.9,121.9,665.9,125.5z M657.9,125.5c0,2.2,1,3.5,2.6,3.5c1.7,0,2.6-1.3,2.6-3.5s-1-3.5-2.6-3.5
						C658.9,122,657.9,123.3,657.9,125.5z M677.3,119.7l-14.1,19.6h-4.1l14.2-19.6C673.3,119.7,677.3,119.7,677.3,119.7z
						 M681.4,133.5c0,3.7-2,5.9-5.4,5.9c-3.3,0-5.3-2.2-5.3-5.9c0-3.6,2-5.9,5.3-5.9C679.4,127.6,681.4,129.8,681.4,133.5z
						 M673.5,133.5c0,2.2,1,3.5,2.6,3.5c1.7,0,2.6-1.3,2.6-3.5s-1-3.5-2.6-3.5C674.4,130,673.5,131.3,673.5,133.5z"/>
				</g>
				<g>
					<path class="st2" d="M622.1,146.1v8.4h-1v-8.4H622.1z"/>
					<path class="st2" d="M625.6,146.1l5,6.8v-6.8h0.9v8.4h-1l-5-6.8v6.8h-1v-8.4H625.6z"/>
					<path class="st2" d="M637.8,147c-1.9,0-3.4,1.5-3.4,3.3s1.5,3.3,3.4,3.3c0.9,0,1.8-0.4,2.5-1l0.6,0.6c-0.8,0.8-2,1.3-3.1,1.3
						c-2.4,0-4.3-1.9-4.3-4.2c0-2.4,1.9-4.2,4.4-4.2c1.2,0,2.3,0.5,3.1,1.2l-0.7,0.7C639.6,147.3,638.7,147,637.8,147z"/>
					<path class="st2" d="M648.1,154.5l-1.8-2.7c-0.2,0-0.3,0-0.5,0h-2.2v2.7h-1v-8.4h3.2c2.1,0,3.3,1,3.3,2.8
						c0,1.4-0.7,2.3-1.9,2.7l2,2.9H648.1z M645.8,150.9c1.5,0,2.4-0.7,2.4-2s-0.9-2-2.4-2h-2.2v4H645.8z"/>
					<path class="st2" d="M656.9,146.1v0.9h-4.7v2.8h4.2v0.9h-4.2v2.9h4.9v0.9h-5.9v-8.4L656.9,146.1L656.9,146.1z"/>
					<path class="st2" d="M664.4,152.4h-4.6l-0.9,2.1h-1l3.8-8.4h1l3.8,8.4h-1L664.4,152.4z M664,151.5l-1.9-4.3l-1.9,4.3H664z"/>
					<path class="st2" d="M670,147c-1.1,0-1.8,0.4-1.8,1.2c0,2.2,4.7,1,4.7,4.1c0,1.4-1.2,2.3-3,2.3c-1.2,0-2.4-0.5-3.2-1.3l0.4-0.8
						c0.8,0.7,1.8,1.2,2.8,1.2c1.2,0,2-0.5,2-1.3c0-2.2-4.7-1.1-4.7-4.1c0-1.3,1.2-2.2,2.9-2.2c1,0,2,0.3,2.7,0.8l-0.4,0.9
						C671.6,147.2,670.7,147,670,147z"/>
					<path class="st2" d="M680.6,146.1v0.9h-4.7v2.8h4.2v0.9h-4.2v2.9h4.9v0.9h-5.9v-8.4L680.6,146.1L680.6,146.1z"/>
				</g>
			</g>
		</g>
		<g>
			<rect x="266" y="2.1" class="st0" width="108.6" height="116.8"/>
			<rect x="266" y="142.6" class="st0" width="108.6" height="116.8"/>
			<rect x="398.3" y="2.1" class="st0" width="108.6" height="116.8"/>
			<rect x="398.3" y="142.6" class="st0" width="108.6" height="116.8"/>
			<g>
				<g>
					<path class="st2" d="M288.2,74.3v1.3h-6.6v4.5h5.9v1.3h-5.9v5.4h-1.4V74.3H288.2z"/>
					<path class="st2" d="M298.8,82.2c0,2.8-2,4.8-4.8,4.8s-4.8-2-4.8-4.8s2-4.8,4.8-4.8C296.8,77.4,298.8,79.4,298.8,82.2z
						 M290.5,82.2c0,2.1,1.4,3.6,3.4,3.6s3.4-1.4,3.4-3.6c0-2.1-1.4-3.5-3.4-3.5S290.5,80.1,290.5,82.2z"/>
					<path class="st2" d="M302.7,73.6V87h-1.4V73.6H302.7z"/>
					<path class="st2" d="M307.7,73.6V87h-1.4V73.6H307.7z"/>
					<path class="st2" d="M319.9,82.2c0,2.8-2,4.8-4.8,4.8c-2.8,0-4.8-2-4.8-4.8s2-4.8,4.8-4.8C317.9,77.4,319.9,79.4,319.9,82.2z
						 M311.7,82.2c0,2.1,1.4,3.6,3.4,3.6s3.4-1.4,3.4-3.6c0-2.1-1.4-3.5-3.4-3.5S311.7,80.1,311.7,82.2z"/>
					<path class="st2" d="M321.9,77.5l2.8,8l2.8-8h1.5l2.8,8l2.8-8h1.5l-3.5,9.5h-1.5l-2.8-7.8l-2.8,7.8H324l-3.5-9.5H321.9z"/>
					<path class="st2" d="M345.5,82.7h-7.7c0.2,1.9,1.6,3.1,3.4,3.1c1.2,0,2.2-0.4,2.9-1.2l0.8,0.8c-0.9,1-2.2,1.6-3.8,1.6
						c-2.8,0-4.8-2-4.8-4.8s1.9-4.8,4.7-4.8C344.1,77.4,345.6,79.5,345.5,82.7z M344.2,81.6c-0.1-1.8-1.3-3-3.2-3
						c-1.8,0-3.1,1.2-3.3,3H344.2z"/>
					<path class="st2" d="M352.7,77.4v1.4c-2,0-3.2,1.2-3.4,3.1v5h-1.4v-9.5h1.4v2.1C349.9,78.2,351.1,77.4,352.7,77.4z"/>
					<path class="st2" d="M357,78.6c-1.1,0-1.9,0.4-1.9,1.3c0,2.1,5.3,1,5.3,4.4c0,1.9-1.7,2.7-3.5,2.7c-1.4,0-2.7-0.5-3.6-1.3
						l0.5-1c0.8,0.8,2,1.2,3.2,1.2c1.1,0,2-0.4,2-1.4c0.1-2.3-5.3-1.1-5.2-4.5c0-1.8,1.6-2.6,3.3-2.6c1.1,0,2.2,0.3,3,0.9l-0.5,1.1
						C358.8,78.9,357.9,78.6,357,78.6z"/>
				</g>
				<g>
					<path class="st2" d="M317.8,40.8c0,2.2-1.2,4.2-3.2,5.3c2.8,1.1,4.5,3.5,4.5,6.4c0,4.5-3.9,7.4-9.9,7.4c-6.1,0-10-2.8-10-7.3
						c0-2.9,1.9-5.4,4.8-6.5c-2.2-1.2-3.5-3.2-3.5-5.5c0-4,3.3-6.5,8.6-6.5C314.4,34,317.8,36.6,317.8,40.8z M304.5,51.9
						c0,2.3,1.7,3.6,4.6,3.6s4.6-1.3,4.6-3.6c0-2.2-1.7-3.5-4.6-3.5S304.5,49.7,304.5,51.9z M305.2,41.1c0,1.9,1.4,3.1,3.9,3.1
						s3.9-1.1,3.9-3.1s-1.4-3.1-3.9-3.1S305.2,39.1,305.2,41.1z"/>
					<path class="st2" d="M333.3,38.5c-4.3,0-6.4,3-6.3,7.5c1.3-1.9,3.4-3,6.3-3c4.9,0,8.1,3.2,8.1,8.2c0,5.3-3.6,8.6-9.1,8.6
						c-6.6,0-10.5-4.7-10.5-12.4c0-8.1,4.4-13.3,11.2-13.3c2.7,0,5.8,0.8,7.8,2l-2.1,4.1C337.2,39.1,335.2,38.5,333.3,38.5z
						 M327.8,51.2c0,2,1.3,3.9,4.2,3.9c2.6,0,4.2-1.4,4.2-4c0-2.4-1.5-3.9-4.1-3.9C329.4,47.3,327.7,49,327.8,51.2z"/>
				</g>
			</g>
			<g>
				<g>
					<path class="st2" d="M298.3,214.7v1.3h-7.1v4.2h6.4v1.3h-6.4v4.4h7.3v1.3h-8.8v-12.6h8.6V214.7z"/>
					<path class="st2" d="M305.1,219c-2,0-3.4,1.4-3.4,3.5s1.4,3.5,3.4,3.5c1.2,0,2.3-0.4,2.9-1.2l0.8,0.8c-0.8,1-2.2,1.6-3.8,1.6
						c-2.8,0-4.7-2-4.7-4.8s2-4.8,4.7-4.8c1.5,0,2.8,0.5,3.7,1.4l-0.8,1C307.2,219.4,306.2,219,305.1,219z"/>
					<path class="st2" d="M320.1,221.5v5.8h-1.4v-5.5c0-1.7-1-2.7-2.7-2.7c-2,0-3.2,1.5-3.2,3.5v4.6h-1.4v-13.4h1.4v6
						c0.6-1.5,1.9-2.2,3.7-2.2C318.8,217.8,320.1,219.2,320.1,221.5z"/>
					<path class="st2" d="M331.9,222.5c0,2.8-2,4.8-4.8,4.8c-2.8,0-4.8-2-4.8-4.8s2-4.8,4.8-4.8
						C329.9,217.8,331.9,219.7,331.9,222.5z M323.7,222.6c0,2.1,1.4,3.6,3.4,3.6s3.4-1.4,3.4-3.6c0-2.1-1.4-3.5-3.4-3.5
						C325.1,219,323.7,220.5,323.7,222.6z"/>
					<path class="st2" d="M342.6,223.1h-7.7c0.2,1.9,1.6,3.1,3.4,3.1c1.2,0,2.2-0.4,2.9-1.2l0.8,0.8c-0.9,1-2.2,1.6-3.8,1.6
						c-2.8,0-4.7-2-4.7-4.8s1.9-4.8,4.7-4.8C341.2,217.8,342.7,219.9,342.6,223.1z M341.3,222c-0.1-1.8-1.3-3-3.2-3
						c-1.8,0-3.1,1.2-3.3,3H341.3z"/>
					<path class="st2" d="M347.4,218.9c-1.1,0-1.9,0.4-1.9,1.3c0,2.1,5.3,1,5.3,4.4c0,1.9-1.7,2.7-3.5,2.7c-1.4,0-2.7-0.5-3.6-1.3
						l0.5-1c0.8,0.8,2,1.2,3.2,1.2c1.1,0,2-0.4,2-1.4c0.1-2.3-5.3-1.1-5.2-4.5c0-1.8,1.6-2.6,3.3-2.6c1.1,0,2.2,0.3,3,0.9l-0.5,1.1
						C349.2,219.2,348.3,218.9,347.4,218.9z"/>
				</g>
				<g>
					<path class="st2" d="M318.4,192c0,4.8-3.9,8.1-10.1,8.1c-3.6,0-7.2-1.2-9.6-3l2.3-4.5c2,1.9,4.4,3,6.9,3c3.2,0,5-1.4,5-3.6
						c0-2.3-1.8-3.5-5-3.5h-4v-3.1l6.4-6.2H300v-4.6h17.2v3.4l-7.3,6.8l1.4,0.2C315.5,185.6,318.4,188,318.4,192z"/>
					<path class="st2" d="M334.9,174.6l-7.5,14.9h5.9V184h5.2v5.6h3.4v4.6h-3.5v5.7h-5.2v-5.7h-11.7v-4l8-15.6H334.9z"/>
				</g>
			</g>
			<g>
				<g>
					<path class="st2" d="M415.2,225.8l-2.6-4c-0.3,0-0.5,0-0.8,0h-3.3v4h-1.4v-12.6h4.8c3.2,0,5,1.5,5,4.2c0,2.1-1,3.5-2.8,4.1
						l3,4.3H415.2z M411.7,220.5c2.3,0,3.6-1,3.6-3c0-1.9-1.3-2.9-3.6-2.9h-3.3v5.9H411.7z"/>
					<path class="st2" d="M427.9,221.6h-7.7c0.2,1.9,1.6,3.1,3.4,3.1c1.2,0,2.2-0.4,2.9-1.2l0.8,0.8c-0.9,1-2.2,1.6-3.8,1.6
						c-2.8,0-4.7-2-4.7-4.8s1.9-4.8,4.7-4.8C426.6,216.3,428.1,218.4,427.9,221.6z M426.7,220.5c-0.1-1.8-1.3-3-3.2-3
						c-1.8,0-3.1,1.2-3.3,3H426.7z"/>
					<path class="st2" d="M432.8,217.4c-1.1,0-1.9,0.4-1.9,1.3c0,2.1,5.3,1,5.3,4.4c0,1.9-1.7,2.7-3.5,2.7c-1.4,0-2.7-0.5-3.6-1.3
						l0.5-1c0.8,0.8,2,1.2,3.2,1.2c1.2,0,2-0.4,2-1.4c0.1-2.3-5.3-1.1-5.2-4.5c0-1.8,1.6-2.6,3.3-2.6c1.1,0,2.2,0.3,3,0.9l-0.5,1.1
						C434.6,217.7,433.6,217.4,432.8,217.4z"/>
					<path class="st2" d="M448.2,221.1c0,2.8-1.8,4.8-4.5,4.8c-1.7,0-3-0.8-3.7-2.1v5.5h-1.4v-13h1.4v2c0.7-1.3,2-2.1,3.7-2.1
						C446.3,216.3,448.2,218.2,448.2,221.1z M446.8,221c0-2.1-1.4-3.6-3.4-3.6s-3.4,1.5-3.4,3.6s1.4,3.6,3.4,3.6
						S446.8,223.1,446.8,221z"/>
					<path class="st2" d="M459.3,221c0,2.8-2,4.8-4.8,4.8c-2.8,0-4.8-2-4.8-4.8s2-4.8,4.8-4.8C457.3,216.3,459.3,218.2,459.3,221z
						 M451.1,221.1c0,2.1,1.4,3.6,3.4,3.6s3.4-1.4,3.4-3.6c0-2.1-1.4-3.5-3.4-3.5C452.5,217.5,451.1,219,451.1,221.1z"/>
					<path class="st2" d="M470.5,220v5.8h-1.4v-5.5c0-1.7-1-2.7-2.7-2.7c-1.9,0-3,1.3-3.2,3.1v5.1h-1.4v-9.5h1.4v2.1
						c0.7-1.4,1.9-2.1,3.7-2.1C469.1,216.3,470.5,217.7,470.5,220z"/>
					<path class="st2" d="M476,217.4c-1.1,0-1.9,0.4-1.9,1.3c0,2.1,5.3,1,5.3,4.4c0,1.9-1.7,2.7-3.5,2.7c-1.4,0-2.7-0.5-3.6-1.3
						l0.5-1c0.8,0.8,2,1.2,3.2,1.2c1.1,0,2-0.4,2-1.4c0.1-2.3-5.3-1.1-5.2-4.5c0-1.8,1.6-2.6,3.3-2.6c1.1,0,2.2,0.3,3,0.9l-0.5,1.1
						C477.8,217.7,476.9,217.4,476,217.4z"/>
					<path class="st2" d="M489.9,221.6h-7.7c0.2,1.9,1.6,3.1,3.4,3.1c1.2,0,2.2-0.4,2.9-1.2l0.8,0.8c-0.9,1-2.2,1.6-3.8,1.6
						c-2.8,0-4.7-2-4.7-4.8s1.9-4.8,4.7-4.8C488.5,216.3,490.1,218.4,489.9,221.6z M488.6,220.5c-0.1-1.8-1.3-3-3.2-3
						c-1.8,0-3.1,1.2-3.3,3H488.6z"/>
					<path class="st2" d="M494.8,217.4c-1.1,0-1.9,0.4-1.9,1.3c0,2.1,5.3,1,5.3,4.4c0,1.9-1.7,2.7-3.5,2.7c-1.4,0-2.7-0.5-3.6-1.3
						l0.5-1c0.8,0.8,2,1.2,3.2,1.2c1.2,0,2-0.4,2-1.4c0.1-2.3-5.3-1.1-5.2-4.5c0-1.8,1.6-2.6,3.3-2.6c1.1,0,2.2,0.3,3,0.9l-0.5,1.1
						C496.6,217.7,495.6,217.4,494.8,217.4z"/>
				</g>
				<g>
					<path class="st2" d="M443.5,177.1c-4.3,0-6.4,3-6.3,7.5c1.3-1.9,3.4-3,6.3-3c4.9,0,8.1,3.2,8.1,8.2c0,5.3-3.6,8.6-9.1,8.6
						c-6.6,0-10.5-4.7-10.5-12.4c0-8.1,4.4-13.3,11.2-13.3c2.7,0,5.8,0.8,7.8,2l-2.1,4.1C447.3,177.7,445.4,177.1,443.5,177.1z
						 M437.9,189.9c0,2,1.3,3.9,4.2,3.9c2.6,0,4.2-1.4,4.2-4c0-2.4-1.5-3.9-4.1-3.9C439.5,185.9,437.9,187.7,437.9,189.9z"/>
					<path class="st2" d="M466.4,180.1c0-1.6-1.3-2.6-3.5-2.6c-2.2,0-4.8,1.2-7,3.2l-2.2-4.2c3.1-2.3,6.5-3.7,10.1-3.7
						c5,0,8.6,2.6,8.6,6.5c0,2.7-2.1,5.5-4.8,8.4l-5.9,5.8h11.6v4.8h-19v-3.9l9.3-9.6C465.2,183,466.4,181.3,466.4,180.1z"/>
				</g>
			</g>
			<g>
				<g>
					<path class="st2" d="M419.4,72.6v1.3h-6.6v4.5h5.9v1.3h-5.9v5.4h-1.4V72.6H419.4z"/>
					<path class="st2" d="M430,80.5c0,2.8-2,4.8-4.8,4.8c-2.8,0-4.8-2-4.8-4.8s2-4.8,4.8-4.8C428,75.7,430,77.7,430,80.5z
						 M421.8,80.5c0,2.1,1.4,3.6,3.4,3.6s3.4-1.4,3.4-3.6c0-2.1-1.4-3.5-3.4-3.5C423.2,76.9,421.8,78.4,421.8,80.5z"/>
					<path class="st2" d="M433.9,71.9v13.4h-1.4V71.9H433.9z"/>
					<path class="st2" d="M439,71.9v13.4h-1.4V71.9H439z"/>
					<path class="st2" d="M451.1,80.5c0,2.8-2,4.8-4.8,4.8c-2.8,0-4.8-2-4.8-4.8s2-4.8,4.8-4.8C449.1,75.7,451.1,77.7,451.1,80.5z
						 M442.9,80.5c0,2.1,1.4,3.6,3.4,3.6s3.4-1.4,3.4-3.6c0-2.1-1.4-3.5-3.4-3.5C444.3,76.9,442.9,78.4,442.9,80.5z"/>
					<path class="st2" d="M453.1,75.8l2.8,8l2.8-8h1.5l2.8,8l2.8-8h1.5l-3.5,9.5h-1.5l-2.8-7.8l-2.8,7.8h-1.5l-3.5-9.5H453.1z"/>
					<path class="st2" d="M470.4,73c0,0.5-0.4,1-0.9,1s-0.9-0.4-0.9-1s0.4-1,0.9-1C470,72.1,470.4,72.5,470.4,73z M470.2,75.8v9.5
						h-1.4v-9.5H470.2z"/>
					<path class="st2" d="M482.3,79.4v5.8h-1.4v-5.5c0-1.7-1-2.7-2.7-2.7c-1.9,0-3,1.3-3.2,3.1v5.1h-1.4v-9.5h1.4v2.1
						c0.7-1.4,1.9-2.1,3.7-2.1C481,75.7,482.3,77.1,482.3,79.4z"/>
					<path class="st2" d="M493.7,75.8v8.5c0,2.8-1.9,4.5-4.8,4.5c-1.5,0-2.7-0.5-3.9-1.4l0.6-1c0.9,0.8,1.9,1.2,3.2,1.2
						c2.1,0,3.4-1.3,3.4-3.3v-1.4c-0.7,1.3-1.9,2-3.5,2c-2.6,0-4.3-1.9-4.3-4.6s1.7-4.5,4.3-4.5c1.6,0,2.8,0.7,3.5,2v-1.9
						L493.7,75.8L493.7,75.8z M492.3,80.3c0-2-1.4-3.4-3.2-3.4c-1.9,0-3.2,1.4-3.3,3.4c0,2,1.4,3.4,3.3,3.4
						C491,83.7,492.3,82.2,492.3,80.3z"/>
				</g>
				<g>
					<path class="st2" d="M441.3,41.5c5.8,0,9.6,3.1,9.6,7.6c0,5.2-4,8.6-10.1,8.6c-3.3,0-7.1-1.2-9.7-3.1l2.3-4.5
						c2,1.9,4.4,3,6.8,3c3,0,4.6-1.4,4.6-3.7c0-2.1-1.7-3.4-4.6-3.4c-1.4,0-5.3,0.1-7,0.2v-14h16.6V37h-11.3v4.4L441.3,41.5
						L441.3,41.5z"/>
					<path class="st2" d="M467,32.3l-7.5,14.9h5.9v-5.6h5.2v5.6h3.4v4.6h-3.5v5.7h-5.2v-5.7h-11.8v-4l8-15.6h5.5V32.3z"/>
				</g>
			</g>
		</g>
		<g>
			<path class="st2" d="M553,18.8l3.8,13.7l3.8-13.7h4l3.8,13.7l3.8-13.7h4.2l-6,18.2h-4.2l-3.7-13l-3.7,13h-4.2l-6-18.2H553z"/>
			<path class="st2" d="M589.5,31.3h-10c0.5,1.8,1.8,2.8,3.6,2.8c1.3,0,2.6-0.5,3.5-1.5l2.1,2.1c-1.4,1.6-3.5,2.5-6,2.5
				c-4.5,0-7.3-2.9-7.3-7.1c0-4.3,2.9-7.2,7.2-7.2C587.5,22.9,589.8,26.2,589.5,31.3z M585.8,28.9c-0.1-1.8-1.2-3-3.1-3
				c-1.8,0-3,1.2-3.3,3H585.8z"/>
			<path class="st2" d="M605,31.3h-10c0.5,1.8,1.8,2.8,3.6,2.8c1.3,0,2.6-0.5,3.5-1.5l2.1,2.1c-1.4,1.6-3.5,2.5-6,2.5
				c-4.5,0-7.3-2.9-7.3-7.1c0-4.3,2.9-7.2,7.2-7.2C603.1,22.9,605.4,26.2,605,31.3z M601.3,28.9c-0.1-1.8-1.2-3-3.1-3
				c-1.8,0-3,1.2-3.3,3H601.3z"/>
			<path class="st2" d="M613.6,31.4l-1.8,1.9V37h-4V17.8h4v10.6l5.1-5.3h4.5l-5.1,5.4l5.4,8.6H617L613.6,31.4z"/>
			<path class="st2" d="M627.9,17.8V37h-4V17.8H627.9z"/>
			<path class="st2" d="M633.6,42.3c-1.5,0-2.7-0.4-3.8-1.4l1.7-2.9c0.6,0.5,1.2,0.8,1.8,0.8c0.8,0,1.5-0.4,1.8-1.2l0.4-0.8
				l-5.8-13.7h4.1l3.7,9.6l3.3-9.6h4l-6.1,15.5C637.7,41.1,636,42.3,633.6,42.3z"/>
			<path class="st2" d="M666.5,33.5h-8.4l-1.4,3.5h-4.2l7.9-18.2h4.2l7.7,18.2h-4.4L666.5,33.5z M665.1,30.2l-2.9-7.1l-2.9,7.1
				H665.1z"/>
			<path class="st2" d="M679.6,26.3c-2,0-3.3,1.5-3.3,3.7c0,2.3,1.4,3.8,3.3,3.8c1.4,0,2.5-0.5,3.2-1.6l2.8,1.9
				c-1.2,2-3.4,3.1-6.2,3.1c-4.2,0-7.1-2.9-7.1-7.1c0-4.3,2.9-7.2,7.2-7.2c2.7,0,4.8,1.1,6.1,2.9l-2.7,1.9
				C682.1,26.9,681,26.3,679.6,26.3z"/>
			<path class="st2" d="M696.8,36.3c-1,0.6-2.3,1-3.6,1c-2.5,0-4.4-1.4-4.4-4.3v-6.5h-2v-2.8h2v-3.8h4v3.8h3.8v2.8h-3.8v5.8
				c0,1.2,0.5,1.6,1.4,1.6c0.5,0,1.1-0.2,1.9-0.5L696.8,36.3z"/>
			<path class="st2" d="M703.2,23.1v14h-4v-14C699.2,23.1,703.2,23.1,703.2,23.1z M703.1,19.1c0,1.1-0.8,2-2,2c-1.1,0-2-0.9-2-2
				c0-1.2,0.8-2,2-2S703.1,17.9,703.1,19.1z"/>
			<path class="st2" d="M709.2,23.1l3.3,10.2l3.3-10.2h4l-5.3,14h-4.2l-5.3-14L709.2,23.1z"/>
			<path class="st2" d="M725.5,23.1v14h-4v-14C721.5,23.1,725.5,23.1,725.5,23.1z M725.4,19.1c0,1.1-0.8,2-2,2c-1.1,0-1.9-0.9-1.9-2
				c0-1.2,0.8-2,1.9-2C724.6,17.1,725.4,17.9,725.4,19.1z"/>
			<path class="st2" d="M738,36.3c-1,0.6-2.3,1-3.6,1c-2.5,0-4.4-1.4-4.4-4.3v-6.5h-2v-2.8h2v-3.8h4v3.8h3.8v2.8H734v5.8
				c0,1.2,0.5,1.6,1.4,1.6c0.5,0,1.1-0.2,1.9-0.5L738,36.3z"/>
			<path class="st2" d="M742.1,42.3c-1.5,0-2.7-0.4-3.8-1.4L740,38c0.6,0.5,1.2,0.8,1.8,0.8c0.8,0,1.5-0.4,1.8-1.2l0.4-0.8
				l-5.8-13.7h4.1l3.7,9.6l3.3-9.6h4l-6.1,15.5C746.2,41.1,744.5,42.3,742.1,42.3z"/>
		</g>
		<g>
			<path class="st2" d="M852.3,27.9c0,5.4-4,9.1-9.7,9.1H835V18.8h7.7C848.4,18.8,852.3,22.6,852.3,27.9z M848.1,28
				c0-3.4-2.3-5.7-5.5-5.7h-3.5v11.3h3.7C845.9,33.6,848.1,31.3,848.1,28z"/>
			<path class="st2" d="M863,37v-1.6c-0.9,1.2-2.4,1.8-4.4,1.8c-3,0-4.8-1.8-4.8-4.4s1.9-4.2,5.3-4.2h3.8v-0.3c0-1.5-1-2.3-2.9-2.3
				c-1.2,0-2.7,0.4-4.2,1.2l-1.2-2.8c2.1-1,3.9-1.6,6.3-1.6c3.7,0,5.9,1.9,5.9,5v9.1L863,37L863,37z M863,32.3V31h-3.1
				c-1.5,0-2.3,0.5-2.3,1.6s0.8,1.8,2.2,1.8C861.4,34.4,862.8,33.5,863,32.3z"/>
			<path class="st2" d="M874.4,23.1v14h-4v-14C870.4,23.1,874.4,23.1,874.4,23.1z M874.4,19.1c0,1.1-0.8,2-2,2c-1.1,0-1.9-0.9-1.9-2
				c0-1.2,0.8-2,1.9-2C873.6,17.1,874.4,17.9,874.4,19.1z"/>
			<path class="st2" d="M882.4,17.8V37h-4V17.8H882.4z"/>
			<path class="st2" d="M888.1,42.3c-1.5,0-2.7-0.4-3.8-1.4L886,38c0.6,0.5,1.2,0.8,1.8,0.8c0.8,0,1.5-0.4,1.8-1.2l0.4-0.8
				l-5.8-13.7h4.1l3.7,9.6l3.3-9.6h4l-6.1,15.5C892.2,41.1,890.5,42.3,888.1,42.3z"/>
			<path class="st2" d="M921,33.5h-8.4l-1.4,3.5H907l7.9-18.2h4.2l7.8,18.2h-4.4L921,33.5z M919.6,30.2l-2.9-7.1l-2.9,7.1H919.6z"/>
			<path class="st2" d="M934.1,26.3c-2,0-3.3,1.5-3.3,3.7c0,2.3,1.4,3.8,3.3,3.8c1.4,0,2.5-0.5,3.2-1.6l2.8,1.9
				c-1.2,2-3.4,3.1-6.2,3.1c-4.2,0-7.1-2.9-7.1-7.1c0-4.3,2.9-7.2,7.2-7.2c2.7,0,4.8,1.1,6.1,2.9l-2.7,1.9
				C936.6,26.9,935.5,26.3,934.1,26.3z"/>
			<path class="st2" d="M951.3,36.3c-1,0.6-2.3,1-3.6,1c-2.5,0-4.4-1.4-4.4-4.3v-6.5h-2v-2.8h2v-3.8h4v3.8h3.8v2.8h-3.8v5.8
				c0,1.2,0.5,1.6,1.4,1.6c0.5,0,1.1-0.2,1.9-0.5L951.3,36.3z"/>
			<path class="st2" d="M957.7,23.1v14h-4v-14C953.7,23.1,957.7,23.1,957.7,23.1z M957.6,19.1c0,1.1-0.8,2-2,2c-1.1,0-2-0.9-2-2
				c0-1.2,0.8-2,2-2S957.6,17.9,957.6,19.1z"/>
			<path class="st2" d="M963.7,23.1l3.3,10.2l3.3-10.2h4l-5.3,14h-4.1l-5.3-14L963.7,23.1z"/>
			<path class="st2" d="M980,23.1v14h-4v-14C976,23.1,980,23.1,980,23.1z M980,19.1c0,1.1-0.8,2-2,2c-1.1,0-1.9-0.9-1.9-2
				c0-1.2,0.8-2,1.9-2C979.1,17.1,980,17.9,980,19.1z"/>
			<path class="st2" d="M992.5,36.3c-1,0.6-2.3,1-3.6,1c-2.5,0-4.4-1.4-4.4-4.3v-6.5h-2v-2.8h2v-3.8h4v3.8h3.8v2.8h-3.8v5.8
				c0,1.2,0.5,1.6,1.4,1.6c0.5,0,1.1-0.2,1.9-0.5L992.5,36.3z"/>
			<path class="st2" d="M996.6,42.3c-1.5,0-2.7-0.4-3.8-1.4l1.7-2.9c0.6,0.5,1.2,0.8,1.8,0.8c0.8,0,1.5-0.4,1.8-1.2l0.4-0.8
				l-5.8-13.7h4.1l3.7,9.6l3.3-9.6h4l-6.1,15.5C1000.7,41.1,999,42.3,996.6,42.3z"/>
		</g>
	</g>
	<rect x="1.4" y="2.1" class="st6" width="240.8" height="257.2"/>
</g>
</svg>
