<?xml version="1.0" encoding="utf-8"?>
<!-- Generator: Adobe Illustrator 19.2.1, SVG Export Plug-In . SVG Version: 6.00 Build 0)  -->
<svg version="1.1" id="Layer_1" xmlns="http://www.w3.org/2000/svg" xmlns:xlink="http://www.w3.org/1999/xlink" x="0px" y="0px"
	 viewBox="0 0 952 261" style="enable-background:new 0 0 952 261;" xml:space="preserve">
<style type="text/css">
	.st0{fill:#292C38;}
	.st1{fill:#FFFFFF;}
	.st2{fill:#313642;}
	.st3{fill:#FFCA0F;}
	.st4{fill:#313642;stroke:#313642;stroke-miterlimit:10;}
	.st5{fill:#FFCA0F;stroke:#FFCA0F;stroke-miterlimit:10;}
	.st6{fill:#282C37;}
</style>
<g>
	<g>
		<rect x="265.7" y="1.8" class="st0" width="108.6" height="116.8"/>
		<rect x="265.7" y="142.3" class="st0" width="108.6" height="116.8"/>
		<rect x="398" y="1.8" class="st0" width="108.6" height="116.8"/>
		<rect x="398" y="142.3" class="st0" width="108.6" height="116.8"/>
		<g>
			<g>
				<path class="st1" d="M287.9,74v1.3h-6.6v4.5h5.9v1.3h-5.9v5.4h-1.4V74H287.9z"/>
				<path class="st1" d="M298.5,81.9c0,2.8-2,4.8-4.8,4.8c-2.8,0-4.8-2-4.8-4.8s2-4.8,4.8-4.8C296.5,77.1,298.5,79.1,298.5,81.9z
					 M290.2,81.9c0,2.1,1.4,3.6,3.4,3.6s3.4-1.4,3.4-3.6c0-2.1-1.4-3.5-3.4-3.5S290.2,79.8,290.2,81.9z"/>
				<path class="st1" d="M302.4,73.3v13.4H301V73.3H302.4z"/>
				<path class="st1" d="M307.4,73.3v13.4H306V73.3H307.4z"/>
				<path class="st1" d="M319.6,81.9c0,2.8-2,4.8-4.8,4.8s-4.8-2-4.8-4.8s2-4.8,4.8-4.8C317.6,77.1,319.6,79.1,319.6,81.9z
					 M311.4,81.9c0,2.1,1.4,3.6,3.4,3.6s3.4-1.4,3.4-3.6c0-2.1-1.4-3.5-3.4-3.5S311.4,79.8,311.4,81.9z"/>
				<path class="st1" d="M321.6,77.2l2.8,8l2.8-8h1.5l2.8,8l2.8-8h1.5l-3.5,9.5h-1.5l-2.8-7.8l-2.8,7.8h-1.5l-3.5-9.5H321.6z"/>
				<path class="st1" d="M345.2,82.4h-7.7c0.2,1.9,1.6,3.1,3.4,3.1c1.2,0,2.2-0.4,2.9-1.2l0.8,0.8c-0.9,1-2.2,1.6-3.8,1.6
					c-2.8,0-4.8-2-4.8-4.8s1.9-4.8,4.7-4.8C343.8,77.1,345.3,79.2,345.2,82.4z M343.9,81.3c-0.1-1.8-1.3-3-3.2-3
					c-1.8,0-3.1,1.2-3.3,3H343.9z"/>
				<path class="st1" d="M352.4,77.1v1.4c-2,0-3.2,1.2-3.4,3.1v5h-1.4v-9.5h1.4v2.1C349.6,77.9,350.8,77.1,352.4,77.1z"/>
				<path class="st1" d="M356.7,78.3c-1.1,0-1.9,0.4-1.9,1.3c0,2.1,5.3,1,5.3,4.4c0,1.9-1.7,2.7-3.5,2.7c-1.4,0-2.7-0.5-3.6-1.3
					l0.5-1c0.8,0.8,2,1.2,3.2,1.2c1.1,0,2-0.4,2-1.4c0.1-2.3-5.3-1.1-5.2-4.5c0-1.8,1.6-2.6,3.3-2.6c1.1,0,2.2,0.3,3,0.9l-0.5,1.1
					C358.5,78.6,357.6,78.3,356.7,78.3z"/>
			</g>
			<g>
				<path class="st1" d="M317.5,40.5c0,2.2-1.2,4.2-3.2,5.3c2.8,1.1,4.5,3.5,4.5,6.4c0,4.5-3.9,7.4-9.9,7.4c-6.1,0-10-2.8-10-7.3
					c0-2.9,1.9-5.4,4.8-6.5c-2.2-1.2-3.5-3.2-3.5-5.5c0-4,3.3-6.5,8.6-6.5C314.1,33.7,317.5,36.3,317.5,40.5z M304.2,51.6
					c0,2.3,1.7,3.6,4.6,3.6s4.6-1.3,4.6-3.6c0-2.2-1.7-3.5-4.6-3.5S304.2,49.4,304.2,51.6z M304.9,40.8c0,1.9,1.4,3.1,3.9,3.1
					s3.9-1.1,3.9-3.1s-1.4-3.1-3.9-3.1S304.9,38.8,304.9,40.8z"/>
				<path class="st1" d="M333,38.2c-4.3,0-6.4,3-6.3,7.5c1.3-1.9,3.4-3,6.3-3c4.9,0,8.1,3.2,8.1,8.2c0,5.3-3.6,8.6-9.1,8.6
					c-6.6,0-10.5-4.7-10.5-12.4c0-8.1,4.4-13.3,11.2-13.3c2.7,0,5.8,0.8,7.8,2l-2.1,4.1C336.9,38.8,334.9,38.2,333,38.2z
					 M327.5,50.9c0,2,1.3,3.9,4.2,3.9c2.6,0,4.2-1.4,4.2-4c0-2.4-1.5-3.9-4.1-3.9C329.1,47,327.4,48.7,327.5,50.9z"/>
			</g>
		</g>
		<g>
			<g>
				<path class="st1" d="M298,214.4v1.3h-7.1v4.2h6.4v1.3h-6.4v4.4h7.3v1.3h-8.8v-12.6h8.6V214.4z"/>
				<path class="st1" d="M304.8,218.7c-2,0-3.4,1.4-3.4,3.5s1.4,3.5,3.4,3.5c1.2,0,2.3-0.4,2.9-1.2l0.8,0.8c-0.8,1-2.2,1.6-3.8,1.6
					c-2.8,0-4.7-2-4.7-4.8s2-4.8,4.7-4.8c1.5,0,2.8,0.5,3.7,1.4l-0.8,1C306.9,219.1,305.9,218.7,304.8,218.7z"/>
				<path class="st1" d="M319.8,221.2v5.8h-1.4v-5.5c0-1.7-1-2.7-2.7-2.7c-2,0-3.2,1.5-3.2,3.5v4.6h-1.4v-13.4h1.4v6
					c0.6-1.5,1.9-2.2,3.7-2.2C318.5,217.5,319.8,218.9,319.8,221.2z"/>
				<path class="st1" d="M331.6,222.2c0,2.8-2,4.8-4.8,4.8s-4.8-2-4.8-4.8s2-4.8,4.8-4.8C329.6,217.5,331.6,219.4,331.6,222.2z
					 M323.4,222.3c0,2.1,1.4,3.6,3.4,3.6s3.4-1.4,3.4-3.6c0-2.1-1.4-3.5-3.4-3.5C324.8,218.7,323.4,220.2,323.4,222.3z"/>
				<path class="st1" d="M342.3,222.8h-7.7c0.2,1.9,1.6,3.1,3.4,3.1c1.2,0,2.2-0.4,2.9-1.2l0.8,0.8c-0.9,1-2.2,1.6-3.8,1.6
					c-2.8,0-4.7-2-4.7-4.8s1.9-4.8,4.7-4.8C340.9,217.5,342.4,219.6,342.3,222.8z M341,221.7c-0.1-1.8-1.3-3-3.2-3
					c-1.8,0-3.1,1.2-3.3,3H341z"/>
				<path class="st1" d="M347.1,218.6c-1.1,0-1.9,0.4-1.9,1.3c0,2.1,5.3,1,5.3,4.4c0,1.9-1.7,2.7-3.5,2.7c-1.4,0-2.7-0.5-3.6-1.3
					l0.5-1c0.8,0.8,2,1.2,3.2,1.2c1.1,0,2-0.4,2-1.4c0.1-2.3-5.3-1.1-5.2-4.5c0-1.8,1.6-2.6,3.3-2.6c1.1,0,2.2,0.3,3,0.9l-0.5,1.1
					C348.9,218.9,348,218.6,347.1,218.6z"/>
			</g>
			<g>
				<path class="st1" d="M318.1,191.7c0,4.8-3.9,8.1-10.1,8.1c-3.6,0-7.2-1.2-9.6-3l2.3-4.5c2,1.9,4.4,3,6.9,3c3.2,0,5-1.4,5-3.6
					c0-2.3-1.8-3.5-5-3.5h-4v-3.1l6.4-6.2h-10.3v-4.6h17.2v3.4l-7.3,6.8l1.4,0.2C315.2,185.3,318.1,187.7,318.1,191.7z"/>
				<path class="st1" d="M334.6,174.3l-7.5,14.9h5.9v-5.5h5.2v5.6h3.4v4.6h-3.5v5.7h-5.2v-5.7h-11.7v-4l8-15.6H334.6z"/>
			</g>
		</g>
		<g>
			<g>
				<path class="st1" d="M414.9,225.5l-2.6-4c-0.3,0-0.5,0-0.8,0h-3.3v4h-1.4v-12.6h4.8c3.2,0,5,1.5,5,4.2c0,2.1-1,3.5-2.8,4.1
					l3,4.3H414.9z M411.4,220.2c2.3,0,3.6-1,3.6-3c0-1.9-1.3-2.9-3.6-2.9h-3.3v5.9H411.4z"/>
				<path class="st1" d="M427.6,221.3h-7.7c0.2,1.9,1.6,3.1,3.4,3.1c1.2,0,2.2-0.4,2.9-1.2l0.8,0.8c-0.9,1-2.2,1.6-3.8,1.6
					c-2.8,0-4.7-2-4.7-4.8s1.9-4.8,4.7-4.8C426.3,216,427.8,218.1,427.6,221.3z M426.4,220.2c-0.1-1.8-1.3-3-3.2-3
					c-1.8,0-3.1,1.2-3.3,3H426.4z"/>
				<path class="st1" d="M432.5,217.1c-1.1,0-1.9,0.4-1.9,1.3c0,2.1,5.3,1,5.3,4.4c0,1.9-1.7,2.7-3.5,2.7c-1.4,0-2.7-0.5-3.6-1.3
					l0.5-1c0.8,0.8,2,1.2,3.2,1.2c1.2,0,2-0.4,2-1.4c0.1-2.3-5.3-1.1-5.2-4.5c0-1.8,1.6-2.6,3.3-2.6c1.1,0,2.2,0.3,3,0.9l-0.5,1.1
					C434.3,217.4,433.3,217.1,432.5,217.1z"/>
				<path class="st1" d="M447.9,220.8c0,2.8-1.8,4.8-4.5,4.8c-1.7,0-3-0.8-3.7-2.1v5.5h-1.4v-13h1.4v2c0.7-1.3,2-2.1,3.7-2.1
					C446,216,447.9,217.9,447.9,220.8z M446.5,220.7c0-2.1-1.4-3.6-3.4-3.6s-3.4,1.5-3.4,3.6s1.4,3.6,3.4,3.6
					S446.5,222.8,446.5,220.7z"/>
				<path class="st1" d="M459,220.7c0,2.8-2,4.8-4.8,4.8c-2.8,0-4.8-2-4.8-4.8s2-4.8,4.8-4.8C457,216,459,217.9,459,220.7z
					 M450.8,220.8c0,2.1,1.4,3.6,3.4,3.6s3.4-1.4,3.4-3.6c0-2.1-1.4-3.5-3.4-3.5C452.2,217.2,450.8,218.7,450.8,220.8z"/>
				<path class="st1" d="M470.2,219.7v5.8h-1.4V220c0-1.7-1-2.7-2.7-2.7c-1.9,0-3,1.3-3.2,3.1v5.1h-1.4v-9.5h1.4v2.1
					c0.7-1.4,1.9-2.1,3.7-2.1C468.8,216,470.2,217.4,470.2,219.7z"/>
				<path class="st1" d="M475.7,217.1c-1.1,0-1.9,0.4-1.9,1.3c0,2.1,5.3,1,5.3,4.4c0,1.9-1.7,2.7-3.5,2.7c-1.4,0-2.7-0.5-3.6-1.3
					l0.5-1c0.8,0.8,2,1.2,3.2,1.2c1.1,0,2-0.4,2-1.4c0.1-2.3-5.3-1.1-5.2-4.5c0-1.8,1.6-2.6,3.3-2.6c1.1,0,2.2,0.3,3,0.9l-0.5,1.1
					C477.5,217.4,476.6,217.1,475.7,217.1z"/>
				<path class="st1" d="M489.6,221.3h-7.7c0.2,1.9,1.6,3.1,3.4,3.1c1.2,0,2.2-0.4,2.9-1.2l0.8,0.8c-0.9,1-2.2,1.6-3.8,1.6
					c-2.8,0-4.7-2-4.7-4.8s1.9-4.8,4.7-4.8C488.2,216,489.8,218.1,489.6,221.3z M488.3,220.2c-0.1-1.8-1.3-3-3.2-3
					c-1.8,0-3.1,1.2-3.3,3H488.3z"/>
				<path class="st1" d="M494.5,217.1c-1.1,0-1.9,0.4-1.9,1.3c0,2.1,5.3,1,5.3,4.4c0,1.9-1.7,2.7-3.5,2.7c-1.4,0-2.7-0.5-3.6-1.3
					l0.5-1c0.8,0.8,2,1.2,3.2,1.2c1.2,0,2-0.4,2-1.4c0.1-2.3-5.3-1.1-5.2-4.5c0-1.8,1.6-2.6,3.3-2.6c1.1,0,2.2,0.3,3,0.9l-0.5,1.1
					C496.3,217.4,495.3,217.1,494.5,217.1z"/>
			</g>
			<g>
				<path class="st1" d="M443.2,176.8c-4.3,0-6.4,3-6.3,7.5c1.3-1.9,3.4-3,6.3-3c4.9,0,8.1,3.2,8.1,8.2c0,5.3-3.6,8.6-9.1,8.6
					c-6.6,0-10.5-4.7-10.5-12.4c0-8.1,4.4-13.3,11.2-13.3c2.7,0,5.8,0.8,7.8,2l-2.1,4.1C447,177.4,445.1,176.8,443.2,176.8z
					 M437.6,189.6c0,2,1.3,3.9,4.2,3.9c2.6,0,4.2-1.4,4.2-4c0-2.4-1.5-3.9-4.1-3.9C439.2,185.6,437.6,187.4,437.6,189.6z"/>
				<path class="st1" d="M466.1,179.8c0-1.6-1.3-2.6-3.5-2.6c-2.2,0-4.8,1.2-7,3.2l-2.2-4.2c3.1-2.3,6.5-3.7,10.1-3.7
					c5,0,8.6,2.6,8.6,6.5c0,2.7-2.1,5.5-4.8,8.4l-5.9,5.8H473v4.8h-19v-3.9l9.3-9.6C464.9,182.7,466.1,181,466.1,179.8z"/>
			</g>
		</g>
		<g>
			<g>
				<path class="st1" d="M419.1,72.3v1.3h-6.6v4.5h5.9v1.3h-5.9v5.4h-1.4V72.3H419.1z"/>
				<path class="st1" d="M429.7,80.2c0,2.8-2,4.8-4.8,4.8c-2.8,0-4.8-2-4.8-4.8s2-4.8,4.8-4.8C427.7,75.4,429.7,77.4,429.7,80.2z
					 M421.5,80.2c0,2.1,1.4,3.6,3.4,3.6s3.4-1.4,3.4-3.6c0-2.1-1.4-3.5-3.4-3.5C422.9,76.6,421.5,78.1,421.5,80.2z"/>
				<path class="st1" d="M433.6,71.6V85h-1.4V71.6H433.6z"/>
				<path class="st1" d="M438.7,71.6V85h-1.4V71.6H438.7z"/>
				<path class="st1" d="M450.8,80.2c0,2.8-2,4.8-4.8,4.8c-2.8,0-4.8-2-4.8-4.8s2-4.8,4.8-4.8C448.8,75.4,450.8,77.4,450.8,80.2z
					 M442.6,80.2c0,2.1,1.4,3.6,3.4,3.6s3.4-1.4,3.4-3.6c0-2.1-1.4-3.5-3.4-3.5C444,76.6,442.6,78.1,442.6,80.2z"/>
				<path class="st1" d="M452.8,75.5l2.8,8l2.8-8h1.5l2.8,8l2.8-8h1.5l-3.5,9.5H462l-2.8-7.8l-2.8,7.8h-1.5l-3.5-9.5H452.8z"/>
				<path class="st1" d="M470.1,72.7c0,0.5-0.4,1-0.9,1s-0.9-0.4-0.9-1s0.4-1,0.9-1C469.7,71.8,470.1,72.2,470.1,72.7z M469.9,75.5
					V85h-1.4v-9.5H469.9z"/>
				<path class="st1" d="M482,79.1v5.8h-1.4v-5.5c0-1.7-1-2.7-2.7-2.7c-1.9,0-3,1.3-3.2,3.1v5.1h-1.4v-9.5h1.4v2.1
					c0.7-1.4,1.9-2.1,3.7-2.1C480.7,75.4,482,76.8,482,79.1z"/>
				<path class="st1" d="M493.4,75.5V84c0,2.8-1.9,4.5-4.8,4.5c-1.5,0-2.7-0.5-3.9-1.4l0.6-1c0.9,0.8,1.9,1.2,3.2,1.2
					c2.1,0,3.4-1.3,3.4-3.3v-1.4c-0.7,1.3-1.9,2-3.5,2c-2.6,0-4.3-1.9-4.3-4.6s1.7-4.5,4.3-4.5c1.6,0,2.8,0.7,3.5,2v-1.9L493.4,75.5
					L493.4,75.5z M492,80c0-2-1.4-3.4-3.2-3.4c-1.9,0-3.2,1.4-3.3,3.4c0,2,1.4,3.4,3.3,3.4C490.7,83.4,492,81.9,492,80z"/>
			</g>
			<g>
				<path class="st1" d="M441,41.2c5.8,0,9.6,3.1,9.6,7.6c0,5.2-4,8.6-10.1,8.6c-3.3,0-7.1-1.2-9.7-3.1l2.3-4.5c2,1.9,4.4,3,6.8,3
					c3,0,4.6-1.4,4.6-3.7c0-2.1-1.7-3.4-4.6-3.4c-1.4,0-5.3,0.1-7,0.2v-14h16.6v4.8h-11.3v4.4L441,41.2L441,41.2z"/>
				<path class="st1" d="M466.7,32l-7.5,14.9h5.9v-5.6h5.2v5.6h3.4v4.6h-3.5v5.7H465v-5.7h-11.8v-4l8-15.6h5.5V32z"/>
			</g>
		</g>
	</g>
	<g>
		<rect x="530.3" y="1.9" class="st0" width="420.5" height="257.2"/>
		<g>
			<path class="st2" d="M908.7,16.8H772.4c-1.1,0-2,0.9-2,2v47.3c0,1.1,0.9,2,2,2h120.8l17.5,9.9V66.1V60V18.8
				C910.7,17.7,909.8,16.8,908.7,16.8z"/>
			<g>
				<path class="st1" d="M799.3,33.3c-0.7,0-1.1,0.3-1.1,0.7c0,1.5,3.8,0.7,3.8,3.2c0,1.2-1.1,2-2.6,2c-1.1,0-2.1-0.4-2.9-1.1l0.5-1
					c0.7,0.7,1.6,1,2.4,1c0.8,0,1.3-0.3,1.3-0.8c0-1.6-3.8-0.7-3.8-3.2c0-1.2,1-1.9,2.5-1.9c0.9,0,1.8,0.3,2.4,0.7l-0.5,1
					C800.5,33.5,799.8,33.3,799.3,33.3z"/>
				<path class="st1" d="M806.4,39.2v-0.6c-0.4,0.5-1,0.7-1.8,0.7c-1.1,0-1.9-0.7-1.9-1.6c0-1,0.7-1.6,2-1.6h1.6v-0.2
					c0-0.7-0.4-1.1-1.3-1.1c-0.5,0-1,0.2-1.6,0.5l-0.5-0.8c0.7-0.4,1.3-0.7,2.3-0.7c1.4,0,2.1,0.7,2.1,1.9v3.5
					C807.3,39.2,806.4,39.2,806.4,39.2z M806.4,37.4v-0.5H805c-0.8,0-1.1,0.2-1.1,0.7s0.4,0.8,1,0.8C805.7,38.4,806.3,38,806.4,37.4
					z"/>
				<path class="st1" d="M812.1,38.9c-0.4,0.2-0.9,0.4-1.3,0.4c-0.8,0-1.5-0.5-1.5-1.5V35h-0.8v-0.9h0.8v-1.5h1.1v1.5h1.6V35h-1.6
					v2.5c0,0.5,0.2,0.7,0.6,0.7c0.2,0,0.5-0.1,0.8-0.2L812.1,38.9z"/>
				<path class="st1" d="M818,33.9v5.3h-1.1v-1c-0.4,0.7-1,1.1-1.9,1.1c-1.2,0-1.9-0.8-1.9-2V34h1.1v3c0,0.8,0.5,1.3,1.2,1.3
					c0.9,0,1.5-0.7,1.5-1.7V34L818,33.9L818,33.9z"/>
				<path class="st1" d="M822.6,33.9V35c-1.1-0.1-1.7,0.6-1.8,1.5v2.8h-1.1V34h1.1v1.1C821.2,34.3,821.8,33.9,822.6,33.9z"/>
				<path class="st1" d="M828.7,31.8v7.4h-1.2v-0.9c-0.4,0.6-1,1-1.9,1c-1.5,0-2.5-1.1-2.5-2.7c0-1.6,1-2.7,2.5-2.7
					c0.9,0,1.5,0.4,1.9,1v-3L828.7,31.8L828.7,31.8z M827.5,36.6c0-1-0.7-1.7-1.6-1.7c-1,0-1.6,0.7-1.6,1.7s0.7,1.7,1.6,1.7
					S827.5,37.6,827.5,36.6z"/>
				<path class="st1" d="M833.6,39.2v-0.6c-0.4,0.5-1,0.7-1.8,0.7c-1.1,0-1.9-0.7-1.9-1.6c0-1,0.7-1.6,2-1.6h1.6v-0.2
					c0-0.7-0.4-1.1-1.3-1.1c-0.5,0-1,0.2-1.6,0.5l-0.5-0.8c0.7-0.4,1.3-0.7,2.3-0.7c1.4,0,2.1,0.7,2.1,1.9v3.5
					C834.5,39.2,833.6,39.2,833.6,39.2z M833.6,37.4v-0.5h-1.4c-0.8,0-1.1,0.2-1.1,0.7s0.4,0.8,1,0.8
					C832.9,38.4,833.5,38,833.6,37.4z"/>
				<path class="st1" d="M836.5,41.2c-0.5,0-0.9-0.1-1.2-0.4l0.5-0.9c0.2,0.2,0.5,0.3,0.7,0.3c0.3,0,0.6-0.2,0.8-0.6l0.2-0.4
					l-2.2-5.2h1.2l1.6,4l1.5-4h1.1l-2.4,6C837.9,40.8,837.3,41.2,836.5,41.2z"/>
				<path class="st1" d="M842.3,38.7c0,0.2-0.1,0.4-0.2,0.5l-0.6,0.9h-0.6l0.4-0.9c-0.2-0.1-0.3-0.3-0.3-0.5c0-0.4,0.3-0.6,0.6-0.6
					C842,38,842.3,38.3,842.3,38.7z"/>
				<path class="st1" d="M851.2,37.7h-3.5l-0.7,1.6h-1.2l3.1-7h1.2l3.1,7h-1.3L851.2,37.7z M850.7,36.6l-1.3-3.1l-1.3,3.1H850.7z"/>
				<path class="st1" d="M859.5,36.6c0,1.6-1,2.7-2.5,2.7c-0.8,0-1.5-0.3-1.9-1v2.9H854v-7.3h1.1v0.9c0.4-0.6,1-1,1.9-1
					C858.5,33.9,859.5,35,859.5,36.6z M858.4,36.6c0-1-0.7-1.7-1.6-1.7s-1.6,0.7-1.6,1.7s0.7,1.7,1.6,1.7S858.4,37.6,858.4,36.6z"/>
				<path class="st1" d="M863.7,33.9V35c-1.1-0.1-1.7,0.6-1.8,1.5v2.8h-1.1V34h1.1v1.1C862.3,34.3,862.9,33.9,863.7,33.9z"/>
				<path class="st1" d="M865.9,32.4c0,0.4-0.3,0.7-0.7,0.7s-0.7-0.3-0.7-0.7s0.3-0.7,0.7-0.7S865.9,32,865.9,32.4z M865.8,33.9v5.3
					h-1.1v-5.3H865.8z"/>
				<path class="st1" d="M868.7,31.8v7.4h-1.1v-7.4H868.7z"/>
				<path class="st1" d="M876.7,34.1c0-0.6-0.5-0.9-1.2-0.9c-0.6,0-1.4,0.3-2,0.9l-0.5-0.9c0.8-0.6,1.7-1,2.6-1
					c1.4,0,2.3,0.7,2.3,1.8c0,0.7-0.5,1.5-1.3,2.3l-1.9,1.9h3.6v1.1h-5.1v-0.9l2.7-2.8C876.3,35.1,876.7,34.5,876.7,34.1z"/>
				<path class="st1" d="M882.9,34.1c0-0.6-0.5-0.9-1.2-0.9c-0.6,0-1.4,0.3-2,0.9l-0.5-0.9c0.8-0.6,1.7-1,2.6-1
					c1.4,0,2.3,0.7,2.3,1.8c0,0.7-0.5,1.5-1.3,2.3l-1.9,1.9h3.6v1.1h-5.1v-0.9l2.7-2.8C882.5,35.1,882.9,34.5,882.9,34.1z"/>
				<path class="st3" d="M785,46.1c0-0.6-0.5-0.9-1.2-0.9c-0.6,0-1.4,0.3-2,0.9l-0.5-0.9c0.8-0.6,1.7-1,2.6-1c1.4,0,2.3,0.7,2.3,1.8
					c0,0.7-0.5,1.5-1.3,2.3l-1.9,1.9h3.6v1.1h-5.1v-0.9l2.7-2.8C784.7,47.1,785,46.5,785,46.1z"/>
				<path class="st1" d="M793.2,46.9c-0.9,0-1.6,0.7-1.6,1.7s0.7,1.7,1.6,1.7c0.7,0,1.2-0.2,1.6-0.6l0.6,0.6c-0.5,0.6-1.2,1-2.3,1
					c-1.6,0-2.7-1.1-2.7-2.7c0-1.6,1.1-2.7,2.7-2.7c1,0,1.7,0.3,2.2,0.9l-0.6,0.7C794.3,47.1,793.8,46.9,793.2,46.9z"/>
				<path class="st1" d="M799.6,45.9V47c-1.1-0.1-1.7,0.6-1.8,1.5v2.8h-1.1V46h1.1v1.1C798.1,46.3,798.7,45.9,799.6,45.9z"/>
				<path class="st1" d="M805.2,49h-4c0.2,0.8,0.8,1.3,1.6,1.3c0.6,0,1.1-0.2,1.5-0.6l0.6,0.6c-0.5,0.6-1.3,0.9-2.2,0.9
					c-1.6,0-2.7-1.1-2.7-2.7c0-1.6,1.1-2.7,2.7-2.7C804.6,45.9,805.4,47.1,805.2,49z M804.2,48.2c0-0.9-0.6-1.4-1.5-1.4
					c-0.8,0-1.4,0.5-1.6,1.4H804.2z"/>
				<path class="st1" d="M809.6,51.2v-0.6c-0.4,0.5-1,0.7-1.8,0.7c-1.1,0-1.9-0.7-1.9-1.6c0-1,0.7-1.6,2-1.6h1.6v-0.2
					c0-0.7-0.4-1.1-1.3-1.1c-0.5,0-1,0.2-1.6,0.5l-0.5-0.8c0.7-0.4,1.3-0.7,2.3-0.7c1.4,0,2.1,0.7,2.1,1.9v3.5
					C810.5,51.2,809.6,51.2,809.6,51.2z M809.6,49.4v-0.5h-1.4c-0.8,0-1.1,0.2-1.1,0.7s0.4,0.8,1,0.8
					C808.9,50.4,809.5,50,809.6,49.4z"/>
				<path class="st1" d="M815.3,50.9c-0.4,0.2-0.9,0.4-1.3,0.4c-0.8,0-1.5-0.5-1.5-1.5V47h-0.8v-0.9h0.8v-1.5h1.1v1.5h1.6V47h-1.6
					v2.5c0,0.5,0.2,0.7,0.6,0.7c0.2,0,0.5-0.1,0.8-0.2L815.3,50.9z"/>
				<path class="st1" d="M821,49h-4c0.2,0.8,0.8,1.3,1.6,1.3c0.6,0,1.1-0.2,1.5-0.6l0.6,0.6c-0.5,0.6-1.3,0.9-2.2,0.9
					c-1.6,0-2.7-1.1-2.7-2.7c0-1.6,1.1-2.7,2.7-2.7C820.3,45.9,821.1,47.1,821,49z M820,48.2c0-0.9-0.6-1.4-1.5-1.4
					c-0.8,0-1.4,0.5-1.6,1.4H820z"/>
				<path class="st1" d="M823.7,46.8c-0.4,0-0.8,0.1-0.8,0.5c0,1,2.8,0.4,2.8,2.4c0,1.1-1,1.6-2,1.6c-0.8,0-1.6-0.3-2.1-0.7l0.4-0.8
					c0.5,0.4,1.2,0.7,1.8,0.7c0.5,0,0.9-0.2,0.9-0.6c0-1.1-2.8-0.5-2.8-2.4c0-1.1,0.9-1.5,2-1.5c0.7,0,1.4,0.2,1.9,0.5l-0.4,0.8
					C824.7,47,824.1,46.8,823.7,46.8z"/>
				<path class="st1" d="M833,43.1l-3.2,9.3h-1l3.2-9.3H833z"/>
				<path class="st3" d="M839.1,44.2v7h-1.2v-5.9h-1.5v-1.1H839.1z"/>
				<path class="st3" d="M847.2,47.7c0,2.3-0.9,3.5-2.6,3.5c-1.7,0-2.6-1.3-2.6-3.5c0-2.3,0.9-3.5,2.6-3.5S847.2,45.5,847.2,47.7z
					 M843.1,47.7c0,1.8,0.5,2.6,1.5,2.6s1.5-0.8,1.5-2.6s-0.5-2.6-1.5-2.6C843.6,45.1,843.1,46,843.1,47.7z"/>
				<path class="st1" d="M854.5,45.9V47c-1.1-0.1-1.7,0.6-1.8,1.5v2.8h-1.2V46h1.1v1.1C853,46.3,853.7,45.9,854.5,45.9z"/>
				<path class="st1" d="M860.1,49h-4c0.2,0.8,0.8,1.3,1.6,1.3c0.6,0,1.1-0.2,1.5-0.6l0.6,0.6c-0.5,0.6-1.3,0.9-2.2,0.9
					c-1.6,0-2.7-1.1-2.7-2.7c0-1.6,1.1-2.7,2.7-2.7C859.5,45.9,860.3,47.1,860.1,49z M859.1,48.2c0-0.9-0.6-1.4-1.5-1.4
					c-0.8,0-1.4,0.5-1.6,1.4H859.1z"/>
				<path class="st1" d="M862.8,46.8c-0.4,0-0.8,0.1-0.8,0.5c0,1,2.8,0.4,2.8,2.4c0,1.1-1,1.6-2,1.6c-0.8,0-1.6-0.3-2.1-0.7l0.4-0.8
					c0.5,0.4,1.2,0.7,1.8,0.7c0.5,0,0.9-0.2,0.9-0.6c0-1.1-2.8-0.5-2.8-2.4c0-1.1,0.9-1.5,2-1.5c0.7,0,1.4,0.2,1.9,0.5l-0.4,0.8
					C863.9,47,863.3,46.8,862.8,46.8z"/>
				<path class="st1" d="M871.6,48.6c0,1.6-1,2.7-2.5,2.7c-0.8,0-1.5-0.3-1.9-1v2.9h-1.1v-7.3h1.1v0.9c0.4-0.6,1-1,1.9-1
					C870.6,45.9,871.6,47,871.6,48.6z M870.5,48.6c0-1-0.7-1.7-1.6-1.7s-1.6,0.7-1.6,1.7s0.7,1.7,1.6,1.7S870.5,49.6,870.5,48.6z"/>
				<path class="st1" d="M877.9,48.6c0,1.6-1.1,2.7-2.8,2.7c-1.6,0-2.8-1.1-2.8-2.7c0-1.6,1.1-2.7,2.8-2.7
					C876.8,45.9,877.9,47,877.9,48.6z M873.5,48.6c0,1,0.7,1.7,1.6,1.7c1,0,1.6-0.7,1.6-1.7s-0.7-1.7-1.6-1.7S873.5,47.6,873.5,48.6
					z"/>
				<path class="st1" d="M884.2,47.9v3.3h-1.1v-3c0-0.8-0.5-1.3-1.3-1.3c-0.9,0-1.4,0.6-1.5,1.4v2.8h-1.1v-5.3h1.1v1
					c0.4-0.7,1.1-1.1,2-1.1C883.4,45.9,884.2,46.7,884.2,47.9z"/>
				<path class="st1" d="M887.2,46.8c-0.4,0-0.8,0.1-0.8,0.5c0,1,2.8,0.4,2.8,2.4c0,1.1-1,1.6-2,1.6c-0.8,0-1.6-0.3-2.1-0.7l0.4-0.8
					c0.5,0.4,1.2,0.7,1.8,0.7c0.5,0,0.9-0.2,0.9-0.6c0-1.1-2.8-0.5-2.8-2.4c0-1.1,0.9-1.5,2-1.5c0.7,0,1.4,0.2,1.9,0.5l-0.4,0.8
					C888.3,47,887.7,46.8,887.2,46.8z"/>
				<path class="st1" d="M895.1,49h-4c0.2,0.8,0.8,1.3,1.6,1.3c0.6,0,1.1-0.2,1.5-0.6l0.6,0.6c-0.5,0.6-1.3,0.9-2.2,0.9
					c-1.6,0-2.7-1.1-2.7-2.7c0-1.6,1.1-2.7,2.7-2.7C894.5,45.9,895.2,47.1,895.1,49z M894.1,48.2c0-0.9-0.6-1.4-1.5-1.4
					c-0.8,0-1.4,0.5-1.6,1.4H894.1z"/>
				<path class="st1" d="M897.8,46.8c-0.4,0-0.8,0.1-0.8,0.5c0,1,2.8,0.4,2.8,2.4c0,1.1-1,1.6-2,1.6c-0.8,0-1.6-0.3-2.1-0.7l0.4-0.8
					c0.5,0.4,1.2,0.7,1.8,0.7c0.5,0,0.9-0.2,0.9-0.6c0-1.1-2.8-0.5-2.8-2.4c0-1.1,0.9-1.5,2-1.5c0.7,0,1.4,0.2,1.9,0.5l-0.4,0.8
					C898.9,47,898.3,46.8,897.8,46.8z"/>
			</g>
		</g>
		<g>
			<g>
				<g>
					<g>
						<path class="st4" d="M788.7,216.1L788.7,216.1c-3.1,0-5.7-2.5-5.7-5.7v-112c0-3.1,2.5-5.7,5.7-5.7l0,0c3.1,0,5.7,2.5,5.7,5.7
							v112C794.3,213.6,791.8,216.1,788.7,216.1z"/>
						<path class="st5" d="M788.7,216.1L788.7,216.1c-3.1,0-5.7-2.5-5.7-5.7v-69.8c0-3.1,2.5-5.7,5.7-5.7l0,0c3.1,0,5.7,2.5,5.7,5.7
							v69.8C794.3,213.6,791.8,216.1,788.7,216.1z"/>
					</g>
					<g>
						<path class="st4" d="M765.5,216.1L765.5,216.1c-3.1,0-5.7-2.5-5.7-5.7v-112c0-3.1,2.5-5.7,5.7-5.7l0,0c3.1,0,5.7,2.5,5.7,5.7
							v112C771.2,213.6,768.7,216.1,765.5,216.1z"/>
						<path class="st5" d="M765.5,216.1L765.5,216.1c-3.1,0-5.7-2.5-5.7-5.7v-47.3c0-3.1,2.5-5.7,5.7-5.7l0,0c3.1,0,5.7,2.5,5.7,5.7
							v47.3C771.2,213.6,768.7,216.1,765.5,216.1z"/>
					</g>
					<g>
						<path class="st4" d="M742.4,216.1L742.4,216.1c-3.1,0-5.7-2.5-5.7-5.7v-112c0-3.1,2.5-5.7,5.7-5.7l0,0c3.1,0,5.7,2.5,5.7,5.7
							v112C748.1,213.6,745.5,216.1,742.4,216.1z"/>
						<path class="st5" d="M742.4,216.1L742.4,216.1c-3.1,0-5.7-2.5-5.7-5.7v-30.9c0-3.1,2.5-5.7,5.7-5.7l0,0c3.1,0,5.7,2.5,5.7,5.7
							v30.9C748.1,213.6,745.5,216.1,742.4,216.1z"/>
					</g>
					<g>
						<path class="st4" d="M719.3,216.1L719.3,216.1c-3.1,0-5.7-2.5-5.7-5.7v-112c0-3.1,2.5-5.7,5.7-5.7l0,0c3.1,0,5.7,2.5,5.7,5.7
							v112C725,213.6,722.4,216.1,719.3,216.1z"/>
						<path class="st5" d="M719.3,216.1L719.3,216.1c-3.1,0-5.7-2.5-5.7-5.7v-68.2c0-3.1,2.5-5.7,5.7-5.7l0,0c3.1,0,5.7,2.5,5.7,5.7
							v68.2C725,213.6,722.4,216.1,719.3,216.1z"/>
					</g>
					<g>
						<path class="st4" d="M696.2,216.1L696.2,216.1c-3.1,0-5.7-2.5-5.7-5.7v-112c0-3.1,2.5-5.7,5.7-5.7l0,0c3.1,0,5.7,2.5,5.7,5.7
							v112C701.9,213.6,699.3,216.1,696.2,216.1z"/>
						<path class="st5" d="M696.2,216.1L696.2,216.1c-3.1,0-5.7-2.5-5.7-5.7v-39.9c0-3.1,2.5-5.7,5.7-5.7l0,0c3.1,0,5.7,2.5,5.7,5.7
							v39.9C701.9,213.6,699.3,216.1,696.2,216.1z"/>
					</g>
					<g>
						<path class="st4" d="M673.1,216.1L673.1,216.1c-3.1,0-5.7-2.5-5.7-5.7v-112c0-3.1,2.5-5.7,5.7-5.7l0,0c3.1,0,5.7,2.5,5.7,5.7
							v112C678.7,213.6,676.2,216.1,673.1,216.1z"/>
						<path class="st5" d="M673.1,216.1L673.1,216.1c-3.1,0-5.7-2.5-5.7-5.7v-82c0-3.1,2.5-5.7,5.7-5.7l0,0c3.1,0,5.7,2.5,5.7,5.7
							v82C678.7,213.6,676.2,216.1,673.1,216.1z"/>
					</g>
					<g>
						<path class="st4" d="M650,216.1L650,216.1c-3.1,0-5.7-2.5-5.7-5.7v-112c0-3.1,2.5-5.7,5.7-5.7l0,0c3.1,0,5.7,2.5,5.7,5.7v112
							C655.6,213.6,653.1,216.1,650,216.1z"/>
						<path class="st5" d="M650,216.1L650,216.1c-3.1,0-5.7-2.5-5.7-5.7v-18.2c0-3.1,2.5-5.7,5.7-5.7l0,0c3.1,0,5.7,2.5,5.7,5.7
							v18.2C655.6,213.6,653.1,216.1,650,216.1z"/>
					</g>
					<g>
						<path class="st4" d="M626.9,216.1L626.9,216.1c-3.1,0-5.7-2.5-5.7-5.7v-112c0-3.1,2.5-5.7,5.7-5.7l0,0c3.1,0,5.7,2.5,5.7,5.7
							v112C632.5,213.6,630,216.1,626.9,216.1z"/>
						<path class="st5" d="M626.9,216.1L626.9,216.1c-3.1,0-5.7-2.5-5.7-5.7v-60.9c0-3.1,2.5-5.7,5.7-5.7l0,0c3.1,0,5.7,2.5,5.7,5.7
							v60.9C632.5,213.6,630,216.1,626.9,216.1z"/>
					</g>
					<g>
						<path class="st4" d="M603.7,216.1L603.7,216.1c-3.1,0-5.7-2.5-5.7-5.7v-112c0-3.1,2.5-5.7,5.7-5.7l0,0c3.1,0,5.7,2.5,5.7,5.7
							v112C609.4,213.6,606.9,216.1,603.7,216.1z"/>
						<path class="st5" d="M603.7,216.1L603.7,216.1c-3.1,0-5.7-2.5-5.7-5.7V170c0-3.1,2.5-5.7,5.7-5.7l0,0c3.1,0,5.7,2.5,5.7,5.7
							v40.4C609.4,213.6,606.9,216.1,603.7,216.1z"/>
					</g>
					<g>
						<path class="st4" d="M811.8,216.1L811.8,216.1c-3.1,0-5.7-2.5-5.7-5.7v-112c0-3.1,2.5-5.7,5.7-5.7l0,0c3.1,0,5.7,2.5,5.7,5.7
							v112C817.4,213.6,814.9,216.1,811.8,216.1z"/>
						<path class="st5" d="M811.8,216.1L811.8,216.1c-3.1,0-5.7-2.5-5.7-5.7v-91c0-3.1,2.5-5.7,5.7-5.7l0,0c3.1,0,5.7,2.5,5.7,5.7
							v91C817.4,213.6,814.9,216.1,811.8,216.1z"/>
					</g>
					<g>
						<path class="st4" d="M834.9,216.1L834.9,216.1c-3.1,0-5.7-2.5-5.7-5.7v-112c0-3.1,2.5-5.7,5.7-5.7l0,0c3.1,0,5.7,2.5,5.7,5.7
							v112C840.5,213.6,838,216.1,834.9,216.1z"/>
						<path class="st5" d="M834.9,216.1L834.9,216.1c-3.1,0-5.7-2.5-5.7-5.7v-73.3c0-3.1,2.5-5.7,5.7-5.7l0,0c3.1,0,5.7,2.5,5.7,5.7
							v73.3C840.5,213.6,838,216.1,834.9,216.1z"/>
					</g>
					<g>
						<path class="st4" d="M858,216.1L858,216.1c-3.1,0-5.7-2.5-5.7-5.7v-112c0-3.1,2.5-5.7,5.7-5.7l0,0c3.1,0,5.7,2.5,5.7,5.7v112
							C863.7,213.6,861.1,216.1,858,216.1z"/>
						<path class="st5" d="M858,216.1L858,216.1c-3.1,0-5.7-2.5-5.7-5.7v-50.3c0-3.1,2.5-5.7,5.7-5.7l0,0c3.1,0,5.7,2.5,5.7,5.7
							v50.3C863.7,213.6,861.1,216.1,858,216.1z"/>
					</g>
					<g>
						<path class="st4" d="M881.1,216.1L881.1,216.1c-3.1,0-5.7-2.5-5.7-5.7v-112c0-3.1,2.5-5.7,5.7-5.7l0,0c3.1,0,5.7,2.5,5.7,5.7
							v112C886.8,213.6,884.2,216.1,881.1,216.1z"/>
						<path class="st5" d="M881.1,216.1L881.1,216.1c-3.1,0-5.7-2.5-5.7-5.7v-80.3c0-3.1,2.5-5.7,5.7-5.7l0,0c3.1,0,5.7,2.5,5.7,5.7
							v80.3C886.8,213.6,884.2,216.1,881.1,216.1z"/>
					</g>
					<g>
						<path class="st4" d="M904.2,216.1L904.2,216.1c-3.1,0-5.7-2.5-5.7-5.7v-112c0-3.1,2.5-5.7,5.7-5.7l0,0c3.1,0,5.7,2.5,5.7,5.7
							v112C909.9,213.6,907.3,216.1,904.2,216.1z"/>
						<path class="st5" d="M904.2,216.1L904.2,216.1c-3.1,0-5.7-2.5-5.7-5.7v-47.3c0-3.1,2.5-5.7,5.7-5.7l0,0c3.1,0,5.7,2.5,5.7,5.7
							v47.3C909.9,213.6,907.3,216.1,904.2,216.1z"/>
					</g>
				</g>
				<g>
					<path class="st1" d="M603.8,227.9c-0.7,0-1.1,0.2-1.1,0.7c0,1.8,5.7,0.8,5.7,4.7c0,2.2-1.9,3.3-4.3,3.3c-1.8,0-3.7-0.7-5-1.7
						l1.1-2.2c1.1,1,2.8,1.6,3.9,1.6c0.8,0,1.4-0.3,1.4-0.9c0-1.8-5.7-0.7-5.7-4.5c0-2,1.7-3.3,4.3-3.3c1.6,0,3.2,0.5,4.3,1.2
						l-1.1,2.2C606.2,228.4,604.7,227.9,603.8,227.9z"/>
					<path class="st1" d="M624,225.6l2.9,6.3l2.9-6.3h3.1v10.8h-2.5v-6.8l-2.5,5.8h-1.8l-2.5-5.8v6.8h-2.5v-10.8H624z"/>
					<path class="st1" d="M654.6,225.6v2.3h-3.2v8.5h-2.9v-8.5h-3.2v-2.3H654.6z"/>
					<path class="st1" d="M667.7,225.6l2.1,7.8l2-7.8h2.8l2,7.8l2-7.8h2.9l-3.6,10.8H675l-1.9-7.3l-2,7.3h-2.9l-3.5-10.8H667.7z"/>
					<path class="st1" d="M700.8,225.6v2.3h-3.2v8.5h-2.8v-8.5h-3.2v-2.3H700.8z"/>
					<path class="st1" d="M723.4,225.6v2.3h-5.2v2.4h4.8v2.3h-4.8v3.9h-2.8v-10.8L723.4,225.6L723.4,225.6z"/>
					<path class="st1" d="M742.5,227.9c-0.7,0-1.1,0.2-1.1,0.7c0,1.8,5.7,0.8,5.7,4.7c0,2.2-1.9,3.3-4.3,3.3c-1.8,0-3.7-0.7-5-1.7
						l1.1-2.2c1.1,1,2.8,1.6,3.9,1.6c0.8,0,1.4-0.3,1.4-0.9c0-1.8-5.7-0.7-5.7-4.5c0-2,1.7-3.3,4.3-3.3c1.6,0,3.2,0.5,4.3,1.2
						L746,229C744.9,228.4,743.4,227.9,742.5,227.9z"/>
					<path class="st1" d="M765.6,227.9c-0.7,0-1.1,0.2-1.1,0.7c0,1.8,5.7,0.8,5.7,4.7c0,2.2-1.9,3.3-4.3,3.3c-1.8,0-3.7-0.7-5-1.7
						l1.1-2.2c1.1,1,2.8,1.6,3.9,1.6c0.8,0,1.4-0.3,1.4-0.9c0-1.8-5.7-0.7-5.7-4.5c0-2,1.7-3.3,4.3-3.3c1.6,0,3.2,0.5,4.3,1.2
						l-1.1,2.2C768,228.4,766.5,227.9,765.6,227.9z"/>
					<path class="st1" d="M785.8,225.6l2.9,6.3l2.9-6.3h3.1v10.8h-2.5v-6.8l-2.5,5.8h-1.8l-2.5-5.8v6.8h-2.5v-10.8H785.8z"/>
					<path class="st1" d="M816.4,225.6v2.3h-3.2v8.5h-2.8v-8.5h-3.2v-2.3H816.4z"/>
					<path class="st1" d="M829.5,225.6l2.1,7.8l2-7.8h2.8l2,7.8l2-7.8h2.9l-3.6,10.8h-2.9l-1.9-7.3l-2,7.3H830l-3.5-10.8H829.5z"/>
					<path class="st1" d="M862.6,225.6v2.3h-3.2v8.5h-2.8v-8.5h-3.2v-2.3H862.6z"/>
					<path class="st1" d="M885.2,225.6v2.3H880v2.4h4.8v2.3H880v3.9h-2.8v-10.8L885.2,225.6L885.2,225.6z"/>
					<path class="st1" d="M904.3,227.9c-0.7,0-1.1,0.2-1.1,0.7c0,1.8,5.7,0.8,5.7,4.7c0,2.2-1.9,3.3-4.3,3.3c-1.8,0-3.7-0.7-5-1.7
						l1.1-2.2c1.1,1,2.8,1.6,3.9,1.6c0.8,0,1.4-0.3,1.4-0.9c0-1.8-5.7-0.7-5.7-4.5c0-2,1.7-3.3,4.3-3.3c1.6,0,3.2,0.5,4.3,1.2
						l-1.1,2.2C906.7,228.4,905.2,227.9,904.3,227.9z"/>
				</g>
			</g>
			<g>
				<g>
					<path class="st1" d="M576.1,212.7c0,2.5-1,3.8-2.9,3.8s-2.9-1.4-2.9-3.8c0-2.5,1-3.8,2.9-3.8
						C575.1,208.9,576.1,210.2,576.1,212.7z M571.9,212.7c0,1.8,0.4,2.6,1.3,2.6c0.9,0,1.3-0.8,1.3-2.6s-0.4-2.6-1.3-2.6
						C572.3,210.1,571.9,210.9,571.9,212.7z"/>
					<path class="st1" d="M582.8,212.7c0,2.5-1,3.8-2.9,3.8s-2.9-1.4-2.9-3.8c0-2.5,1-3.8,2.9-3.8
						C581.7,208.9,582.8,210.2,582.8,212.7z M578.6,212.7c0,1.8,0.4,2.6,1.3,2.6c0.9,0,1.3-0.8,1.3-2.6s-0.4-2.6-1.3-2.6
						C579,210.1,578.6,210.9,578.6,212.7z"/>
				</g>
				<g>
					<path class="st1" d="M576.2,189.4c0,2.5-1,3.8-2.9,3.8s-2.9-1.4-2.9-3.8c0-2.5,1-3.8,2.9-3.8
						C575.1,185.6,576.2,186.9,576.2,189.4z M572,189.4c0,1.8,0.4,2.6,1.3,2.6c0.9,0,1.3-0.8,1.3-2.6s-0.4-2.6-1.3-2.6
						S572,187.6,572,189.4z"/>
					<path class="st1" d="M579.9,188.4c1.7,0,2.9,0.9,2.9,2.3c0,1.6-1.2,2.6-3,2.6c-1,0-2.1-0.4-2.9-0.9l0.7-1.3
						c0.6,0.6,1.3,0.9,2,0.9c0.9,0,1.4-0.4,1.4-1.1c0-0.6-0.5-1-1.4-1c-0.4,0-1.6,0-2.1,0.1v-4.2h5v1.4h-3.4v1.3h0.8V188.4z"/>
				</g>
				<g>
					<path class="st1" d="M574.1,162.4v7.5h-1.7v-6.1h-1.5v-1.4H574.1z"/>
					<path class="st1" d="M582.8,166.2c0,2.5-1,3.8-2.9,3.8s-2.9-1.4-2.9-3.8c0-2.5,1-3.8,2.9-3.8
						C581.7,162.3,582.8,163.7,582.8,166.2z M578.6,166.2c0,1.8,0.4,2.6,1.3,2.6c0.9,0,1.3-0.8,1.3-2.6s-0.4-2.6-1.3-2.6
						C579,163.6,578.6,164.4,578.6,166.2z"/>
				</g>
				<g>
					<path class="st1" d="M574.2,139.1v7.5h-1.7v-6.1H571v-1.4H574.2z"/>
					<path class="st1" d="M579.9,141.9c1.7,0,2.9,0.9,2.9,2.3c0,1.6-1.2,2.6-3,2.6c-1,0-2.1-0.4-2.9-0.9l0.7-1.3
						c0.6,0.6,1.3,0.9,2,0.9c0.9,0,1.4-0.4,1.4-1.1c0-0.6-0.5-1-1.4-1c-0.4,0-1.6,0-2.1,0.1v-4.2h5v1.4h-3.4v1.3h0.8V141.9z"/>
				</g>
				<g>
					<path class="st1" d="M574,118c0-0.5-0.4-0.8-1-0.8s-1.4,0.4-2.1,0.9l-0.7-1.3c0.9-0.7,1.9-1.1,3-1.1c1.5,0,2.6,0.8,2.6,1.9
						c0,0.8-0.6,1.6-1.4,2.5l-1.8,1.7h3.5v1.4h-5.7V122l2.8-2.9C573.7,118.9,574,118.4,574,118z"/>
					<path class="st1" d="M582.8,119.7c0,2.5-1,3.8-2.9,3.8s-2.9-1.4-2.9-3.8c0-2.5,1-3.8,2.9-3.8
						C581.7,115.8,582.8,117.2,582.8,119.7z M578.6,119.7c0,1.8,0.4,2.6,1.3,2.6c0.9,0,1.3-0.8,1.3-2.6c0-1.8-0.4-2.6-1.3-2.6
						S578.6,117.9,578.6,119.7z"/>
				</g>
				<g>
					<path class="st1" d="M574.1,94.7c0-0.5-0.4-0.8-1-0.8s-1.4,0.4-2.1,0.9l-0.7-1.3c0.9-0.7,1.9-1.1,3-1.1c1.5,0,2.6,0.8,2.6,1.9
						c0,0.8-0.6,1.6-1.4,2.5l-1.8,1.7h3.5v1.4h-5.7v-1.2l2.8-2.9C573.7,95.6,574.1,95.1,574.1,94.7z"/>
					<path class="st1" d="M579.9,95.3c1.7,0,2.9,0.9,2.9,2.3c0,1.6-1.2,2.6-3,2.6c-1,0-2.1-0.4-2.9-0.9l0.7-1.3
						c0.6,0.6,1.3,0.9,2,0.9c0.9,0,1.4-0.4,1.4-1.1c0-0.6-0.5-1-1.4-1c-0.4,0-1.6,0-2.1,0.1v-4.2h5v1.4h-3.4v1.3h0.8V95.3z"/>
				</g>
			</g>
		</g>
		<g>
			<path class="st1" d="M587.5,27.7c0,5.4-4,9.1-9.7,9.1h-7.6V18.6h7.7C583.6,18.6,587.5,22.4,587.5,27.7z M583.3,27.8
				c0-3.4-2.3-5.7-5.5-5.7h-3.5v11.3h3.7C581.1,33.4,583.3,31.1,583.3,27.8z"/>
			<path class="st1" d="M598.2,36.8v-1.6c-0.9,1.2-2.4,1.8-4.4,1.8c-3,0-4.8-1.8-4.8-4.4s1.9-4.2,5.3-4.2h3.8v-0.3
				c0-1.5-1-2.3-2.9-2.3c-1.2,0-2.7,0.4-4.2,1.2l-1.2-2.8c2.1-1,3.9-1.6,6.3-1.6c3.7,0,5.9,1.9,5.9,5v9.1L598.2,36.8L598.2,36.8z
				 M598.2,32.1v-1.3h-3.1c-1.5,0-2.3,0.5-2.3,1.6s0.8,1.8,2.2,1.8C596.6,34.2,598,33.3,598.2,32.1z"/>
			<path class="st1" d="M609.6,22.9v14h-4v-14C605.6,22.9,609.6,22.9,609.6,22.9z M609.6,18.9c0,1.1-0.8,2-2,2c-1.1,0-1.9-0.9-1.9-2
				c0-1.2,0.8-2,1.9-2C608.8,16.9,609.6,17.7,609.6,18.9z"/>
			<path class="st1" d="M617.6,17.6v19.2h-4V17.6H617.6z"/>
			<path class="st1" d="M623.3,42.1c-1.5,0-2.7-0.4-3.8-1.4l1.7-2.9c0.6,0.5,1.2,0.8,1.8,0.8c0.8,0,1.5-0.4,1.8-1.2l0.4-0.8
				l-5.8-13.7h4.1l3.7,9.6l3.3-9.6h4l-6.1,15.5C627.4,40.9,625.7,42.1,623.3,42.1z"/>
			<path class="st1" d="M656.2,33.3h-8.4l-1.4,3.5h-4.2l7.9-18.2h4.2l7.8,18.2h-4.4L656.2,33.3z M654.8,30l-2.9-7.1L649,30H654.8z"
				/>
			<path class="st1" d="M669.3,26.1c-2,0-3.3,1.5-3.3,3.7c0,2.3,1.4,3.8,3.3,3.8c1.4,0,2.5-0.5,3.2-1.6l2.8,1.9
				c-1.2,2-3.4,3.1-6.2,3.1c-4.2,0-7.1-2.9-7.1-7.1c0-4.3,2.9-7.2,7.2-7.2c2.7,0,4.8,1.1,6.1,2.9l-2.7,1.9
				C671.8,26.7,670.7,26.1,669.3,26.1z"/>
			<path class="st1" d="M686.5,36.1c-1,0.6-2.3,1-3.6,1c-2.5,0-4.4-1.4-4.4-4.3v-6.5h-2v-2.8h2v-3.8h4v3.8h3.8v2.8h-3.8v5.8
				c0,1.2,0.5,1.6,1.4,1.6c0.5,0,1.1-0.2,1.9-0.5L686.5,36.1z"/>
			<path class="st1" d="M692.9,22.9v14h-4v-14C688.9,22.9,692.9,22.9,692.9,22.9z M692.8,18.9c0,1.1-0.8,2-2,2c-1.1,0-2-0.9-2-2
				c0-1.2,0.8-2,2-2S692.8,17.7,692.8,18.9z"/>
			<path class="st1" d="M698.9,22.9l3.3,10.2l3.3-10.2h4l-5.3,14h-4.1l-5.3-14L698.9,22.9z"/>
			<path class="st1" d="M715.2,22.9v14h-4v-14C711.2,22.9,715.2,22.9,715.2,22.9z M715.2,18.9c0,1.1-0.8,2-2,2c-1.1,0-1.9-0.9-1.9-2
				c0-1.2,0.8-2,1.9-2C714.3,16.9,715.2,17.7,715.2,18.9z"/>
			<path class="st1" d="M727.7,36.1c-1,0.6-2.3,1-3.6,1c-2.5,0-4.4-1.4-4.4-4.3v-6.5h-2v-2.8h2v-3.8h4v3.8h3.8v2.8h-3.8v5.8
				c0,1.2,0.5,1.6,1.4,1.6c0.5,0,1.1-0.2,1.9-0.5L727.7,36.1z"/>
			<path class="st1" d="M731.8,42.1c-1.5,0-2.7-0.4-3.8-1.4l1.7-2.9c0.6,0.5,1.2,0.8,1.8,0.8c0.8,0,1.5-0.4,1.8-1.2l0.4-0.8
				l-5.8-13.7h4.1l3.7,9.6l3.3-9.6h4l-6.1,15.5C735.9,40.9,734.2,42.1,731.8,42.1z"/>
		</g>
	</g>
	<rect x="1.2" y="1.9" class="st6" width="240.8" height="257.2"/>
</g>
</svg>
