<?xml version="1.0" encoding="utf-8"?>
<!-- Generator: Adobe Illustrator 19.2.1, SVG Export Plug-In . SVG Version: 6.00 Build 0)  -->
<svg version="1.1" id="Layer_1" xmlns="http://www.w3.org/2000/svg" xmlns:xlink="http://www.w3.org/1999/xlink" x="0px" y="0px"
	 viewBox="0 0 244 235" style="enable-background:new 0 0 244 235;" xml:space="preserve">
<style type="text/css">
	.st0{fill:#FFFFFF;}
	.st1{fill:#FFC90D;}
	.st2{fill:#16485B;}
	.st3{opacity:0.3;}
	.st4{fill:#D7DBD4;}
	.st5{fill:#6DB8E2;}
	.st6{opacity:0.5;}
	.st7{fill:#AA998C;}
	.st8{fill:#937D6F;}
	.st9{fill:#F2944E;}
	.st10{fill:#72605B;}
	.st11{fill:#FFDCBD;}
	.st12{fill:#84726D;}
	.st13{fill:#A680F9;}
	.st14{fill:#FC7E99;}
	.st15{fill:#AC9DEA;}
	.st16{opacity:0.1;}
	.st17{fill:#EA7191;}
	.st18{fill:#D3D2D1;}
	.st19{fill:#BDBDBB;}
	.st20{fill:#DEE2DA;}
	.st21{fill:#205081;}
	.st22{fill:#857F84;}
	.st23{fill:#D0DAE5;}
	.st24{fill:#F9B35F;}
	.st25{fill:#D09866;}
</style>
<g>
	<g>
		<g>
			<path class="st0" d="M215.2,66c0,0-3.8-17-31.1-18.1c-27.4-1-126.2,0.8-126.2,0.8s-19,1.4-26.3,16.5l0,66.2
				c0,0,14,28.3,51.6,28.3l1-24h104c0,0,24.3-2.2,27.3-21.8L215.2,66z M182.4,121.4l-108.2-0.1c-21.5,1.7-22.5-7.4-22.5-7.4V92.7
				l-0.5-13.3c-2.3-23,16.3-17.5,16.3-17.5h111.1c17.9-1.8,16.8,7.2,16.8,7.2l-0.1,35.7C199.8,122.3,182.4,121.4,182.4,121.4z"/>
		</g>
	</g>
	<g>
		<path class="st1" d="M31.5,131.5c0,0-2.2,37.5,52.6,40.2l0-11.9C84.1,159.8,49.8,163.5,31.5,131.5z"/>
		<path class="st2" d="M85.4,173l-1.4-0.1c-20.1-1-35-6.7-44.3-17c-10.2-11.4-9.6-24.1-9.6-24.6l0.3-4.4l2.2,3.8
			c14.3,25.1,38.5,27.8,48.2,27.8c2,0,3.2-0.1,3.2-0.1l1.4-0.2L85.4,173z M33.2,136.6c0.8,4.5,2.9,11.4,8.5,17.7
			c8.6,9.5,22.4,14.9,41.1,16v-9.1c-0.5,0-1.2,0-2,0C71.3,161.2,48.4,158.7,33.2,136.6z"/>
	</g>
	<g>
		<g>
			<g>
				<path class="st2" d="M51.6,81.8c-0.8,0-1.5-0.7-1.5-1.5c0,0,0,0,0,0v0V68.4c0,0,0-0.1,0-0.1c0-0.1,0-0.1,0-0.2
					c0-0.1,0-0.2,0-0.3c0-0.1,0-0.2,0-0.3c0-0.1,0.1-0.2,0.1-0.3c0-0.1,0.1-0.2,0.1-0.3c0-0.1,0-0.1,0.1-0.2
					c0.1-0.1,0.1-0.2,0.2-0.4c0.1-0.2,0.3-0.4,0.4-0.6c0.1-0.1,0.1-0.2,0.2-0.3c0.2-0.2,0.4-0.5,0.7-0.7c0.3-0.3,0.7-0.6,1.2-0.9
					c0.1-0.1,0.2-0.1,0.3-0.2l0.1-0.1c0.3-0.2,0.6-0.4,1-0.6c0.1,0,0.2-0.1,0.2-0.1c0.1,0,0.2-0.1,0.3-0.1l0.1-0.1
					c0.3-0.1,0.6-0.3,0.9-0.4c0.2-0.1,0.5-0.2,0.8-0.3c0.3-0.1,0.7-0.2,1-0.3l0.1,0c0.1,0,0.2-0.1,0.3-0.1c0.1,0,0.2,0,0.3-0.1
					c0.9-0.2,1.7-0.4,2.6-0.6c0,0,0.1,0,0.1,0c0,0,0.1,0,0.1,0c0.8-0.1,1.6-0.2,2.6-0.3c0.1,0,0.2,0,0.3,0c0.6,0,1.2,0,1.8,0h114.9
					c0.5,0,0.9,0,1.4,0c0.2,0,0.4,0,0.6,0.1c0.1,0,0.2,0,0.3,0c0.5,0,1.1,0.1,1.6,0.2c0.1,0,0.1,0,0.2,0c0.1,0,0.3,0,0.4,0
					c0.2,0,0.3,0.1,0.5,0.1c0.1,0,0.1,0,0.2,0c0.7,0.1,1.3,0.3,2,0.4c0.1,0,0.1,0,0.2,0c0.2,0,0.3,0.1,0.5,0.1
					c0.1,0,0.3,0.1,0.4,0.1l0.2,0.1c0.2,0.1,0.4,0.1,0.5,0.2c0.8,0.3,1.5,0.5,2,0.8c0,0,0.1,0,0.1,0.1c0.5,0.2,1,0.5,1.6,0.9
					c0.1,0.1,0.3,0.2,0.4,0.3c0.6,0.4,1,0.8,1.4,1.1c0,0,0,0,0.1,0.1c0.3,0.4,0.6,0.8,0.9,1.3c0.1,0.1,0.1,0.2,0.2,0.4
					c0.3,0.6,0.4,1.1,0.4,1.6v11.9c0,0.8-0.7,1.5-1.5,1.5s-1.5-0.7-1.5-1.5c0,0,0-0.1-0.1-0.4c0,0,0-0.1-0.1-0.1
					c-0.1-0.2-0.3-0.5-0.5-0.6c0,0,0,0,0,0c-0.2-0.2-0.5-0.5-0.9-0.7c-0.1-0.1-0.2-0.1-0.3-0.2c-0.4-0.3-0.9-0.5-1.3-0.7
					c0,0-0.1,0-0.1-0.1c-0.4-0.2-1-0.4-1.7-0.6c-0.2-0.1-0.3-0.1-0.5-0.2c-0.3-0.1-0.5-0.1-0.8-0.2l-0.3-0.1
					c-0.6-0.1-1.2-0.3-1.7-0.4c-0.4-0.1-0.8-0.1-1.2-0.2c-0.5-0.1-0.9-0.1-1.4-0.1l-0.2,0c-0.6,0-1.2-0.1-1.8-0.1H66
					c-0.6,0-1.2,0-1.8,0.1c-0.9,0.1-1.7,0.1-2.4,0.2c-0.8,0.1-1.5,0.3-2.3,0.5c-0.2,0.1-0.4,0.1-0.6,0.2c-0.3,0.1-0.6,0.2-0.9,0.3
					c-0.2,0.1-0.4,0.2-0.7,0.2c-0.3,0.1-0.5,0.2-0.7,0.3c-0.2,0.1-0.4,0.2-0.5,0.3c-0.3,0.1-0.5,0.3-0.8,0.4l-0.3,0.2
					c-0.3,0.2-0.6,0.4-0.8,0.6c-0.2,0.2-0.3,0.3-0.5,0.5c-0.1,0.1-0.2,0.2-0.2,0.3l-0.2,0.6C53.2,81.1,52.5,81.8,51.6,81.8z
					 M53.2,68.4l0,7.3c0,0,0.1,0,0.1-0.1c0.1-0.1,0.2-0.1,0.3-0.2l0.1-0.1c0.3-0.2,0.6-0.4,1-0.6c0.2-0.1,0.4-0.2,0.7-0.3
					c0.3-0.1,0.6-0.3,0.9-0.4c0.2-0.1,0.5-0.2,0.8-0.3c0.3-0.1,0.7-0.2,1-0.3c0.2-0.1,0.5-0.1,0.7-0.2c0.9-0.2,1.7-0.4,2.6-0.6
					c0.9-0.1,1.7-0.2,2.7-0.3c0.7,0,1.3-0.1,2-0.1h114.9c0.7,0,1.4,0,2,0.1l0.2,0c0.5,0,1.1,0.1,1.6,0.1c0.4,0.1,0.9,0.1,1.3,0.2
					c0.7,0.1,1.3,0.3,2,0.4l0.3,0.1c0.3,0.1,0.7,0.2,1,0.3c0.2,0.1,0.4,0.1,0.5,0.2c0.8,0.3,1.5,0.5,2,0.8c0,0,0.1,0,0.1,0.1
					c0.5,0.2,1.1,0.5,1.6,0.9c0.1,0.1,0.2,0.1,0.3,0.2v-7.3c0,0,0-0.1-0.1-0.4c0,0,0-0.1-0.1-0.1c-0.1-0.2-0.3-0.5-0.5-0.6
					c0,0,0,0,0,0c-0.2-0.2-0.5-0.5-0.9-0.7c-0.1-0.1-0.2-0.1-0.3-0.2c-0.4-0.3-0.9-0.5-1.3-0.7c0,0-0.1,0-0.1-0.1
					c-0.4-0.2-1-0.4-1.7-0.6c-0.2-0.1-0.3-0.1-0.5-0.2l-0.3-0.1c-0.1,0-0.2-0.1-0.3-0.1c-0.1,0-0.1,0-0.2,0c-0.1,0-0.3,0-0.4-0.1
					c-0.6-0.1-1.1-0.3-1.7-0.4c-0.1,0-0.3-0.1-0.4-0.1c-0.1,0-0.1,0-0.2,0c-0.1,0-0.1,0-0.2,0c-0.1,0-0.2,0-0.4,0
					c-0.5-0.1-0.9-0.1-1.4-0.1c-0.1,0-0.3,0-0.4,0c-0.1,0-0.2,0-0.4,0c-0.4,0-0.8,0-1.2,0H66c-0.5,0-1.1,0-1.6,0c-0.1,0-0.2,0-0.2,0
					c-0.9,0.1-1.7,0.1-2.4,0.2c0,0-0.1,0-0.1,0c-0.7,0.1-1.5,0.3-2.3,0.5c-0.1,0-0.2,0-0.2,0.1l-0.4,0.1c-0.3,0.1-0.6,0.2-0.9,0.3
					c-0.2,0.1-0.4,0.2-0.7,0.2c-0.3,0.1-0.5,0.2-0.7,0.3c-0.1,0-0.1,0.1-0.2,0.1l-0.1,0.1c-0.1,0-0.1,0.1-0.2,0.1
					c-0.3,0.1-0.5,0.3-0.8,0.4l-0.2,0.1c-0.1,0-0.1,0.1-0.2,0.1c-0.3,0.2-0.6,0.4-0.8,0.6c-0.1,0.1-0.3,0.2-0.4,0.4
					c0,0.1-0.1,0.1-0.1,0.2c-0.1,0.1-0.2,0.2-0.2,0.4c0,0.1-0.1,0.1-0.1,0.2c0,0,0,0,0,0c0,0,0,0.1-0.1,0.2c0,0,0,0,0,0
					C53.2,68.3,53.2,68.3,53.2,68.4z"/>
			</g>
		</g>
		<g>
			<g>
				<g>
					<path class="st2" d="M180.9,149.2H84.1c-0.8,0-1.5-0.7-1.5-1.5v-11.9c0-0.8,0.7-1.5,1.5-1.5h96.8c1,0,2.1,0,3.2-0.1
						c1.5-0.1,3.1-0.3,4.9-0.5l0.1,0c0.3,0,0.5-0.1,0.8-0.1c1.7-0.3,3.4-0.6,5-1.1c0.3-0.1,0.6-0.2,1-0.3c0.8-0.2,1.6-0.5,2.4-0.8
						l0.3-0.1c0.2-0.1,0.4-0.1,0.6-0.2c1.2-0.5,2.1-0.9,3-1.3c0.1-0.1,0.3-0.1,0.4-0.2c0.1-0.1,0.2-0.1,0.4-0.2l0.2-0.1
						c0.5-0.3,1-0.5,1.4-0.8c0.2-0.1,0.3-0.2,0.5-0.3l0.6-0.4c0.4-0.2,0.7-0.5,1.1-0.7c0.2-0.1,0.3-0.3,0.5-0.4l0.5-0.4
						c0.3-0.2,0.6-0.5,0.9-0.7c0.2-0.1,0.3-0.3,0.5-0.5l0.4-0.4c0.3-0.3,0.5-0.5,0.8-0.8c0.2-0.2,0.3-0.4,0.4-0.5l0.3-0.4
						c0.2-0.3,0.4-0.5,0.6-0.8c0.1-0.2,0.2-0.4,0.4-0.6l0.1-0.2c0.2-0.4,0.4-0.6,0.5-0.9c0.1-0.1,0.1-0.2,0.2-0.4l0.1-0.3
						c0.2-0.6,0.4-1.1,0.6-1.7l0.1-0.2c0-0.2,0.1-0.3,0.1-0.5c0.1-0.4,0.1-0.8,0.2-1.4c0-0.1,0-0.3,0-0.4c0-0.1,0-0.3,0-0.4
						c0-0.8,0.7-1.5,1.5-1.5s1.5,0.7,1.5,1.5l0,12.2c0,0.2,0,0.3-0.1,0.5l0,0.1c-0.1,0.7-0.1,1.3-0.2,1.8c0,0.1,0,0.2,0,0.3
						c0,0.1-0.1,0.3-0.1,0.5c-0.2,0.7-0.5,1.5-0.8,2.2c-0.1,0.2-0.1,0.3-0.2,0.5c0,0.1-0.1,0.2-0.2,0.3c-0.2,0.4-0.4,0.7-0.6,1.1
						l-0.2,0.3c-0.2,0.3-0.3,0.5-0.5,0.8c-0.2,0.3-0.5,0.6-0.7,1l-0.1,0.1c-0.1,0.1-0.1,0.2-0.2,0.2c-0.1,0.2-0.2,0.3-0.4,0.5
						c-0.1,0.1-0.1,0.1-0.2,0.2c-0.3,0.3-0.6,0.6-0.9,0.9l-0.4,0.4c-0.2,0.2-0.4,0.4-0.6,0.6c-0.3,0.3-0.7,0.6-1,0.8l-0.5,0.4
						c-0.2,0.2-0.4,0.3-0.6,0.5c-0.4,0.3-0.8,0.5-1.2,0.8l-0.6,0.4c-0.2,0.1-0.4,0.3-0.6,0.4c-0.5,0.3-1,0.6-1.5,0.8l-0.5,0.3
						c-0.2,0.1-0.4,0.2-0.5,0.3c0,0-0.1,0-0.1,0.1c-1,0.5-2,0.9-3.2,1.4c-0.2,0.1-0.4,0.2-0.7,0.2l-0.3,0.1
						c-0.9,0.3-1.7,0.6-2.6,0.9c-0.1,0-0.2,0-0.2,0.1c-0.1,0-0.3,0.1-0.4,0.1c-0.1,0-0.2,0.1-0.3,0.1c-1.8,0.5-3.5,0.9-5.4,1.2
						c-0.2,0-0.3,0.1-0.4,0.1c-0.1,0-0.3,0-0.4,0c-0.1,0-0.1,0-0.2,0c-1.8,0.3-3.5,0.4-5.1,0.5c0,0-0.1,0-0.1,0
						C183.1,149.2,182,149.2,180.9,149.2z M85.6,146.2h95.2c1,0,2.1,0,3.1-0.1c0,0,0.1,0,0.1,0c1.5-0.1,3.1-0.3,4.8-0.5
						c0.1,0,0.2,0,0.4,0c0.1,0,0.1,0,0.2,0c0.2,0,0.3-0.1,0.4-0.1c1.7-0.3,3.4-0.6,5-1.1c0.1,0,0.2,0,0.3-0.1c0.1,0,0.2-0.1,0.3-0.1
						c0.1,0,0.2-0.1,0.4-0.1c0.8-0.2,1.6-0.5,2.4-0.8l0.4-0.1c0.2-0.1,0.4-0.1,0.6-0.2c1.1-0.4,2.1-0.9,3-1.3c0,0,0.1,0,0.1-0.1
						c0,0,0.2-0.1,0.3-0.2c0.1-0.1,0.2-0.1,0.4-0.2l0.2-0.1c0.5-0.2,0.9-0.5,1.4-0.8c0.2-0.1,0.3-0.2,0.5-0.3l0.6-0.4
						c0.4-0.2,0.7-0.5,1-0.7c0.2-0.1,0.3-0.3,0.5-0.4l0.5-0.4c0.3-0.2,0.6-0.5,0.9-0.7c0.2-0.2,0.3-0.3,0.5-0.5l0.4-0.4
						c0.3-0.2,0.5-0.5,0.7-0.8c0.1-0.1,0.1-0.1,0.2-0.2c0.1-0.1,0.1-0.2,0.2-0.3c0.1-0.1,0.2-0.2,0.2-0.3l0.1-0.1
						c0.2-0.3,0.4-0.5,0.6-0.8c0.1-0.2,0.2-0.4,0.4-0.6l0.2-0.3c0.2-0.3,0.3-0.6,0.5-0.8c0-0.1,0.1-0.2,0.1-0.2
						c0-0.1,0.1-0.3,0.1-0.4c0.2-0.6,0.4-1.1,0.6-1.7c0-0.1,0.1-0.2,0.1-0.4c0-0.1,0-0.2,0-0.3c0.1-0.4,0.1-0.8,0.2-1.4
						c0-0.1,0-0.3,0.1-0.4l0-0.4v-3c-0.2,0.2-0.4,0.5-0.6,0.7l-0.3,0.3c-0.2,0.2-0.4,0.5-0.6,0.7c-0.3,0.3-0.6,0.6-0.9,0.9l-0.4,0.4
						c-0.2,0.2-0.4,0.4-0.6,0.6c-0.3,0.3-0.7,0.6-1,0.8l-0.5,0.4c-0.2,0.2-0.4,0.3-0.6,0.5c-0.4,0.3-0.8,0.6-1.2,0.8l-0.5,0.3
						c-0.2,0.1-0.4,0.3-0.6,0.4c-0.5,0.3-1,0.6-1.6,0.9l-0.5,0.3c-0.2,0.1-0.4,0.2-0.5,0.3c-1,0.5-2,0.9-3.3,1.4
						c-0.2,0.1-0.5,0.2-0.7,0.3l-0.3,0.1c-0.9,0.3-1.7,0.6-2.6,0.9c-0.3,0.1-0.7,0.2-1,0.3c-1.7,0.5-3.5,0.9-5.3,1.2
						c-0.3,0-0.5,0.1-0.8,0.1l-0.1,0c-1.8,0.3-3.5,0.4-5.1,0.5c-1.2,0.1-2.3,0.1-3.4,0.1H85.6V146.2z"/>
				</g>
			</g>
			<g>
				<g>
					<path class="st2" d="M84.1,173.2c-1.1,0-2.2,0-3.3-0.1c-0.3,0-0.6,0-0.9-0.1l-0.7,0c-0.4,0-0.9-0.1-1.3-0.1
						c-1.5-0.1-2.9-0.3-4.3-0.5l-0.2,0c-0.1,0-0.2,0-0.3,0l-0.1,0c-1.5-0.2-3.1-0.5-4.7-0.9c-0.3-0.1-0.6-0.1-0.8-0.2l-1.1-0.3
						c-0.7-0.2-1.5-0.3-2.2-0.5c-0.1,0-0.3-0.1-0.4-0.1l-0.2-0.1c-0.3-0.1-0.6-0.2-0.9-0.3l-0.4-0.1c-1.1-0.3-2.1-0.7-3.1-1.1
						l-0.2-0.1c-0.4-0.1-0.8-0.3-1.1-0.4c-1.1-0.4-2.2-0.9-3.3-1.4l-0.3-0.1c-0.1-0.1-0.3-0.1-0.4-0.2c-1.2-0.6-2.5-1.2-3.7-2
						c-0.2-0.1-0.4-0.2-0.6-0.4l-0.3-0.2c-0.9-0.5-1.8-1.1-2.6-1.7c-0.4-0.2-0.7-0.5-1.1-0.8c-0.8-0.6-1.6-1.2-2.4-1.9l-0.3-0.2
						c-0.2-0.1-0.3-0.3-0.5-0.4c-1-0.9-2-1.8-2.8-2.7c-0.1-0.1-0.3-0.3-0.4-0.4l-0.2-0.2c-0.7-0.8-1.3-1.5-1.9-2.3
						c-0.3-0.3-0.5-0.6-0.7-1c-0.5-0.7-1.1-1.5-1.5-2.3l-0.2-0.3c-0.1-0.2-0.2-0.4-0.4-0.6c-0.7-1.1-1.2-2.2-1.7-3.2
						c0-0.1-0.1-0.2-0.1-0.3l-0.1-0.2c-0.4-1-0.8-1.9-1.1-2.9c-0.1-0.3-0.2-0.7-0.3-1l0-0.1c-0.2-0.8-0.4-1.7-0.6-2.6l0-0.3
						c0-0.3-0.1-0.5-0.1-0.8c-0.2-1.3-0.3-2.5-0.3-3.6v-11.9c0-0.8,0.7-1.5,1.5-1.5s1.5,0.7,1.5,1.5c0,1,0.1,2,0.2,3.2
						c0,0.2,0.1,0.4,0.1,0.7l0,0.3c0.1,0.8,0.3,1.6,0.5,2.3l0,0.1c0.1,0.3,0.1,0.6,0.2,0.9c0.3,0.9,0.6,1.8,0.9,2.6
						c0,0.1,0.1,0.2,0.1,0.3c0,0.1,0,0.1,0.1,0.2c0.4,0.9,0.9,1.9,1.5,2.9c0.1,0.2,0.2,0.3,0.3,0.5l0.2,0.3c0.5,0.7,0.9,1.4,1.4,2.1
						c0.2,0.3,0.4,0.6,0.7,0.9c0.5,0.7,1.1,1.4,1.8,2.1c0.1,0.1,0.2,0.2,0.3,0.3c0.1,0.1,0.2,0.2,0.3,0.3c0.8,0.8,1.7,1.7,2.6,2.5
						c0.1,0.1,0.2,0.2,0.4,0.3l0.3,0.3c0.8,0.6,1.5,1.2,2.3,1.8c0.3,0.2,0.7,0.5,1,0.7c0.8,0.5,1.6,1.1,2.4,1.6l0.4,0.2
						c0.2,0.1,0.4,0.2,0.6,0.3c1.2,0.7,2.4,1.3,3.6,1.9c0.1,0,0.2,0.1,0.3,0.1l0.3,0.2c1,0.5,2.1,0.9,3.2,1.4
						c0.4,0.2,0.8,0.3,1.2,0.5c0.9,0.3,1.9,0.7,3,1l0.4,0.1c0.3,0.1,0.5,0.2,0.8,0.3c1.1,0.3,2.3,0.6,3.2,0.8c0.2,0,0.4,0.1,0.6,0.1
						c0.2,0.1,0.5,0.1,0.7,0.2c1.6,0.3,3.1,0.6,4.6,0.8l0.5,0.1c1.3,0.2,2.7,0.3,4.1,0.4c0.4,0,0.9,0.1,1.3,0.1
						c1.8,0.1,3.2,0.2,4.5,0.2c0.8,0,1.5,0.7,1.5,1.5v11.9C85.6,172.5,85,173.2,84.1,173.2z M33,135.4c0,0.7,0.1,1.5,0.2,2.3
						c0,0.2,0.1,0.4,0.1,0.7l0.1,0.3c0.1,0.8,0.3,1.6,0.5,2.3l0,0.1c0.1,0.3,0.2,0.6,0.2,0.9c0.3,0.9,0.6,1.8,0.9,2.6
						c0,0.1,0.1,0.2,0.1,0.3c0,0.1,0,0.1,0.1,0.2c0.4,0.9,0.9,1.9,1.5,2.9c0.1,0.2,0.2,0.3,0.3,0.5l0.2,0.3c0.5,0.7,0.9,1.4,1.4,2.1
						c0.2,0.3,0.4,0.6,0.7,0.9c0.5,0.7,1.1,1.4,1.8,2.1l0.3,0.3c0.1,0.1,0.2,0.2,0.3,0.3c0.8,0.8,1.7,1.7,2.6,2.5
						c0.1,0.1,0.3,0.2,0.4,0.3l0.3,0.2c0.8,0.6,1.5,1.2,2.3,1.8c0.3,0.2,0.7,0.5,1,0.7c0.8,0.5,1.6,1,2.4,1.6l0.4,0.2
						c0.2,0.1,0.4,0.2,0.5,0.3c1.2,0.7,2.4,1.3,3.5,1.9c0.1,0,0.2,0.1,0.3,0.1l0.3,0.2c1,0.5,2.1,0.9,3.2,1.4
						c0.4,0.1,0.7,0.3,1.1,0.4l0.2,0.1c0.9,0.3,1.9,0.7,2.9,1l0.4,0.1c0.3,0.1,0.6,0.2,0.9,0.3c0.1,0,0.2,0.1,0.3,0.1
						c0.1,0,0.2,0.1,0.3,0.1c0.7,0.2,1.4,0.3,2,0.5l0.6,0.1c0.2,0,0.4,0.1,0.6,0.1c0.2,0.1,0.5,0.1,0.7,0.2c1.6,0.3,3.1,0.6,4.5,0.8
						c0,0,0.1,0,0.1,0l0.5,0.1c1.3,0.2,2.6,0.3,4.1,0.4c0.4,0,0.8,0.1,1.2,0.1l0.1,0c0.2,0,0.4,0,0.6,0c0.3,0,0.5,0,0.8,0.1
						c0.5,0,1.1,0,1.7,0.1v-8.9c-1,0-2-0.1-3.2-0.1c-0.5,0-0.9-0.1-1.4-0.1c-1.5-0.1-2.9-0.3-4.3-0.5l-0.2,0c-0.1,0-0.2,0-0.3,0
						c-1.6-0.2-3.2-0.5-4.8-0.9c-0.3-0.1-0.6-0.1-0.8-0.2l-0.5-0.1c-0.9-0.2-2.2-0.5-3.4-0.9c-0.3-0.1-0.6-0.2-0.9-0.3l-0.4-0.1
						c-1.1-0.3-2.1-0.7-3.1-1.1c-0.4-0.2-0.9-0.3-1.3-0.5c-1.1-0.4-2.3-0.9-3.4-1.4l-0.3-0.1c-0.1-0.1-0.3-0.1-0.4-0.2
						c-1.2-0.6-2.5-1.2-3.8-2c-0.2-0.1-0.4-0.3-0.6-0.4l-0.3-0.2c-0.9-0.5-1.8-1.1-2.6-1.7c-0.4-0.2-0.7-0.5-1.1-0.8
						c-0.8-0.6-1.6-1.2-2.4-1.9l-0.3-0.2c-0.2-0.1-0.3-0.3-0.5-0.4c-1-0.9-1.9-1.8-2.8-2.7c-0.1-0.1-0.2-0.3-0.4-0.4l-0.2-0.2
						c-0.7-0.8-1.4-1.5-1.9-2.3c-0.3-0.3-0.5-0.6-0.7-1c-0.5-0.7-1-1.5-1.5-2.3l-0.2-0.3c-0.1-0.2-0.3-0.4-0.4-0.6
						C33.8,136.8,33.4,136.1,33,135.4z"/>
				</g>
			</g>
		</g>
		<g>
			<g>
				<g>
					<path class="st2" d="M84.1,161.3c-29.8,0-54.1-17.4-54.1-38.7V68.4c0-4.5,2.2-8.9,6.3-12.6c6.7-5.9,17.8-9.5,29.7-9.5h114.9
						c19.9,0,36.1,9.9,36.1,22.1v46.8c0,12.2-16.2,22.1-36.1,22.1H85.6v22.5C85.6,160.6,85,161.3,84.1,161.3z M66,49.3
						c-11.1,0-21.5,3.3-27.7,8.7c-3.5,3.1-5.3,6.7-5.3,10.3v54.2c0,19.3,22.1,35.1,49.6,35.7v-22.5c0-0.8,0.7-1.5,1.5-1.5h96.8
						c18.2,0,33-8.6,33-19.1V68.4c0-10.5-14.8-19.1-33-19.1H66z M180.9,123.1H66c-1.4,0-2.4-0.1-3.6-0.2c-6.3-0.7-11.4-3.5-12.1-6.6
						l-0.1-0.3c-0.1-0.2-0.1-0.4-0.1-0.7V68.4c0-1.3,0.6-2.6,1.9-3.7c1.1-1,5.4-4.1,14-4.1h114.9c8.6,0,15.9,3.6,15.9,7.8v46.9
						C196.8,119.5,189.5,123.1,180.9,123.1z M53.2,115.2c0,0,0,0.1,0,0.1l0.1,0.3c0.2,1,3.4,3.5,9.6,4.2c1.1,0.1,2,0.2,3.2,0.2
						h114.9c7.9,0,12.9-3.1,12.9-4.8V68.4c0-1.7-5-4.8-12.9-4.8H66c-6,0-10.1,1.8-12,3.4c-0.4,0.4-0.9,0.9-0.9,1.4V115.2z"/>
				</g>
			</g>
		</g>
	</g>
	<g>
		<path class="st1" d="M84.1,135.8h104c0,0,21.7-1.6,26.7-17.6c0,0,10,23.3-27.7,29.5l-103-0.5L84.1,135.8z"/>
		<path class="st2" d="M187.2,149l-0.1,0l-104.3-0.5v-13.9h105.3c0.1,0,20.8-1.7,25.4-16.7l1-3.3l1.4,3.2c0.1,0.3,3.5,8.2-1,16.4
			c-4.1,7.5-13.4,12.6-27.7,14.9L187.2,149z M85.4,145.9l101.6,0.5c13.3-2.2,21.9-6.8,25.7-13.5c2.2-3.9,2.2-7.9,1.8-10.6
			c-7,13.2-25.4,14.8-26.3,14.8l-102.8,0V145.9z"/>
	</g>
	<g>
		<path class="st0" d="M4.6,221.7v-29.2H24v6.9H12.2v4.4h9.2v6.8h-9.2v4.1h12.7v6.9H4.6z"/>
		<path class="st0" d="M36.1,222.1c-3,0-5.6-1-7.6-2.9c-2-2-3-4.5-3-7.5c0-3.1,1-5.6,3.1-7.6c2.1-1.9,4.7-2.9,8-2.9
			c1.7,0,3.4,0.4,4.9,1.1s2.8,1.7,3.8,3.1l-4.8,4.1c-1-1.2-2.3-1.8-3.7-1.8c-1.2,0-2.1,0.4-2.8,1.1c-0.7,0.7-1,1.7-1,2.8
			c0,1.2,0.4,2.1,1.1,2.9c0.7,0.8,1.7,1.1,2.8,1.1c1.5,0,2.7-0.5,3.6-1.6l5,4.3c-0.9,1.1-2.2,2.1-3.8,2.8S38.2,222.1,36.1,222.1z"/>
		<path class="st0" d="M59.5,201.1c2.2,0,4,0.6,5.3,1.9c1.3,1.3,1.9,3.4,1.9,6.5v12.2h-7.3v-10.4c0-1.4-0.2-2.4-0.6-2.9
			c-0.4-0.5-1.2-0.8-2.2-0.8c-1.9,0-2.9,1.3-2.9,3.9v10.1h-7.3v-30.2h7.3v12.4h0C55.1,202,57.1,201.1,59.5,201.1z"/>
		<path class="st0" d="M78.8,222.1c-3.3,0-5.9-1-8-2.9c-2.1-1.9-3.1-4.5-3.1-7.6s1-5.6,3.1-7.6c2.1-1.9,4.7-2.9,8-2.9
			c3.2,0,5.9,1,7.9,2.9c2.1,1.9,3.1,4.5,3.1,7.6s-1,5.6-3.1,7.6C84.7,221.1,82.1,222.1,78.8,222.1z M76.2,214.5
			c0.7,0.8,1.6,1.1,2.6,1.1c1,0,1.9-0.4,2.6-1.1s1-1.7,1-2.9s-0.3-2.1-1-2.9c-0.7-0.7-1.5-1.1-2.6-1.1c-1.1,0-1.9,0.4-2.6,1.1
			c-0.7,0.7-1,1.7-1,2.9S75.5,213.8,76.2,214.5z"/>
		<path class="st0" d="M98,198.2c-0.8,0.8-1.8,1.1-3,1.1c-1.2,0-2.2-0.4-3-1.1c-0.8-0.8-1.2-1.7-1.2-2.9c0-1.1,0.4-2,1.2-2.8
			s1.8-1.1,3-1.1c1.2,0,2.2,0.4,3,1.1s1.2,1.7,1.2,2.8C99.2,196.5,98.8,197.4,98,198.2z M91.3,221.7v-20.1h7.4v20.1H91.3z"/>
		<path class="st0" d="M114.1,201.1c2.2,0,4,0.6,5.3,1.9c1.3,1.3,1.9,3.4,1.9,6.5v12.2h-7.3v-10.4c0-1.4-0.2-2.4-0.6-2.9
			c-0.4-0.5-1.1-0.8-2-0.8c-1.9,0-2.9,1.3-2.9,3.9v10.1H101v-20.1h7.3v2.2h0C109.9,202,111.8,201.1,114.1,201.1z"/>
		<path class="st0" d="M136.5,201.6h7.3v17.2c0,3.6-0.9,6.5-2.6,8.5s-4.6,3-8.6,3c-3.2,0-6-0.6-8.3-1.8l1.6-5.8
			c0.7,0.5,1.7,0.9,2.8,1.2s2.1,0.5,3,0.5c1.6,0,2.8-0.3,3.6-0.9s1.3-1.4,1.3-2.3v-1.8h0c-1.3,1.4-3.1,2.1-5.3,2.1
			c-2.7,0-4.8-0.9-6.5-2.8c-1.7-1.9-2.5-4.2-2.5-7c0-3,0.8-5.4,2.5-7.4c1.7-1.9,3.7-2.9,6.1-2.9c2.2,0,4.1,0.8,5.5,2.4h0V201.6z
			 M130.7,213.8c0.7,0.7,1.5,1,2.5,1s1.9-0.3,2.5-1c0.7-0.7,1-1.5,1-2.6c0-1-0.3-1.9-1-2.6c-0.7-0.7-1.5-1-2.5-1s-1.9,0.3-2.5,1
			c-0.7,0.7-1,1.5-1,2.6C129.7,212.3,130,213.1,130.7,213.8z"/>
		<path class="st0" d="M193.3,192.5h8.3l-9.1,29.2h-7.1l-4.3-17.7h-0.1l-4.6,17.7h-7.1l-9.1-29.2h8.3l4.2,16.3h0.1l3.9-16.3h8.2
			l3.8,16.3h0.1L193.3,192.5z"/>
		<path class="st0" d="M212.6,201.6h7.3v20.1h-7v-1.9h0c-1.2,1.5-2.9,2.3-5.2,2.3c-2.8,0-5-1-6.8-2.9c-1.7-1.9-2.6-4.5-2.6-7.6
			c0-3.1,0.8-5.6,2.5-7.5c1.7-2,3.8-2.9,6.4-2.9c2.1,0,3.9,0.8,5.3,2.4h0V201.6z M209.4,215.7c1,0,1.8-0.4,2.5-1.1s1-1.7,1-2.9
			c0-1.2-0.3-2.1-1-2.9c-0.7-0.8-1.5-1.1-2.5-1.1c-1,0-1.9,0.4-2.6,1.1c-0.7,0.8-1,1.7-1,2.9c0,1.2,0.3,2.2,1,3
			C207.4,215.3,208.3,215.7,209.4,215.7z"/>
		<path class="st0" d="M222.2,221.7v-30.2h7.4v30.2H222.2z"/>
		<path class="st0" d="M232,221.7v-30.2h7.4v30.2H232z"/>
	</g>
	<g>
		<circle class="st0" cx="99.7" cy="166.3" r="6.5"/>
		<path class="st2" d="M99.7,174.1c-4.3,0-7.8-3.5-7.8-7.8s3.5-7.8,7.8-7.8s7.8,3.5,7.8,7.8S104,174.1,99.7,174.1z M99.7,161.1
			c-2.9,0-5.2,2.3-5.2,5.2s2.3,5.2,5.2,5.2s5.2-2.3,5.2-5.2S102.5,161.1,99.7,161.1z"/>
	</g>
	<g>
		<circle class="st0" cx="120.7" cy="166.3" r="6.5"/>
		<path class="st2" d="M120.7,174.1c-4.3,0-7.8-3.5-7.8-7.8s3.5-7.8,7.8-7.8s7.8,3.5,7.8,7.8S125,174.1,120.7,174.1z M120.7,161.1
			c-2.9,0-5.2,2.3-5.2,5.2s2.3,5.2,5.2,5.2s5.2-2.3,5.2-5.2S123.6,161.1,120.7,161.1z"/>
	</g>
	<g>
		<circle class="st0" cx="142.1" cy="166.3" r="6.5"/>
		<path class="st2" d="M142.1,174.1c-4.3,0-7.8-3.5-7.8-7.8s3.5-7.8,7.8-7.8s7.8,3.5,7.8,7.8S146.4,174.1,142.1,174.1z M142.1,161.1
			c-2.9,0-5.2,2.3-5.2,5.2s2.3,5.2,5.2,5.2s5.2-2.3,5.2-5.2S145,161.1,142.1,161.1z"/>
	</g>
	<g>
		<rect x="104.8" y="119.6" class="st2" width="36.2" height="2.6"/>
	</g>
	<g class="st3">
		<path class="st4" d="M72.4,90.3v0.3c1.9,2.6,4.4,4.5,7.2,4.5c2.8,0,5.3-1.9,7.2-4.4v-0.3H72.4z"/>
	</g>
	<g>
		<g>
			<path class="st5" d="M64.5,121.2c0.8-0.1,1.4,0.1,1.9,0.5H105l-0.2-18.6c0,0-21.4-27.1-47.9,1.4l-0.2,15.1
				C59.2,120.5,61.7,121.5,64.5,121.2z"/>
		</g>
		<g class="st6">
			<path class="st2" d="M81.3,96.3c9,0,17.6,4,23.3,10.6c0.6-1.4,0.6-2.4,0.6-2.5l0-0.1l0-0.1c-4.9-7.8-14.1-12.6-23.8-12.6
				c-9.8,0-18.9,4.8-23.8,12.6l-0.2,0.2l0,0.1c0,0.1,0,1,0.6,2.4C63.6,100.3,72.2,96.3,81.3,96.3z"/>
		</g>
		<g>
			<path class="st2" d="M106.5,103.9l-0.1-0.3c-5.2-8.2-14.8-13.3-25-13.3c-10.3,0-19.8,5.1-25,13.3l-0.4,0.8v15
				c0.8,0.3,1.5,0.5,2.3,0.8v-15.3l0.1-0.1c4.8-7.5,13.6-12.1,23-12.1c9.4,0,18.2,4.6,23,12.1l0,0.1l0,0c0,0,0,0,0,0l0.1-0.1l2-0.6
				L106.5,103.9z"/>
		</g>
		<g>
			<path class="st2" d="M64,120.2h-5.6c2,0.7,4,1.2,6.1,1c0.8-0.1,1.4,0.1,1.9,0.5v-6.9H64V120.2z"/>
		</g>
		<g>
			<path class="st2" d="M106.6,122.5H96.2v-7.7h2.3v5.4h5.8v-15.3l-0.1-0.1c-4.8-7.5-13.6-12.1-23-12.1c-9.4,0-18.2,4.6-23,12.1
				l0,0.1l0,0c0,0,0,0,0,0l-0.1-0.1l-2-0.6l0.2-0.5c5.2-8.2,14.8-13.3,25-13.3s19.8,5.1,25,13.3l0.1,0.2l0.3,0.7V122.5z"/>
		</g>
		<g>
			<path class="st7" d="M81.2,102.2c-0.3-0.2-6.5-4.4-6.5-9.9v-6.6H88v6c0,0.2,0,0.4,0,0.6c0,5.5-6.2,9.7-6.5,9.9l-0.1,0.1
				L81.2,102.2z"/>
		</g>
		<g>
			<path class="st8" d="M74.9,86v5.4c1.7,2.3,3.9,4,6.4,4c2.5,0,4.7-1.7,6.4-3.9V86H74.9z"/>
		</g>
		<g>
			<circle class="st9" cx="81.3" cy="95.8" r="10"/>
		</g>
		<g>
			<path class="st2" d="M81.3,106.9c-6.1,0-11.1-5-11.1-11.1c0-6.1,5-11.1,11.1-11.1c6.1,0,11.1,5,11.1,11.1
				C92.4,101.9,87.4,106.9,81.3,106.9z M81.3,86.9c-4.9,0-8.8,4-8.8,8.8s4,8.8,8.8,8.8s8.8-4,8.8-8.8S86.1,86.9,81.3,86.9z"/>
		</g>
		<g>
			<circle class="st7" cx="81.2" cy="93.8" r="7.7"/>
		</g>
		<g>
			<path class="st2" d="M81.2,102.7c-4.9,0-8.8-4-8.8-8.8c0-4.9,4-8.8,8.8-8.8c4.9,0,8.8,4,8.8,8.8C90,98.7,86,102.7,81.2,102.7z
				 M81.2,87.3c-3.6,0-6.5,2.9-6.5,6.5c0,3.6,2.9,6.5,6.5,6.5c3.6,0,6.5-2.9,6.5-6.5C87.7,90.2,84.8,87.3,81.2,87.3z"/>
		</g>
		<g>
			<path class="st10" d="M124.7,43.9c0-5-3.6-9.1-8.4-9.9c0.4-1.1,0.7-2.4,0.7-3.7c0-5.6-4.5-10.1-10.1-10.1c-3,0-5.7,1.3-7.5,3.4
				c0-0.4,0.1-0.7,0.1-1.1c0-5.6-4.5-10.1-10.1-10.1c-3.4,0-6.4,1.7-8.2,4.3c-1.8-2.7-4.9-4.4-8.3-4.4c-5.6,0-10.1,4.5-10.1,10.1
				c0,0,0,0,0,0c-1.8-2.2-4.6-3.5-7.7-3.5c-5.6,0-10.1,4.5-10.1,10.1c0,1.5,0.3,2.9,0.9,4.2c-4.3,1.2-7.4,5.1-7.4,9.7
				c0,3.8,2.1,7.1,5.2,8.8c-2.6,1.8-4.3,4.8-4.3,8.3c0,4.6,3.1,8.5,7.3,9.7c-1,1.6-1.6,3.5-1.6,5.5c0,5.6,4.5,10.1,10.1,10.1
				c5.6,0,10.1-4.5,10.1-10.1c0-0.9-0.1-1.8-0.4-2.7c5,2.8,11.1,4.4,17.7,4.4c4,0,7.8-0.6,11.3-1.7c-0.1,0.6-0.2,1.1-0.2,1.7
				c0,5.6,4.5,10.1,10.1,10.1c5.6,0,10.1-4.5,10.1-10.1c0-2.1-0.6-4.1-1.7-5.7c5.5-0.1,9.9-4.6,9.9-10.1c0-3.1-1.4-5.9-3.7-7.8
				C122,51.8,124.7,48.2,124.7,43.9z"/>
		</g>
		<g>
			<path class="st2" d="M103.7,88c-6.2,0-11.2-5-11.2-11.2c0,0,0-0.1,0-0.1c-3.2,0.8-6.6,1.3-10,1.3c-5.7,0-11.3-1.2-16.2-3.5
				c0,0.2,0,0.4,0,0.6c0,6.2-5,11.2-11.2,11.2c-6.2,0-11.2-5-11.2-11.2c0-1.7,0.4-3.4,1.1-4.9c-4-1.8-6.8-5.8-6.8-10.3
				c0-3.1,1.3-6.1,3.5-8.2c-2.8-2.1-4.4-5.4-4.4-8.9c0-4.6,2.9-8.7,7.1-10.4c-0.4-1.1-0.6-2.3-0.6-3.5c0-6.2,5-11.2,11.2-11.2
				c2.5,0,4.8,0.8,6.8,2.3c1.1-5.1,5.6-8.8,11-8.8c3.2,0,6.3,1.4,8.4,3.7c2.1-2.3,5.1-3.6,8.2-3.6c5.7,0,10.4,4.3,11.1,9.8
				c1.9-1.3,4.1-2,6.4-2c6.2,0,11.2,5,11.2,11.2c0,1-0.1,1.9-0.4,2.8c4.7,1.4,8.1,5.7,8.1,10.8c0,4-2.2,7.8-5.7,9.7
				c1.8,2,2.8,4.7,2.8,7.5c0,5.5-4,10.1-9.2,11c0.7,1.5,1,3.1,1,4.7C114.9,83,109.9,88,103.7,88z M95.2,73.5l-0.3,1.8
				c-0.1,0.5-0.1,1-0.1,1.5c0,4.9,4,8.9,8.9,8.9s8.9-4,8.9-8.9c0-1.8-0.5-3.5-1.5-5l-1.2-1.8l2.1,0c4.8-0.1,8.8-4.1,8.8-8.9
				c0-2.7-1.2-5.2-3.3-6.9l-1.5-1.3l1.9-0.7c3.4-1.3,5.8-4.7,5.8-8.3c0-4.4-3.1-8.1-7.4-8.8l-1.4-0.2l0.5-1.3
				c0.4-1.1,0.6-2.1,0.6-3.2c0-4.9-4-8.9-8.9-8.9c-2.5,0-5,1.1-6.7,3l-2.4,2.7l0.4-3.6c0-0.4,0.1-0.7,0.1-1c0-4.9-4-8.9-8.9-8.9
				c-2.9,0-5.6,1.4-7.3,3.8l-1,1.4l-0.9-1.4c-1.7-2.5-4.4-3.9-7.4-3.9c-4.9,0-8.9,4-8.9,8.9v3.1l-2-2.3c-1.7-2-4.2-3.1-6.8-3.1
				c-4.9,0-8.9,4-8.9,8.9c0,1.3,0.3,2.5,0.8,3.7l0.6,1.2l-1.3,0.4c-3.9,1.1-6.6,4.6-6.6,8.6c0,3.3,1.8,6.2,4.6,7.8l1.6,0.9l-1.5,1.1
				c-2.4,1.7-3.8,4.4-3.8,7.3c0,3.9,2.7,7.5,6.4,8.6l1.5,0.4l-0.9,1.3c-1,1.5-1.5,3.1-1.5,4.9c0,4.9,4,8.9,8.9,8.9s8.9-4,8.9-8.9
				c0-0.8-0.1-1.6-0.3-2.4L63,70.1l2.4,1.3c5,2.8,11,4.3,17.1,4.3c3.8,0,7.4-0.6,10.9-1.6L95.2,73.5z"/>
		</g>
		<g>
			<path class="st11" d="M58.5,42.2l-0.4,34.1c0,0,1.9,14.5,23.2,14.7s21.3-13.3,22-17.1c0.7-3.8-0.5-39.3-0.5-39.3L58.5,42.2z"/>
		</g>
		<g>
			<path class="st7" d="M92.1,49.6c-1.2,0.5-2.5,0.7-3.9,0.7c-2.5,0-4.9-0.8-6.9-2.4c-2,1.5-4.4,2.4-6.9,2.4c-2.1,0-4.1-0.6-5.9-1.7
				c-1.8,4-5.7,6.7-10.2,6.7l-0.3,20.9c0,0,1.9,14.5,23.2,14.6c21.3,0.2,21.3-13.3,22-17.1c0.3-1.7,0.2-10,0.1-18.6
				c-0.5,0.1-1,0.1-1.5,0.1C97.8,55.3,94.1,53.1,92.1,49.6z"/>
		</g>
		<g>
			<path class="st8" d="M58.5,42.2l-0.2,13.2c4.5,0,8.4-2.7,10.2-6.7c1.8,1.1,3.8,1.7,5.9,1.7c2.5,0,4.9-0.8,6.9-2.4
				c2,1.5,4.4,2.4,6.9,2.4c1.3,0,2.6-0.2,3.9-0.7c2,3.5,5.7,5.7,9.8,5.7c0.5,0,1,0,1.5-0.1c-0.2-10.2-0.5-20.7-0.5-20.7L58.5,42.2z"
				/>
		</g>
		<g>
			<path class="st2" d="M85,92h-8.9c-10.7,0-19.5-8.5-19.5-18.9V46.7c0-10.4,8.7-18.9,19.5-18.9H85c10.7,0,19.5,8.5,19.5,18.9v26.4
				C104.5,83.5,95.7,92,85,92z M76.1,30.1c-9.5,0-17.2,7.5-17.2,16.6v26.4c0,9.2,7.7,16.6,17.2,16.6H85c9.5,0,17.2-7.5,17.2-16.6
				V46.7c0-9.2-7.7-16.6-17.2-16.6H76.1z"/>
		</g>
		<g>
			<path class="st12" d="M77.2,56c0,1-0.8,1.9-1.9,1.9h-8.3c-1,0-1.9-0.8-1.9-1.9l0,0c0-1,0.8-1.9,1.9-1.9h8.3
				C76.4,54.1,77.2,55,77.2,56L77.2,56z"/>
		</g>
		<g>
			<path class="st2" d="M75.4,59h-8.3c-1.7,0-3-1.4-3-3c0-1.7,1.4-3,3-3h8.3c1.7,0,3,1.4,3,3C78.4,57.6,77,59,75.4,59z M67.1,55.3
				c-0.4,0-0.7,0.3-0.7,0.7s0.3,0.7,0.7,0.7h8.3c0.4,0,0.7-0.3,0.7-0.7s-0.3-0.7-0.7-0.7H67.1z"/>
		</g>
		<g>
			<path class="st2" d="M85.3,88.4c0,0.4-0.3,0.6-0.7,0.6h-8.3c-0.4,0-0.7-0.3-0.7-0.6h-2.3c0,1.6,1.4,2.9,3,2.9h8.3
				c1.6,0,3-1.3,3-2.9H85.3z"/>
		</g>
		<g>
			<path class="st12" d="M95.2,56c0,1-0.8,1.9-1.9,1.9h-8.3c-1,0-1.9-0.8-1.9-1.9l0,0c0-1,0.8-1.9,1.9-1.9h8.3
				C94.4,54.1,95.2,55,95.2,56L95.2,56z"/>
		</g>
		<g>
			<path class="st2" d="M93.4,59h-8.3c-1.7,0-3-1.4-3-3c0-1.7,1.4-3,3-3h8.3c1.7,0,3,1.4,3,3C96.4,57.6,95,59,93.4,59z M85.1,55.3
				c-0.4,0-0.7,0.3-0.7,0.7s0.3,0.7,0.7,0.7h8.3c0.4,0,0.7-0.3,0.7-0.7s-0.3-0.7-0.7-0.7H85.1z"/>
		</g>
		<g>
			<circle class="st2" cx="71.5" cy="63.9" r="2.8"/>
		</g>
		<g>
			<circle class="st2" cx="89.2" cy="63.9" r="2.8"/>
		</g>
		<g>
			<path class="st10" d="M101.9,28.4c-1.6,0-3.1,0.4-4.4,1c-1.6-3.6-5.1-6.1-9.3-6.1c-2.7,0-5.1,1-6.9,2.7c-1.8-1.7-4.2-2.7-6.9-2.7
				c-4.6,0-8.5,3.1-9.7,7.4c-1.8-1.5-4-2.4-6.5-2.4c-5.6,0-10.1,4.5-10.1,10.1c0,5.6,4.5,10.1,10.1,10.1c4.6,0,8.5-3.1,9.7-7.4
				c1.8,1.5,4,2.4,6.5,2.4c2.7,0,5.1-1,6.9-2.7c1.8,1.7,4.2,2.7,6.9,2.7c1.6,0,3.1-0.4,4.4-1c1.6,3.6,5.1,6.1,9.3,6.1
				c5.6,0,10.1-4.5,10.1-10.1C112,33,107.5,28.4,101.9,28.4z"/>
		</g>
		<g>
			<path class="st2" d="M101.9,49.8c-4.1,0-7.8-2.2-9.8-5.7c-1.2,0.5-2.5,0.7-3.9,0.7c-2.5,0-4.9-0.8-6.9-2.4
				c-2,1.5-4.4,2.4-6.9,2.4c-2.1,0-4.1-0.6-5.9-1.7c-1.8,4-5.8,6.7-10.3,6.7c-6.2,0-11.3-5-11.3-11.3s5-11.3,11.3-11.3
				c2.1,0,4.1,0.6,5.9,1.7c1.8-4,5.8-6.7,10.3-6.7c2.5,0,4.9,0.8,6.9,2.4c2-1.5,4.4-2.4,6.9-2.4c4.1,0,7.8,2.2,9.8,5.7
				c1.2-0.5,2.5-0.7,3.9-0.7c6.2,0,11.3,5,11.3,11.3S108.1,49.8,101.9,49.8z M93.2,41l0.5,1.1c1.4,3.3,4.6,5.4,8.2,5.4
				c4.9,0,9-4,9-9s-4-9-9-9c-1.4,0-2.7,0.3-3.9,0.9L96.9,31l-0.5-1.1c-1.4-3.3-4.6-5.4-8.2-5.4c-2.3,0-4.4,0.9-6.1,2.4l-0.8,0.7
				L80.6,27c-1.7-1.6-3.8-2.4-6.1-2.4c-4,0-7.5,2.7-8.6,6.6l-0.5,1.7L64,31.7c-1.6-1.3-3.6-2.1-5.7-2.1c-4.9,0-9,4-9,9s4,9,9,9
				c4,0,7.5-2.7,8.6-6.6l0.5-1.7l1.4,1.1c1.6,1.3,3.6,2.1,5.7,2.1c2.3,0,4.4-0.9,6.1-2.4l0.8-0.7l0.8,0.7c1.7,1.6,3.8,2.4,6.1,2.4
				c1.4,0,2.7-0.3,3.9-0.9L93.2,41z"/>
		</g>
		<g>
			<path class="st13" d="M67.3,121.4c10,0,20,0,30,0"/>
		</g>
		<g>
			<path class="st2" d="M65.1,120.5v0.8c0.8,0.1,1.4,0.5,1.8,1h30.4v-1.8H65.1z"/>
		</g>
		<g>
			<path class="st2" d="M85.5,78.2v8H75.2v-8c0-2.8,2.3-5.1,5.1-5.1c1.4,0,2.7,0.6,3.6,1.5C84.9,75.5,85.5,76.8,85.5,78.2z"/>
		</g>
		<g>
			<path class="st14" d="M84.3,84.8h-7.6c0-2.1,1.7-3.8,3.8-3.8C82.6,81,84.3,82.7,84.3,84.8z"/>
		</g>
		<g>
			<g>
				<path class="st2" d="M80.3,71.6c-2.3,0-4.1-1.8-4.1-4.1c0-0.6,0.5-1.1,1.1-1.1s1.1,0.5,1.1,1.1c0,1,0.8,1.8,1.8,1.8
					s1.8-0.8,1.8-1.8c0-0.6,0.5-1.1,1.1-1.1c0.6,0,1.1,0.5,1.1,1.1C84.5,69.8,82.6,71.6,80.3,71.6z"/>
			</g>
		</g>
	</g>
	<g>
		<g>
			<g>
				<path class="st11" d="M178.8,120.8h10.8l-0.2-17.7c0,0-22.4-28.4-50.2,1.5l-0.2,16.7h39.7V120.8z"/>
			</g>
		</g>
		<g>
			<g>
				<path class="st15" d="M178.8,120.8h2.9v-4.7c0,0-5.9-7.7-3.1-20.7c-9.6-8.6-25.9-3.8-30.1,0c-0.1,0.1,7.4,14.4-1.1,20.1
					c-0.4,2.3-0.5,4.3-0.5,5.7h31.8V120.8z"/>
			</g>
		</g>
		<g>
			<g>
				<path class="st14" d="M194.9,70.8c0,11.5-3.1,22.1-8.2,30c-7-5.4-13.5-9.4-23-9.4c-8.7,0-16.8,4.7-23.5,11.6
					c-6-8.2-9.7-19.6-9.7-32.3c0-24.9,14.4-45.1,32.2-45.1S194.9,45.9,194.9,70.8z"/>
			</g>
			<g>
				<path class="st2" d="M140,105l-0.8-1.2c-6.4-8.8-10-20.5-10-33c0-25.5,15-46.3,33.4-46.3s33.4,20.8,33.4,46.3
					c0,11.3-3,22.2-8.4,30.7l-0.7,1.1l-1-0.8c-6.3-4.8-12.7-9.1-22.3-9.1c-7.7,0-15.5,3.9-22.6,11.2L140,105z M162.6,27
					c-17.1,0-31,19.7-31,43.9c0,11.5,3.1,22.2,8.7,30.4c7.3-7.2,15.3-10.9,23.3-10.9c9.8,0,16.4,4.1,22.7,8.8
					c4.7-7.9,7.3-17.9,7.3-28.3C193.7,46.6,179.7,27,162.6,27z"/>
			</g>
		</g>
		<g>
			<g>
				<path class="st2" d="M180,116v4.8h2.4v-5.5l-0.2-0.3c-0.1-0.1-5.8-9.4-2-18c3.3,2.1,6.1,4.8,8.2,8.1l0.1,0.1v15.5h2.4v-16
					l-0.3-0.7l-0.1-0.2c-5.4-8.6-15.5-13.9-26.2-13.9c-10.7,0-20.8,5.3-26.2,13.9l-0.2,0.6l2.1,0.6l0.1,0.1c0,0,0,0,0,0l0,0l0-0.1
					c5-7.8,14.2-12.6,24.1-12.6c4.9,0,9.7,1.2,13.8,3.4C174,104.9,178.9,114.2,180,116z"/>
			</g>
		</g>
		<g>
			<g>
				<path class="st2" d="M140.3,121.3l0.2-16.4c2-3.1,4.8-5.8,7.9-7.8c1.4,4.8,2.9,14.2-1.6,17.6l-0.5,0.4v6.3h2.4v-5.1
					c5.7-5.1,2.8-16.8,1.8-20.3c4.2-2.2,9-3.4,13.9-3.4c4,0,8,0.8,11.7,2.4c0.4,0.2,0.8,0.3,1.2,0.5c4.7,2.2,8.6,5.6,11.2,9.8l0,0.1
					l0,0c0,0,0,0,0,0l0.2-0.1l2.1-0.6l-0.1-0.3l-0.1-0.3c-2.9-4.6-7.2-8.3-12.3-10.8c-0.4-0.2-0.8-0.4-1.3-0.6
					c-4-1.7-8.2-2.5-12.6-2.5c-10.7,0-20.8,5.3-26.2,13.9l-0.2,0.3l-0.2,17.1H140.3z"/>
			</g>
		</g>
		<g>
			<g>
				<path class="st13" d="M161.5,99.8c0.3-0.7,0.5-1.5,0.5-2.4c0-3-2.5-5.5-5.5-5.5c-3,0-5.5,2.5-5.5,5.5c0,3,2.5,5.5,5.5,5.5
					c0.7,0,1.4-0.1,2-0.4c0,0,0,0.1,0,0.1c0,1.6,1.3,2.8,2.8,2.8c1.6,0,2.8-1.3,2.8-2.8C164.2,101.1,163,99.8,161.5,99.8z"/>
			</g>
			<g>
				<path class="st2" d="M161.4,106.4c-1.7,0-3.1-1.1-3.6-2.6c-0.4,0.1-0.8,0.1-1.3,0.1c-3.5,0-6.4-2.9-6.4-6.4
					c0-3.5,2.9-6.4,6.4-6.4c3.5,0,6.4,2.9,6.4,6.4c0,0.6-0.1,1.1-0.2,1.7c1.4,0.5,2.4,1.9,2.4,3.5
					C165.2,104.7,163.5,106.4,161.4,106.4z M159.6,101.1l-0.1,1.6c0,1,0.9,1.8,1.9,1.8c1,0,1.9-0.8,1.9-1.9c0-1-0.8-1.8-1.8-1.9
					l-1.4,0l0.6-1.3c0.3-0.6,0.5-1.3,0.5-2c0-2.5-2-4.6-4.6-4.6s-4.6,2-4.6,4.6s2,4.6,4.6,4.6c0.6,0,1.1-0.1,1.7-0.3L159.6,101.1z"
					/>
			</g>
		</g>
		<g>
			<g>
				<path class="st13" d="M172.2,91.9c-3,0-5.5,2.5-5.5,5.5c0,0.9,0.2,1.7,0.5,2.4c-1.5,0.1-2.7,1.3-2.7,2.8c0,1.6,1.3,2.8,2.8,2.8
					c1.6,0,2.8-1.3,2.8-2.8c0,0,0-0.1,0-0.1c0.6,0.3,1.3,0.4,2,0.4c3,0,5.5-2.5,5.5-5.5C177.7,94.4,175.3,91.9,172.2,91.9z"/>
			</g>
			<g>
				<path class="st2" d="M167.4,106.4c-2.1,0-3.8-1.7-3.8-3.8c0-1.6,1-3,2.4-3.5c-0.2-0.5-0.2-1.1-0.2-1.7c0-3.5,2.9-6.4,6.4-6.4
					s6.4,2.9,6.4,6.4c0,3.5-2.9,6.4-6.4,6.4c-0.4,0-0.8,0-1.3-0.1C170.5,105.2,169.1,106.4,167.4,106.4z M172.2,92.9
					c-2.5,0-4.6,2-4.6,4.6c0,0.7,0.2,1.3,0.5,2l0.6,1.3l-1.4,0c-1,0-1.8,0.9-1.8,1.9c0,1,0.8,1.9,1.9,1.9c1,0,1.9-0.8,1.9-1.9l0-1.4
					l1.3,0.5c0.5,0.2,1.1,0.3,1.7,0.3c2.5,0,4.6-2,4.6-4.6S174.8,92.9,172.2,92.9z"/>
			</g>
		</g>
		<g class="st16">
			<g>
				<path class="st2" d="M164.4,96.4c9.5,0,18.4,4.1,24.4,11.1c0.6-1.5,0.6-2.5,0.6-2.6l0-0.1l0-0.1c-5.2-8.2-14.7-13.2-25-13.2
					c-10.2,0-19.8,5.1-25,13.2l-0.2,0.3l0,0.1c0,0.1,0,1.1,0.6,2.5C145.9,100.6,154.9,96.4,164.4,96.4z"/>
			</g>
		</g>
		<g>
			<g>
				<path class="st11" d="M164.3,102.5c-0.3-0.2-6.8-4.6-6.8-10.3v-7h13.9v6.3c0,0.2,0,0.4,0,0.7c0,5.8-6.5,10.1-6.8,10.3l-0.1,0.1
					L164.3,102.5z"/>
			</g>
			<g>
				<path class="st2" d="M164.5,104l-0.8-0.5c-0.3-0.2-7.4-4.9-7.4-11.3V84h16.3v7.4c0,0.2,0,0.5,0,0.7c0,6.4-7.1,11.1-7.4,11.3
					L164.5,104z M158.7,86.4v5.8c0,4.3,4.2,7.8,5.8,8.9c1.5-1.1,5.8-4.7,5.8-8.9c0-0.2,0-0.4,0-0.5l0-0.1v-5.1H158.7z"/>
			</g>
		</g>
		<g>
			<g>
				<path class="st11" d="M171.1,85.5v6c0,0.2,0,0.4,0,0.7c0,5.7-6.7,10.1-6.7,10.1s-6.7-4.4-6.7-10.1v-6.7H171.1L171.1,85.5z
					 M171.6,85h-0.5h-13.4h-0.5v0.5v6.7c0,5.9,6.6,10.3,6.9,10.5l0.3,0.2l0.3-0.2c0.3-0.2,6.9-4.6,6.9-10.5c0-0.2,0-0.5,0-0.7v-6V85
					L171.6,85z"/>
			</g>
			<g>
				<path class="st2" d="M164.5,104.3l-0.9-0.6c-0.8-0.5-7.5-5.1-7.5-11.5v-8.4h16.8v7.7c0,0.3,0,0.5,0,0.8c0,6.4-6.7,11-7.5,11.5
					L164.5,104.3z M159,86.7v5.5c0,4,3.9,7.4,5.5,8.6c1.6-1.2,5.5-4.6,5.5-8.6c0-0.2,0-0.4,0-0.5l0-0.1v-4.8H159z"/>
			</g>
		</g>
		<g class="st3">
			<g>
				<path class="st4" d="M164.5,100.4c0,0-6.7-3.9-6.7-9v0.7c0,5.7,6.7,10.1,6.7,10.1s6.7-4.4,6.7-10.1c0-0.2,0-0.3,0-0.5
					C170.9,96.7,164.5,100.4,164.5,100.4z"/>
			</g>
		</g>
		<g class="st3">
			<g>
				<path class="st4" d="M157.8,85.5v5.6c1.7,2.4,4.1,4.1,6.7,4.1c2.6,0,4.9-1.7,6.7-4.1v-5.6H157.8z"/>
			</g>
		</g>
		<g>
			<g>
				<path class="st11" d="M187.5,69.7c-0.7,4.8-0.7,22-23,21.8c-3.3,0-6.2-0.5-8.7-1.2c-2.1-0.6-3.9-1.4-5.4-2.3
					c-9.2-5.4-10.2-15.2-10.2-15.2l0.5-43.5l28.3-6V35h18.5C187.6,48.6,187.9,66.8,187.5,69.7z"/>
			</g>
		</g>
		<g class="st16">
			<g>
				<path class="st2" d="M163.1,87.2c-14.1-1.3-20.3-8-23-13.5l0,2.9c0,0,0,0.2,0.1,0.5c0.1,0.1,0.1,0.3,0.2,0.4
					c1.2,3,2.9,7.1,6.4,7.6c1.4,0.2,2.2,1.9,2,3.3c3.8,2.4,9.2,2.2,13.5,2.5c3.7,0.3,9.7,1.6,13.5-0.1c0.2-0.4,0.5-0.7,1-1
					c3.1-1.9,7.6-4.2,9.2-7.7c0.2-0.7,0.4-1.4,0.5-2c0-0.3,0-0.6,0-0.9c0-0.4,0.1-0.8,0.2-1.1C183.5,83.5,177,88.5,163.1,87.2z"/>
			</g>
		</g>
		<g>
			<g>
				<path class="st11" d="M187.4,69.7c-0.1,1-0.3,2.4-0.5,4.2c-3.1,5.6-9.5,10.9-23.8,9.6c-14.1-1.3-20.3-8-23-13.5l0.4-33l0.1-7.6
					l0.7-0.1l27.6-5.8V35h18.5C187.6,48.6,187.9,66.8,187.4,69.7z"/>
			</g>
		</g>
		<g>
			<g>
				<path class="st11" d="M187.4,69.7c-0.1,1-0.3,2.4-0.5,4.2c-3.1,5.6-9.5,10.9-23.8,9.6c-14.1-1.3-20.3-8-23-13.5l0.4-33l0.1-7.6
					l0.7-0.1l27.6-5.8V35h18.5C187.6,48.6,187.9,66.8,187.4,69.7z"/>
			</g>
		</g>
		<g>
			<g>
				<path class="st2" d="M168.3,91.8H159c-11.2,0-20.4-8.9-20.4-19.8V44.4c0-10.9,9.1-19.8,20.4-19.8h9.3c11.2,0,20.4,8.9,20.4,19.8
					V72C188.7,82.9,179.5,91.8,168.3,91.8z M159,27c-9.9,0-18,7.8-18,17.4V72c0,9.6,8.1,17.4,18,17.4h9.3c9.9,0,18-7.8,18-17.4V44.4
					c0-9.6-8.1-17.4-18-17.4H159z"/>
			</g>
		</g>
		<g>
			<g>
				<path class="st2" d="M164.6,73.9c-2.4,0-4.3-1.9-4.3-4.3c0-0.7,0.5-1.2,1.2-1.2s1.2,0.5,1.2,1.2c0,1,0.9,1.9,1.9,1.9
					c1.1,0,1.9-0.9,1.9-1.9c0-0.7,0.5-1.2,1.2-1.2s1.2,0.5,1.2,1.2C168.9,72,166.9,73.9,164.6,73.9z"/>
			</g>
		</g>
		<g>
			<g>
				<path class="st14" d="M163,52c-17.2,0-28.6-2.3-28.7-2.3l-0.5-0.1v-0.5c0-18.7,13.1-33.8,29.1-33.8s29.1,15.2,29.1,33.8v0.5
					l-0.5,0.1C191.5,49.7,180.2,52,163,52z"/>
			</g>
			<g>
				<path class="st2" d="M163,53.2c-17.4,0-28.8-2.3-28.9-2.4l-1.4-0.3v-1.5c0-19.3,13.6-35,30.3-35s30.3,15.7,30.3,35v1.5l-1.4,0.3
					C191.8,50.9,180.4,53.2,163,53.2z M135.1,48.6c2.3,0.4,12.9,2.2,27.9,2.2s25.6-1.8,27.9-2.2c-0.2-17.8-12.7-32.1-27.9-32.1
					S135.3,30.8,135.1,48.6z"/>
			</g>
		</g>
		<g>
			<g>
				<path class="st14" d="M169.1,41.2c6.8,7.4,20.5,14.3,30.1,7.7c-5.3-0.6-10.5-4-12.7-9"/>
			</g>
		</g>
		<g>
			<g>
				<path class="st14" d="M187.4,41.2c4.3,4.6,14.6,4.3,19.2,0.3c-9.6-0.9-12.1-5.9-18-12.7c-5.9-6.8-11.8-8.4-20.1-8.4"/>
			</g>
		</g>
		<g>
			<g>
				<path class="st2" d="M157,60.5c0.3-0.6-0.1-1.5-1-1.8c-2.4-0.7-4.9-0.7-7.3,0c-0.9,0.3-1.3,1.1-1,1.8l0,0
					c0.3,0.6,1.1,0.9,1.8,0.7c1.9-0.6,3.9-0.6,5.8,0C155.9,61.4,156.7,61.1,157,60.5L157,60.5z"/>
			</g>
		</g>
		<g>
			<g>
				<path class="st2" d="M180.6,60.5c0.3-0.6-0.1-1.5-1-1.8c-2.4-0.7-4.9-0.7-7.3,0c-0.9,0.3-1.3,1.1-1,1.8l0,0
					c0.3,0.6,1.1,0.9,1.8,0.7c1.9-0.6,3.9-0.6,5.8,0C179.5,61.4,180.3,61.1,180.6,60.5L180.6,60.5z"/>
			</g>
		</g>
		<g>
			<g>
				<circle class="st2" cx="153.3" cy="65.2" r="3"/>
			</g>
		</g>
		<g>
			<g>
				<circle class="st2" cx="175.5" cy="65.2" r="3"/>
			</g>
		</g>
		<g class="st16">
			<g>
				<path class="st2" d="M154.3,53c0,0,13.1,0.9,28.5-0.8c0,0,1.7,0.5,3.5,0.8v3.5L154.3,53z"/>
			</g>
		</g>
		<g>
			<g>
				<path class="st17" d="M144.3,86.5c0,0,3.3,3.8,9,4.9c0,0-0.9,0.3-1.3,0.7c0,0-4.3,1.5-8,4.6C144,96.7,143,90.9,144.3,86.5z"/>
			</g>
		</g>
		<g>
			<g>
				<path class="st17" d="M189.9,37.9c-3.9-12.8-14.5-22-26.9-22c-15.8,0-28.2,17.3-27.9,32.7c12.7-6,12.4-22.6,27.9-22.6
					c11,0,20.5,5.2,25.3,12.8C188.7,38.3,189.3,38,189.9,37.9z"/>
			</g>
		</g>
		<g>
			<g>
				<path class="st2" d="M207.9,42.9l3.3-2.8l-4.3-0.4c-7.4-0.7-10-3.9-14.2-9.1c-0.8-1-1.6-2-2.5-3c-11.6-13.3-26.4-7.8-26.4-7.8
					s8.6,1,9.7,2.7c3.8,6.1,7.6,7.7,12.6,12.7c1,1,1.1,2.9,0,3.9c-4.1,3.6-10.2,3.9-15.4,3.8c-0.8,0-1.6-0.1-2.4-0.1
					c4.3,5.5,13.7,10.5,22.2,10.5h0c3.7,0,7-1,9.9-2.9l4.1-2.8l-5-0.6c-1-0.1-1.9-0.3-2.8-0.6c0.1,0,0.2,0,0.3,0
					C201.2,46.4,205.3,45.1,207.9,42.9z"/>
			</g>
		</g>
		<g>
			<g>
				<path class="st14" d="M186.7,40.4l0.7,0.8c4.3,4.6,14.6,4.3,19.2,0.3c-9.6-0.9-12.1-5.9-18-12.7c-5.9-6.8-16.7-9-25-9l19.1,18.5
					l-16.5,2.6c6.8,7.4,23.3,14.6,32.9,8.1C194.1,48.3,189,45.1,186.7,40.4z"/>
			</g>
		</g>
		<g>
			<g>
				<path class="st17" d="M171.3,43.5c0,0,15.1,9.7,24.7,5.6c0,0-3.6-1.2-4.9-3.5c0,0,2.8,2.6,7.7,3.3
					C198.7,48.9,189,56.6,171.3,43.5z"/>
			</g>
		</g>
		<g>
			<g>
				<path class="st17" d="M188.4,40.7c0,0,6.6,4.8,13.9,1.5c0,0-2.5-0.9-3.9-3c0,0,2.6,2,7.7,2.5C206.1,41.7,195.3,48.2,188.4,40.7z
					"/>
			</g>
		</g>
	</g>
	<g>
		<g>
			<path class="st18" d="M95.4,102.7L95.2,122h9.1h45.3l-0.3-20.9C149.4,101.1,125.3,70.6,95.4,102.7z"/>
		</g>
		<g class="st16">
			<path class="st2" d="M122.5,93.6c10.2,0,19.8,4.5,26.3,11.9c0.6-1.6,0.6-2.7,0.6-2.8l0-0.1l0-0.1c-5.5-8.8-15.8-14.2-26.8-14.2
				c-11,0-21.3,5.4-26.8,14.2l-0.2,0.3l0,0.1c0,0.1,0,1.2,0.6,2.7C102.6,98.1,112.3,93.6,122.5,93.6z"/>
		</g>
		<g>
			<g class="st6">
				<circle class="st19" cx="122.5" cy="113" r="1.9"/>
			</g>
			<g>
				<g>
					<circle class="st20" cx="122.5" cy="112.1" r="1.9"/>
				</g>
				<g>
					<g>
						<path class="st21" d="M122.5,114.3c-1.2,0-2.2-1-2.2-2.2c0-1.2,1-2.2,2.2-2.2c1.2,0,2.2,1,2.2,2.2
							C124.6,113.3,123.6,114.3,122.5,114.3z M122.5,110.5c-0.9,0-1.6,0.7-1.6,1.6c0,0.9,0.7,1.6,1.6,1.6c0.9,0,1.6-0.7,1.6-1.6
							C124.1,111.3,123.3,110.5,122.5,110.5z"/>
					</g>
				</g>
				<g>
					<path class="st22" d="M121.9,111.9c-0.2,0-0.3,0.1-0.3,0.3c0,0.2,0.1,0.3,0.3,0.3c0.2,0,0.3-0.1,0.3-0.3
						C122.2,112,122.1,111.9,121.9,111.9z M123,111.9c-0.2,0-0.3,0.1-0.3,0.3c0,0.2,0.1,0.3,0.3,0.3c0.2,0,0.3-0.1,0.3-0.3
						C123.3,112,123.1,111.9,123,111.9z"/>
				</g>
			</g>
		</g>
		<g>
			<g class="st6">
				<circle class="st19" cx="122.5" cy="107" r="1.9"/>
			</g>
			<g>
				<g>
					<circle class="st20" cx="122.5" cy="106.2" r="1.9"/>
				</g>
				<g>
					<g>
						<path class="st21" d="M122.5,108.4c-1.2,0-2.2-1-2.2-2.2c0-1.2,1-2.2,2.2-2.2c1.2,0,2.2,1,2.2,2.2
							C124.6,107.4,123.6,108.4,122.5,108.4z M122.5,104.6c-0.9,0-1.6,0.7-1.6,1.6c0,0.9,0.7,1.6,1.6,1.6c0.9,0,1.6-0.7,1.6-1.6
							C124.1,105.3,123.3,104.6,122.5,104.6z"/>
					</g>
				</g>
				<g>
					<path class="st22" d="M121.9,105.9c-0.2,0-0.3,0.1-0.3,0.3c0,0.2,0.1,0.3,0.3,0.3c0.2,0,0.3-0.1,0.3-0.3
						C122.2,106.1,122.1,105.9,121.9,105.9z M123,105.9c-0.2,0-0.3,0.1-0.3,0.3c0,0.2,0.1,0.3,0.3,0.3c0.2,0,0.3-0.1,0.3-0.3
						C123.3,106.1,123.1,105.9,123,105.9z"/>
				</g>
			</g>
		</g>
		<g>
			<g>
				<path class="st22" d="M125.9,116.3c-0.1,0-0.1-0.1-0.1-0.1v-0.3c0-0.1,0.1-0.1,0.1-0.1c0.1,0,0.1,0.1,0.1,0.1v0.3
					C126,116.2,126,116.3,125.9,116.3z M125.9,115.2c-0.1,0-0.1-0.1-0.1-0.1v-0.3c0-0.1,0.1-0.1,0.1-0.1c0.1,0,0.1,0.1,0.1,0.1v0.3
					C126,115.1,126,115.2,125.9,115.2z M125.9,114.1c-0.1,0-0.1-0.1-0.1-0.1v-0.3c0-0.1,0.1-0.1,0.1-0.1c0.1,0,0.1,0.1,0.1,0.1v0.3
					C126,114,126,114.1,125.9,114.1z M125.9,113c-0.1,0-0.1-0.1-0.1-0.1v-0.3c0-0.1,0.1-0.1,0.1-0.1c0.1,0,0.1,0.1,0.1,0.1v0.3
					C126,112.9,126,113,125.9,113z M125.9,111.9c-0.1,0-0.1-0.1-0.1-0.1v-0.3c0-0.1,0.1-0.1,0.1-0.1c0.1,0,0.1,0.1,0.1,0.1v0.3
					C126,111.8,126,111.9,125.9,111.9z M125.9,110.8c-0.1,0-0.1-0.1-0.1-0.1v-0.3c0-0.1,0.1-0.1,0.1-0.1c0.1,0,0.1,0.1,0.1,0.1v0.3
					C126,110.7,126,110.8,125.9,110.8z M125.9,109.7c-0.1,0-0.1-0.1-0.1-0.1v-0.3c0-0.1,0.1-0.1,0.1-0.1c0.1,0,0.1,0.1,0.1,0.1v0.3
					C126,109.6,126,109.7,125.9,109.7z M125.9,108.6c-0.1,0-0.1-0.1-0.1-0.1v-0.3c0-0.1,0.1-0.1,0.1-0.1c0.1,0,0.1,0.1,0.1,0.1v0.3
					C126,108.5,126,108.6,125.9,108.6z M125.9,107.5c-0.1,0-0.1-0.1-0.1-0.1v-0.3c0-0.1,0.1-0.1,0.1-0.1c0.1,0,0.1,0.1,0.1,0.1v0.3
					C126,107.4,126,107.5,125.9,107.5z M125.9,106.4c-0.1,0-0.1-0.1-0.1-0.1V106c0-0.1,0.1-0.1,0.1-0.1c0.1,0,0.1,0.1,0.1,0.1v0.3
					C126,106.3,126,106.4,125.9,106.4z M125.9,105.3c-0.1,0-0.1-0.1-0.1-0.1v-0.3c0-0.1,0.1-0.1,0.1-0.1c0.1,0,0.1,0.1,0.1,0.1v0.3
					C126,105.2,126,105.3,125.9,105.3z M125.9,104.2c-0.1,0-0.1-0.1-0.1-0.1v-0.3c0-0.1,0.1-0.1,0.1-0.1c0.1,0,0.1,0.1,0.1,0.1v0.3
					C126,104.1,126,104.2,125.9,104.2z"/>
			</g>
		</g>
		<g>
			<path class="st2" d="M105.6,123H93.9v-20.4l0.4-0.9c5.8-9.2,16.6-14.9,28.2-14.9c11.5,0,22.3,5.7,28.2,14.9l0.1,0.3l0.1,0.3
				l-2.3,0.7l-0.2,0.1c0,0,0,0,0,0l0,0l0-0.1c-5.4-8.4-15.3-13.6-25.9-13.6c-10.6,0-20.6,5.2-25.9,13.7l-0.1,0.2v17.3h6.5v-6.1h2.6
				V123z"/>
		</g>
		<g>
			<path class="st2" d="M151,123h-11.7v-8.7h2.6v6.1h6.5v-17.3l-0.1-0.2c-5.4-8.4-15.3-13.7-25.9-13.7c-10.6,0-20.5,5.2-25.9,13.6
				l0,0.1l0,0c0,0,0,0,0,0l-0.2-0.1l-2.3-0.7l0.2-0.6c5.8-9.2,16.6-14.9,28.2-14.9c11.5,0,22.3,5.7,28.2,14.9l0.1,0.2l0.3,0.7V123z"
				/>
		</g>
		<g>
			<path class="st23" d="M122.5,100.3l-4.9,3.5l-0.2-0.1c-0.2-0.1-4.7-3.3-5.8-7c-1.4-5.2,3.2-10.7,3.4-11l0.1-0.1h14.7l0.1,0.1
				c0.2,0.2,4.9,5.8,3.4,11c-1,3.7-5.6,6.9-5.8,7l-0.2,0.1L122.5,100.3z"/>
		</g>
		<g>
			<path class="st11" d="M129.7,85.8c0,0,4.8,5.6,3.4,10.7c-1,3.6-5.7,6.9-5.7,6.9l-4.9-3.5l-4.9,3.5c0,0-4.6-3.2-5.7-6.9
				c-1.4-5.1,3.4-10.7,3.4-10.7h7.3h0.6H129.7L129.7,85.8z M130,85.3h-0.3h-6.6h-0.6h-7.3h-0.3l-0.2,0.2c-0.2,0.2-5,5.9-3.5,11.2
				c1.1,3.8,5.7,7,5.9,7.2l0.3,0.2l0.3-0.2l4.6-3.2l4.6,3.2l0.3,0.2l0.3-0.2c0.2-0.1,4.8-3.4,5.9-7.2c1.5-5.3-3.3-11-3.5-11.2
				L130,85.3L130,85.3z"/>
			<path class="st2" d="M127.4,105.6l-4.9-3.4l-4.9,3.4l-1.1-0.7c-0.5-0.4-5.2-3.7-6.4-7.9c-1.7-6,3.5-12.1,3.7-12.4l0.6-0.6h16.1
				l0.6,0.6c0.2,0.3,5.4,6.4,3.7,12.4c-1.2,4.2-5.8,7.5-6.4,7.9L127.4,105.6z M122.5,98.4l4.9,3.4c1.3-1,3.8-3.2,4.4-5.6
				c1-3.6-1.7-7.7-2.7-9.1H116c-1,1.3-3.7,5.4-2.7,9.1c0.7,2.4,3.2,4.6,4.4,5.6L122.5,98.4z"/>
		</g>
		<g>
			<g>
				<path class="st11" d="M122.4,100.2c-0.3-0.2-7.3-4.9-7.3-11.1v-7.5H130v6.8c0,0.2,0,0.5,0,0.7c0,6.2-7,10.9-7.3,11.1l-0.2,0.1
					L122.4,100.2z"/>
				<path class="st2" d="M122.5,101.8l-0.9-0.6c-0.3-0.2-7.9-5.3-7.9-12.2v-8.8h17.5v8c0,0.2,0,0.5,0,0.8c0,6.9-7.6,12-7.9,12.2
					L122.5,101.8z M116.4,82.9v6.2c0,4.6,4.6,8.4,6.2,9.6c1.6-1.2,6.2-5,6.2-9.6c0-0.2,0-0.4,0-0.6l0-0.1v-5.5H116.4z"/>
			</g>
			<g>
				<path class="st11" d="M129.7,81.9v6.5c0,0.2,0,0.5,0,0.7c0,6.1-7.2,10.9-7.2,10.9s-7.2-4.7-7.2-10.9v-7.2H129.7L129.7,81.9z
					 M130.3,81.3h-0.5h-14.4h-0.5v0.5v7.2c0,6.3,7.1,11.1,7.5,11.3l0.3,0.2l0.3-0.2c0.3-0.2,7.5-5,7.5-11.3c0-0.2,0-0.5,0-0.7v-6.5
					V81.3L130.3,81.3z"/>
				<path class="st2" d="M122.5,102.1l-1-0.7c-0.8-0.5-8-5.5-8-12.4v-9h18.1v8.2c0,0.3,0,0.5,0,0.8c0,7-7.7,12.2-8,12.4L122.5,102.1
					z M116.6,83.2v5.9c0,4.3,4.2,7.9,5.9,9.3c1.7-1.3,5.9-5,5.9-9.3c0-0.2,0-0.4,0-0.6l0-0.1v-5.2H116.6z"/>
			</g>
		</g>
		<g class="st3">
			<path class="st4" d="M122.5,97.9c0,0-7.2-4.2-7.2-9.7v0.8c0,6.1,7.2,10.9,7.2,10.9s7.2-4.7,7.2-10.9c0-0.2,0-0.3,0-0.5
				C129.5,93.9,122.5,97.9,122.5,97.9z"/>
		</g>
		<g class="st3">
			<path class="st4" d="M115.3,81.9v6c1.9,2.6,4.4,4.5,7.2,4.5c2.8,0,5.3-1.9,7.2-4.4v-6.1H115.3z"/>
		</g>
		<g>
			<path class="st11" d="M96.9,32.6l-0.5,38.3c0,0,2.2,16.3,26.2,16.5s24-15,24.7-19.2c0.8-4.3-0.5-44.3-0.5-44.3L96.9,32.6z"/>
		</g>
		<g class="st6">
			<path class="st4" d="M126.7,87.4c11.4,0,20.6-9,20.6-20v-15c-0.9-0.6-2.2-0.9-3.7-0.9c-2.8,0-5.1,1.3-5.1,2.8v13.4h-3.3
				c-2.9-3.3-7.5-5.4-12.7-5.4c-5.2,0-9.7,2.1-12.7,5.4h-5.3V54.3c0-1.6-2.3-2.8-5.1-2.8c-1.3,0-2.4,0.3-3.3,0.7v15.2
				c0,11,9.2,20,20.6,20H126.7z"/>
		</g>
		<g>
			<path class="st2" d="M126.7,88.7h-10c-12.1,0-21.9-9.6-21.9-21.3V37.6c0-11.7,9.8-21.3,21.9-21.3h10c12.1,0,21.9,9.6,21.9,21.3
				v29.8C148.6,79.1,138.8,88.7,126.7,88.7z M116.6,18.9c-10.6,0-19.3,8.4-19.3,18.7v29.8c0,10.3,8.7,18.7,19.3,18.7h10
				c10.6,0,19.3-8.4,19.3-18.7V37.6c0-10.3-8.7-18.7-19.3-18.7H116.6z"/>
		</g>
		<g>
			<g>
				<g>
					<path class="st24" d="M118.7,48.3c-0.5,1.1-1.7,1.5-2.9,1.2c-3.1-0.9-6.4-0.9-9.4,0c-1.1,0.3-2.4-0.2-2.9-1.2l0,0
						c-0.5-1.1,0.3-2.4,1.7-2.8c3.8-1.1,7.9-1.1,11.7,0C118.5,45.9,119.2,47.2,118.7,48.3L118.7,48.3z"/>
				</g>
			</g>
			<g>
				<g>
					<path class="st2" d="M116.6,50.9c-0.3,0-0.7,0-1-0.1c-2.9-0.8-5.9-0.8-8.8,0c-1.8,0.5-3.7-0.4-4.4-2c-0.3-0.8-0.3-1.7,0.1-2.5
						c0.5-1,1.4-1.7,2.5-2c4-1.1,8.3-1.1,12.4,0c1.1,0.3,2,1.1,2.5,2c0.4,0.8,0.4,1.8,0.1,2.5C119.4,50.1,118,50.9,116.6,50.9z
						 M111.2,47.6c1.7,0,3.4,0.2,5.1,0.7c0.1,0,0.2,0,0.3,0c0.3,0,0.8-0.1,1-0.6c0.1-0.1,0-0.3,0-0.4c-0.1-0.3-0.5-0.5-0.9-0.7
						c-3.6-1-7.4-1-11,0c-0.4,0.1-0.7,0.4-0.9,0.6c0,0.1-0.1,0.3,0,0.4c0.2,0.4,0.6,0.6,1,0.6c0.1,0,0.2,0,0.3,0
						C107.7,47.8,109.4,47.6,111.2,47.6z"/>
				</g>
			</g>
		</g>
		<g>
			<g>
				<g>
					<path class="st24" d="M138,48.3c0.5-1.1-0.3-2.4-1.7-2.8c-3.8-1.1-7.9-1.1-11.7,0c-1.4,0.4-2.2,1.8-1.7,2.8l0,0
						c0.5,1.1,1.7,1.5,2.9,1.2c3.1-0.9,6.4-0.9,9.4,0C136.2,49.8,137.5,49.3,138,48.3L138,48.3z"/>
				</g>
			</g>
			<g>
				<g>
					<path class="st2" d="M135.8,50.9L135.8,50.9c-0.3,0-0.7,0-1-0.1c-2.9-0.8-5.9-0.8-8.8,0c-0.3,0.1-0.7,0.1-1,0.1
						c-1.5,0-2.8-0.8-3.4-2.1c-0.3-0.8-0.3-1.7,0.1-2.5c0.5-1,1.4-1.7,2.5-2c4-1.1,8.3-1.1,12.4,0c1.1,0.3,2,1.1,2.5,2
						c0.4,0.8,0.4,1.8,0.1,2.5C138.6,50.1,137.3,50.9,135.8,50.9z M130.4,47.6c1.7,0,3.4,0.2,5.1,0.7c0.4,0.1,1.1,0,1.3-0.5
						c0.1-0.1,0-0.3,0-0.4c-0.1-0.3-0.5-0.5-0.9-0.6c-3.6-1-7.4-1-11,0c-0.4,0.1-0.7,0.4-0.9,0.7c0,0.1-0.1,0.2,0,0.4
						c0.2,0.4,0.6,0.6,1,0.6c0.1,0,0.2,0,0.3,0C127,47.8,128.7,47.6,130.4,47.6z"/>
				</g>
			</g>
		</g>
		<g>
			<circle class="st2" cx="111.5" cy="57" r="3.2"/>
		</g>
		<g>
			<circle class="st2" cx="131.4" cy="57" r="3.2"/>
		</g>
		<g class="st6">
			<path class="st4" d="M97,29.5c-0.9,2.5-0.6,16.5,1.8,13c0,0,12.4-6.1,22.8-4.7c4.9,0.7,23.1,3.6,24.7-6.4L121,20.9L97,29.5z"/>
		</g>
		<g>
			<path class="st24" d="M133.4,27.2c0,0,5.3,1.7,6,3.3s2.7,21.3,2.7,21.3s7,4.3,7.7-3.3s6.3-23-8.2-29.3
				C141.5,19.2,139,22.6,133.4,27.2z"/>
			<path class="st2" d="M145.9,54.4L145.9,54.4c-2.3,0-4.4-1.3-4.6-1.4l-0.5-0.3l-0.1-0.6c-0.9-9.3-2.2-19.9-2.6-21
				c-0.3-0.6-2.8-1.8-5.2-2.6l-2.3-0.7l1.8-1.5c5.5-4.5,7.9-7.7,8-7.8l0.6-0.8L142,18c13,5.7,10.9,18.1,9.6,26.4
				c-0.3,1.6-0.5,3-0.6,4.3C150.5,53.7,147.6,54.4,145.9,54.4z M143.2,51.1c0.6,0.3,1.7,0.7,2.7,0.7c0,0,0,0,0,0
				c0.7,0,2.2,0,2.4-3.4c0.1-1.3,0.4-2.9,0.6-4.5c1.3-7.7,3-18.1-7.2-23.1c-0.9,1.1-2.9,3.2-6,5.9c1.9,0.8,4.1,1.9,4.6,3.3
				C141.2,31.7,142.7,45.8,143.2,51.1z"/>
		</g>
		<g>
			<path class="st24" d="M108.3,27.2c0,0-5.3,1.7-6,3.3c-0.7,1.7-2.7,21.3-2.7,21.3s-7,4.3-7.7-3.3c-0.7-7.7-6.3-23,8.2-29.3
				C100.2,19.2,102.7,22.6,108.3,27.2z"/>
			<path class="st2" d="M95.7,54.4c-1.7,0-4.6-0.7-5-5.7c-0.1-1.2-0.4-2.7-0.6-4.3c-1.4-8.2-3.5-20.7,9.6-26.4l0.9-0.4l0.6,0.8
				c0,0,2.5,3.3,8,7.8l1.8,1.5l-2.3,0.7c-2.4,0.8-4.9,2-5.2,2.6c-0.4,1.1-1.6,11.6-2.6,21l-0.1,0.6l-0.5,0.3
				C100.1,53.1,98,54.4,95.7,54.4z M99.8,20.8c-10.2,5.1-8.4,15.5-7.2,23.1c0.3,1.6,0.5,3.2,0.6,4.5c0.3,3.4,1.8,3.4,2.5,3.4
				c1,0,2.1-0.4,2.7-0.7c0.5-5.3,2-19.4,2.7-21c0.6-1.4,2.8-2.6,4.6-3.3C102.7,24,100.7,21.9,99.8,20.8z"/>
		</g>
		<g>
			<path class="st24" d="M90.4,11.6c0,0,2-5,9-5.3c7-0.3,46.3,0,46.3,0s8.2,28.7-21.1,28.3c-29.3-0.3-22.2,10.2-29.8,2.3
				C83.4,24.9,90.4,11.6,90.4,11.6z"/>
			<path class="st2" d="M98.8,41.1c-1.5,0-2.7-1-4.9-3.3C82.3,25.7,88.7,12.1,89.2,11c0.3-0.7,2.7-5.7,10.1-6.1
				c2.1-0.1,7.2-0.1,15.2-0.1c13.6,0,31,0.1,31.2,0.1l1,0l0.3,0.9c0.2,0.5,3.8,13.5-2.9,22.4c-3.8,5.1-10.2,7.6-18.9,7.6l-0.5,0
				c-15.5-0.2-20.5,2.7-23.1,4.2C100.6,40.6,99.8,41.1,98.8,41.1z M114.5,7.4c-8,0-13,0-15.1,0.1c-6.1,0.3-7.8,4.5-7.8,4.5l-0.1,0.1
				c-0.3,0.5-6.4,12.7,4.3,23.8c0.7,0.8,2.4,2.5,3,2.5c0.3,0,0.8-0.3,1.4-0.7c2.8-1.6,8.1-4.7,24.4-4.6l0.5,0
				c7.9,0,13.6-2.2,16.9-6.6c4.9-6.5,3.3-16.1,2.7-19.2C140.7,7.5,126.2,7.4,114.5,7.4z"/>
		</g>
		<g>
			<path class="st25" d="M146.3,24c0,0-0.5,3.2-5.5,7.5l0.8,5.7c0,0,5.8-1.6,8.1-6.1C149.8,31.1,149.4,27.4,146.3,24z"/>
		</g>
		<g>
			<path class="st25" d="M144.6,7.5c0,0,6.8,24.5-17.2,25.8C127.3,33.2,145.1,30,144.6,7.5z"/>
		</g>
		<g>
			<path class="st25" d="M99.4,42.4c0,0-3.2,0.8-6.5,3.7c0,0-1.2-7.1-1.3-10.9c3.3,3.5,5.2,6.5,7.9,5.9L99.4,42.4z"/>
		</g>
		<g>
			<path class="st25" d="M89.7,20.3c0,0,3.3,12.9,16.6,14.8c0,0-3.2,0.9-6.7,3c0,0-0.7,0.9-1.9-0.4C96.4,36.5,89.2,30.9,89.7,20.3z"
				/>
		</g>
		<g>
			<path class="st2" d="M121.7,66.4c-2.6,0-4.6-2.1-4.6-4.6c0-0.7,0.6-1.3,1.3-1.3s1.3,0.6,1.3,1.3c0,1.1,0.9,2,2,2s2-0.9,2-2
				c0-0.7,0.6-1.3,1.3-1.3s1.3,0.6,1.3,1.3C126.3,64.3,124.2,66.4,121.7,66.4z"/>
		</g>
		<g>
			<path class="st2" d="M121.4,83.6c-3.3,0-5.9-2-5.9-4.6c0-0.7,0.6-1.3,1.3-1.3s1.3,0.6,1.3,1.3c0,1.1,1.5,2,3.3,2
				c0.7,0,1.3,0.6,1.3,1.3S122.1,83.6,121.4,83.6z"/>
		</g>
	</g>
	<g>
		<g>
			<path class="st2" d="M193.8,104.2v11.1c0,1.7-5,4.8-12.9,4.8H66c-1.2,0-2.2-0.1-3.2-0.2c-6.1-0.7-9.3-3.2-9.6-4.2l-0.1-0.5v-11
				h-3v11.1c0,0.2,0,0.4,0.1,0.7l0.1,0.3c0.7,3.1,5.9,5.9,12.2,6.6c1.1,0.2,2.2,0.2,3.6,0.2h114.9c8.6,0,15.9-3.6,15.9-7.8v-11.1
				H193.8z"/>
		</g>
	</g>
	<g>
		<path class="st2" d="M128.6,73.3c0,1.2-1.1,2.2-2.4,2.2h-9.1c-1.3,0-2.4-1-2.4-2.2l0,0c0-1.2,1.1-2.2,2.4-2.2h9.1
			C127.5,71.1,128.6,72.1,128.6,73.3L128.6,73.3z"/>
	</g>
	<g>
		<path class="st2" d="M170.7,76.8h-11.2l-0.9,0l-0.1,0.9v0.1c0,2.4,1.4,4.4,3.3,5.5c0.8,0.4,1.8,0.7,2.8,0.7c1,0,2-0.2,2.8-0.7
			c2-1,3.3-3.1,3.3-5.5L170.7,76.8z M164.6,82c-0.9,0-1.7-0.3-2.4-0.8c0.5-0.7,1.4-1.2,2.4-1.2s1.9,0.5,2.4,1.2
			C166.3,81.7,165.5,82,164.6,82z"/>
	</g>
	<g>
		<path class="st14" d="M167.6,81c-0.8,0.6-1.9,1-3,1c-1.1,0-2.2-0.4-3-1c0.6-0.9,1.7-1.6,3-1.6C165.9,79.5,167,80.1,167.6,81z"/>
	</g>
</g>
</svg>
